<?xml version="1.0" standalone="no"?>
<!DOCTYPE svg PUBLIC "-//W3C//DTD SVG 1.1//EN" "http://www.w3.org/Graphics/SVG/1.1/DTD/svg11.dtd" >
<svg xmlns="http://www.w3.org/2000/svg">
<metadata></metadata>
<defs>
<font id="karbid_normalregular" horiz-adv-x="1263" >
<font-face units-per-em="2048" ascent="1638" descent="-410" />
<missing-glyph horiz-adv-x="655" />
<glyph horiz-adv-x="2048" />
<glyph horiz-adv-x="2048" />
<glyph unicode="&#xd;" horiz-adv-x="2048" />
<glyph unicode=" "  horiz-adv-x="655" />
<glyph unicode="&#x09;" horiz-adv-x="655" />
<glyph unicode="&#xa0;" horiz-adv-x="655" />
<glyph unicode="!" horiz-adv-x="481" d="M102 104q0 51 36 88t87 37t88 -37t37 -88t-37 -86.5t-88 -35.5t-87 35.5t-36 86.5zM154 1542h204l-59 -1102l-143 -32z" />
<glyph unicode="&#x22;" horiz-adv-x="872" d="M203 934v528h159v-528h-159zM510 934v528h160v-528h-160z" />
<glyph unicode="#" horiz-adv-x="1257" d="M102 422v139h220l43 307h-209v140h227l59 419h142l-60 -419h226l59 419h141l-59 -419h182v-140h-201l-43 -307h187v-139h-207l-59 -422h-142l60 422h-226l-59 -422h-141l59 422h-199zM463 561h225l43 307h-225z" />
<glyph unicode="$" horiz-adv-x="1232" d="M213 139l98 129q51 -43 85 -67.5t94.5 -54t119.5 -37.5v567l-16 10q-59 37 -95.5 62t-84 67t-74.5 82t-46.5 97.5t-19.5 121.5q0 148 97.5 244.5t238.5 118.5v155h123v-153q198 -17 369 -150l-90 -119q-147 115 -279 131v-540q107 -69 115 -74q56 -37 94.5 -71t72 -78 t50 -99t16.5 -121q0 -153 -96 -257t-252 -126v-258l-123 -14v268q-123 8 -216.5 51.5t-180.5 114.5zM446 1128q0 -80 43.5 -137t120.5 -110v454q-74 -20 -119 -72t-45 -135zM733 113q79 19 127.5 78.5t48.5 144.5q0 60 -26 111.5t-61.5 85t-88.5 67.5v-487z" />
<glyph unicode="%" horiz-adv-x="1824" d="M154 1028q0 86 15.5 159t48 133.5t90 95t134.5 34.5q79 0 137 -33t91.5 -92.5t49 -133t15.5 -163.5q0 -77 -16.5 -145t-50 -125t-91.5 -90t-135 -33q-63 0 -113 21.5t-82.5 58t-53.5 87.5t-30 107t-9 119zM293 1030q0 -65 6.5 -114.5t22.5 -91t46 -63.5t74 -22 q43 0 72.5 21.5t45.5 62.5t23 91t7 116q0 72 -6.5 124.5t-22 97t-45.5 67t-74 22.5q-149 0 -149 -311zM324 -23l991 1475h178l-991 -1475h-178zM1092 373q0 86 15 159t47.5 133.5t89.5 95t134 34.5q79 0 137 -33t91.5 -92.5t49 -133t15.5 -163.5q0 -77 -16.5 -145t-50 -125 t-91.5 -90t-135 -33q-63 0 -113 21.5t-82 58t-53 87.5t-29.5 106.5t-8.5 119.5zM1231 375q0 -66 6 -114.5t21.5 -90t45.5 -63t74 -21.5q82 0 116 76t34 213q0 71 -6.5 124t-22.5 97t-46.5 67t-74.5 23q-147 0 -147 -311z" />
<glyph unicode="&#x26;" horiz-adv-x="1191" d="M158 375q0 131 68.5 222.5t172.5 117.5q-81 25 -135.5 100t-54.5 182q0 157 109.5 248.5t271.5 91.5q93 0 177 -33.5t148 -89.5l-102 -106q-109 94 -223 94q-86 0 -137.5 -56t-51.5 -149t46.5 -156t136.5 -63h82v-137h-80q-106 0 -172 -75t-66 -187q0 -114 64 -188 t176 -74q113 0 183.5 69.5t70.5 188.5v403h270l-12 -139h-88v-254q0 -184 -118 -294.5t-306 -110.5q-189 0 -309.5 106.5t-120.5 288.5z" />
<glyph unicode="'" horiz-adv-x="569" d="M217 934v528h160v-528h-160z" />
<glyph unicode="(" horiz-adv-x="735" d="M170 635q0 530 328 969l108 -74q-246 -361 -246 -895q0 -497 242 -897l-115 -70q-169 261 -243 486.5t-74 480.5z" />
<glyph unicode=")" horiz-adv-x="735" d="M129 1530l109 74q329 -440 329 -969q0 -254 -74.5 -479.5t-244.5 -487.5l-115 70q244 404 244 897q0 531 -248 895z" />
<glyph unicode="*" horiz-adv-x="720" d="M49 1214l37 99l217 -82v231h109v-231l219 82l41 -99l-223 -77l135 -187l-84 -63l-142 196l-133 -196l-92 63l133 187z" />
<glyph unicode="+" horiz-adv-x="1116" d="M82 440v158h391v418h170v-418h391v-158h-391v-440h-170v440h-391z" />
<glyph unicode="," horiz-adv-x="727" d="M205 117q0 59 39 101t98 42q75 0 127.5 -57t52.5 -137q0 -250 -241 -328l-72 141q92 45 92 74q0 32 -22 39q-35 14 -54.5 49.5t-19.5 75.5z" />
<glyph unicode="-" horiz-adv-x="1001" d="M205 508v158h592v-158h-592z" />
<glyph unicode="." horiz-adv-x="712" d="M205 98q0 63 44 108.5t107 45.5t107.5 -45.5t44.5 -108.5t-44.5 -107t-107.5 -44t-107 44t-44 107z" />
<glyph unicode="/" horiz-adv-x="817" d="M20 -35l607 1532h170l-607 -1532h-170z" />
<glyph unicode="0" horiz-adv-x="1163" d="M143 588q0 136 24 251.5t74 208.5t136 146t201 53q118 0 205 -49.5t138 -140t75 -205.5t24 -258q0 -97 -15 -185.5t-49.5 -169t-84.5 -139.5t-125.5 -94t-167.5 -35q-94 0 -169 33t-124 90t-81.5 136.5t-46.5 168t-14 189.5zM330 590q0 -82 5.5 -148t22 -130.5t43.5 -107 t72 -69t105 -26.5q72 0 122 37.5t76.5 107t37.5 150.5t11 186q0 75 -4 136t-14 122t-28 106t-44.5 80.5t-66 53.5t-90.5 18q-69 0 -118.5 -41t-77 -115t-40 -162.5t-12.5 -197.5z" />
<glyph unicode="1" horiz-adv-x="724" d="M20 954q117 19 197.5 90t110.5 185h157v-1092l220 -35v-102h-644v106l252 35v844q-81 -163 -264 -186z" />
<glyph unicode="2" horiz-adv-x="1067" d="M143 936q41 139 147.5 223t239.5 84q170 0 282 -91.5t112 -252.5q0 -62 -23 -116.5t-69.5 -101.5t-87.5 -78.5t-105 -72.5l-80 -51q-100 -63 -164.5 -147.5t-64.5 -184.5h565l-16 -147h-734q0 391 336 604l78 49q87 55 135.5 111.5t48.5 134.5q0 96 -59.5 151.5 t-151.5 55.5q-85 0 -145.5 -55.5t-87.5 -147.5z" />
<glyph unicode="3" horiz-adv-x="1089" d="M123 934q29 144 134 226.5t257 82.5q174 0 284.5 -103.5t110.5 -267.5q0 -107 -61.5 -190.5t-140.5 -114.5q115 -46 177 -150t62 -239q0 -131 -69.5 -233t-186 -156.5t-258.5 -54.5q-128 0 -278 47l57 151q129 -53 221 -55q137 -3 229.5 80.5t92.5 222.5q0 136 -76.5 224 t-210.5 88h-96v135h94q117 0 188.5 71t71.5 176q0 101 -58.5 166.5t-152.5 65.5q-90 0 -151.5 -56.5t-79.5 -148.5z" />
<glyph unicode="4" horiz-adv-x="1079" d="M82 0v145l520 1100l184 -78l-532 -1020h412v402l172 43v-445h221l-33 -147h-188v-242l-172 -43v285h-584z" />
<glyph unicode="5" horiz-adv-x="1069" d="M143 -219l52 149q3 -1 23.5 -8t27 -9t26.5 -8t29.5 -8.5t28 -6.5t31 -6t28 -3.5t29.5 -1.5q142 0 228.5 97t86.5 239q0 144 -86 227.5t-225 83.5q-84 0 -219 -30v731h674l-31 -156h-471v-414q52 9 82 9q213 0 341 -123t128 -328q0 -144 -68.5 -254t-187 -168.5 t-267.5 -58.5q-101 0 -260 47z" />
<glyph unicode="6" horiz-adv-x="1120" d="M143 682q0 180 28 323t85.5 250.5t153 165.5t223.5 58q193 0 321 -99l-88 -114q-101 77 -233 77q-81 0 -141.5 -43t-95 -120t-50.5 -170.5t-16 -206.5q36 60 102.5 99.5t136.5 39.5q196 0 302 -127t106 -348q0 -96 -27 -183t-78 -156t-134 -110t-187 -41q-97 0 -169.5 35 t-117.5 94.5t-72.5 151t-38 192.5t-10.5 232zM328 489q0 -106 20.5 -186.5t72 -133t130.5 -52.5q66 0 113 28t73 78t37.5 109.5t11.5 132.5q0 71 -11.5 130t-36 107.5t-67.5 75.5t-102 27q-76 0 -141.5 -45.5t-99.5 -122.5v-148z" />
<glyph unicode="7" horiz-adv-x="940" d="M82 1067v162l776 -2v-158q-192 -275 -295.5 -607t-103.5 -700l-203 -41q0 393 123 738t332 608h-629z" />
<glyph unicode="8" horiz-adv-x="1138" d="M143 408q0 287 240 401q-92 45 -147.5 121t-55.5 180q0 158 109 259t272 101q164 0 274.5 -100.5t110.5 -259.5q0 -97 -57.5 -175.5t-145.5 -117.5q116 -48 184 -155t68 -252q0 -194 -120.5 -311t-307.5 -117q-194 0 -309 115.5t-115 310.5zM328 410q0 -124 62.5 -212.5 t176.5 -88.5q118 0 184 86.5t66 214.5q0 131 -67.5 220t-184.5 111q-114 -28 -175.5 -114t-61.5 -217zM358 1110q0 -97 55 -166.5t152 -87.5q91 20 148 89.5t57 164.5q0 98 -58.5 164.5t-150.5 66.5q-88 0 -145.5 -66.5t-57.5 -164.5z" />
<glyph unicode="9" horiz-adv-x="1099" d="M143 756q0 134 47.5 245t139 178.5t209.5 67.5q97 0 170.5 -31.5t120 -84.5t75.5 -132t40 -164t11 -190q0 -92 -2.5 -165t-9.5 -153.5t-19.5 -143.5t-32.5 -126.5t-47.5 -110.5t-67 -89t-88.5 -68.5t-113 -41.5t-140 -15q-85 0 -198 24l41 142q99 -31 157 -31 q342 0 342 553q-37 -66 -107 -102.5t-159 -36.5q-169 0 -269 136.5t-100 338.5zM332 758q0 -91 18 -163.5t66 -123.5t121 -51q141 0 233 137v139q0 412 -231 412q-72 0 -120.5 -54t-67.5 -129.5t-19 -166.5z" />
<glyph unicode=":" horiz-adv-x="712" d="M205 98q0 63 44 108.5t107 45.5t107.5 -45.5t44.5 -108.5t-44.5 -107t-107.5 -44t-107 44t-44 107zM205 969q0 63 44 108t107 45t107.5 -45t44.5 -108t-44.5 -107.5t-107.5 -44.5t-107 44.5t-44 107.5z" />
<glyph unicode=";" horiz-adv-x="712" d="M205 117q0 59 39 101t98 42q80 0 130 -52.5t50 -137.5q0 -125 -62.5 -211t-178.5 -121l-72 141q92 41 92 70q0 36 -22 43q-35 14 -54.5 49.5t-19.5 75.5zM205 977q0 63 44 108t107 45t107.5 -45t44.5 -108t-44.5 -107.5t-107.5 -44.5t-107 44.5t-44 107.5z" />
<glyph unicode="&#x3c;" horiz-adv-x="989" d="M82 449v131l721 473l94 -125l-651 -414l661 -410l-84 -133z" />
<glyph unicode="=" horiz-adv-x="1361" d="M205 313v158h952v-158h-952zM205 635v158h952v-158h-952z" />
<glyph unicode="&#x3e;" horiz-adv-x="989" d="M82 104l661 410l-651 414l92 125l723 -473v-131l-741 -478z" />
<glyph unicode="?" horiz-adv-x="1071" d="M82 1282q52 133 158.5 207t246.5 74q194 0 317.5 -116t123.5 -304q0 -249 -326 -426v-316h-172v390q297 123 297 352q0 121 -66.5 197.5t-175.5 76.5q-85 0 -149 -53t-90 -137zM399 104q0 51 36 88t87 37t87 -37t36 -88t-36 -86.5t-87 -35.5t-87 35.5t-36 86.5z" />
<glyph unicode="@" horiz-adv-x="1863" d="M102 424q0 193 63.5 359.5t175 285t270.5 186.5t343 68q235 0 418 -91t286 -261t103 -393q0 -158 -65.5 -290.5t-188.5 -213t-280 -80.5q-73 0 -121.5 29.5t-67.5 82.5q-101 -116 -245 -116q-138 0 -221 94.5t-83 234.5q0 132 49 240t135 177.5t197.5 106t244 31 t267.5 -52.5l-174 -504q-14 -41 -21 -71t-6.5 -60.5t18 -46.5t52.5 -16q102 0 176.5 62t110 162.5t35.5 225.5q0 186 -81 326.5t-220.5 213.5t-315.5 73q-142 0 -265 -55t-211 -152t-138.5 -237t-50.5 -304q0 -310 162 -495t438 -185q165 0 311 52l55 -140 q-167 -51 -370 -51q-168 0 -313.5 59t-249 164t-163 255.5t-59.5 326.5zM676 338q0 -94 44.5 -153.5t133.5 -59.5q80 0 164 88l176 518q-75 19 -148.5 16.5t-140.5 -35t-117.5 -82t-81 -126t-30.5 -166.5z" />
<glyph unicode="A" d="M55 0l473 1460h263l417 -1460h-190l-109 403h-540l-119 -403h-195zM414 549h460l-196 774h-37z" />
<glyph unicode="B" horiz-adv-x="1161" d="M199 0v1460h352q219 0 349 -94.5t130 -263.5q0 -109 -61 -188t-162 -123q119 -44 188.5 -140t69.5 -227q0 -193 -133.5 -308.5t-351.5 -115.5h-381zM373 143h207q142 0 217 76t75 205q0 128 -86 210.5t-225 82.5h-188v-574zM373 852h190q129 0 204 64t75 171 q0 116 -78.5 175t-212.5 59h-178v-469z" />
<glyph unicode="C" horiz-adv-x="1181" d="M158 713q0 225 62 396.5t187 270.5t298 99q261 0 421 -203l-141 -102q-110 153 -289 153q-88 0 -154.5 -50t-105.5 -137t-58.5 -194.5t-19.5 -232.5q0 -97 12 -182.5t38.5 -161t66 -129.5t98.5 -85.5t132 -31.5q62 0 118 19.5t87.5 41t78.5 60.5l121 -121 q-71 -68 -175 -110t-230 -42q-114 0 -206 36.5t-155 102t-105 159t-61.5 204t-19.5 240.5z" />
<glyph unicode="D" horiz-adv-x="1296" d="M199 0v1460h276q174 0 309.5 -54.5t221.5 -153.5t130 -233t44 -296q0 -153 -47 -284.5t-135 -229t-222.5 -153.5t-300.5 -56h-276zM381 154h94q122 0 219.5 44t160 121.5t95.5 180.5t33 223q0 171 -56.5 302.5t-173 209.5t-278.5 78h-94v-1159z" />
<glyph unicode="E" horiz-adv-x="1081" d="M199 0v1462l766 -2l-31 -151h-559v-457h463l-25 -154h-438v-540h588l-23 -158h-741z" />
<glyph unicode="F" horiz-adv-x="1005" d="M199 0v1460h772l-25 -151h-565v-437h477l-16 -155h-461v-717h-182z" />
<glyph unicode="G" horiz-adv-x="1323" d="M158 743q0 217 62 382.5t187 261.5t298 96q270 0 450 -183l-123 -108q-143 143 -327 143q-91 0 -160 -47.5t-108.5 -131t-59 -187t-19.5 -226.5q0 -101 10.5 -188.5t36 -168t63.5 -137.5t97.5 -90.5t134.5 -33.5q152 0 258 33v538h-278l25 144h425v-752 q-80 -51 -193.5 -81t-236.5 -30q-114 0 -205 38.5t-153.5 106.5t-104 165t-60.5 210.5t-19 245.5z" />
<glyph unicode="H" horiz-adv-x="1404" d="M199 0v1462h182v-618h647v618h178v-1462h-178v696h-649v-696h-180z" />
<glyph unicode="I" horiz-adv-x="575" d="M199 0v1460h178v-1460h-178z" />
<glyph unicode="J" horiz-adv-x="661" d="M-68 53l107 135q60 -57 123 -57q33 0 56 13.5t36 34t20 54.5t9 64t2 74v1089h178v-1114q0 -174 -79.5 -271.5t-242.5 -97.5q-60 0 -117 20.5t-92 55.5z" />
<glyph unicode="K" horiz-adv-x="1226" d="M199 0v1460h182v-618h147l447 633l151 -95l-452 -608l518 -772h-225l-432 682h-152v-682h-184z" />
<glyph unicode="L" horiz-adv-x="966" d="M199 0v1460h176v-1308h557l-14 -152h-719z" />
<glyph unicode="M" horiz-adv-x="1736" d="M96 0l193 1434l172 43l407 -1260l351 1229l176 27l245 -1473h-192l-162 1126l-344 -1126h-154l-376 1133l-125 -1133h-191z" />
<glyph unicode="N" horiz-adv-x="1404" d="M199 0v1411l211 78l473 -971q30 -61 79 -180t78 -180v37q0 71 -2 187q-4 150 -4 212v866h172v-1460h-256l-454 944q-38 79 -76.5 180t-54.5 138q-1 -31 -1 -73q0 -65 2 -155q4 -150 5 -215v-819h-172z" />
<glyph unicode="O" horiz-adv-x="1419" d="M158 731q0 164 34 300t100.5 238t173.5 159t245 57q112 0 204 -38.5t156 -107t107.5 -163.5t63.5 -206t20 -237q0 -160 -33.5 -295.5t-100 -239.5t-173 -162.5t-244.5 -58.5q-140 0 -246.5 54t-173 154.5t-100 237t-33.5 308.5zM358 731q0 -134 20 -244t61 -195t110 -132 t162 -47q94 0 163 48.5t109 135.5t59 195t19 239q0 126 -21.5 235.5t-63.5 195.5t-110.5 136t-154.5 50q-73 0 -132.5 -33t-100 -89.5t-68 -135.5t-40 -168.5t-12.5 -190.5z" />
<glyph unicode="P" horiz-adv-x="1146" d="M199 0v1460h325q237 0 371.5 -114.5t134.5 -313.5q0 -190 -148 -306t-378 -116h-129v-610h-176zM375 752h129q150 0 241 74t91 206q0 136 -81 212.5t-231 76.5h-149v-569z" />
<glyph unicode="Q" horiz-adv-x="1409" d="M158 731q0 157 34.5 292t101 239t174.5 163.5t245 59.5q139 0 246.5 -61.5t172.5 -167.5t97.5 -238.5t32.5 -284.5q0 -201 -62 -365.5t-166 -254.5l299 10v-146l-620 -2h-5q-140 0 -246 57q-108 57 -173.5 161t-98 239t-32.5 299zM358 731q0 -129 19 -236t59 -194.5 t110.5 -136.5t166.5 -49q88 0 156 49.5t109 135.5t62 195t21 236t-20 235.5t-60.5 195.5t-109 136.5t-158.5 49.5q-93 0 -163 -49.5t-111 -136.5t-61 -195.5t-20 -235.5z" />
<glyph unicode="R" horiz-adv-x="1228" d="M199 0v1462h342q232 0 369 -97t137 -282q0 -122 -81.5 -210t-191.5 -115q114 -40 173 -137t59 -228v-131q0 -137 81 -137q50 0 103 29l63 -125q-69 -49 -176 -49q-252 0 -252 270v143q0 135 -86.5 218t-222.5 83h-135v-694h-182zM381 844h162q139 0 225 62t86 175 q0 116 -87 176t-226 60h-160v-473z" />
<glyph unicode="S" horiz-adv-x="1191" d="M137 145l111 144q44 -37 73 -58.5t77 -50.5t100 -43t108 -14q100 0 166 61.5t66 157.5q0 31 -8 60.5t-18 51t-33 46.5t-38 39.5t-49.5 37.5t-50.5 33t-58.5 34.5t-56.5 33.5q-49 29 -80 50t-73 53.5t-68.5 64t-52 72t-37.5 89t-12 103.5q0 114 60.5 201t153 129.5 t197.5 42.5q239 0 441 -158l-105 -133q-171 135 -323 135q-99 0 -165.5 -53.5t-66.5 -151.5q0 -22 4.5 -42.5t9.5 -37t19 -35.5t21 -30t28.5 -29.5t29.5 -26t35.5 -26t34 -23t38.5 -24.5t36 -23q17 -11 56.5 -35t57.5 -35.5t52.5 -34.5t51 -37.5t43.5 -39t40.5 -44 t31.5 -47.5t26 -55t14 -61t6 -71q0 -175 -123 -284.5t-311 -109.5q-145 0 -252 46.5t-207 127.5z" />
<glyph unicode="T" horiz-adv-x="1036" d="M35 1303v157h987l-14 -157h-396v-1303h-184v1303h-393z" />
<glyph unicode="U" horiz-adv-x="1320" d="M199 395v1065h182v-1042q0 -136 74 -211.5t202 -75.5q132 0 208.5 74.5t76.5 208.5v1046h180v-1038q0 -205 -126 -323.5t-339 -118.5q-210 0 -334 109t-124 306z" />
<glyph unicode="V" horiz-adv-x="1222" d="M55 1440l199 35l360 -1340l355 1340l198 -37l-436 -1438h-239z" />
<glyph unicode="W" horiz-adv-x="1935" d="M76 1436l196 39l306 -1338l313 1323h170l303 -1323l303 1338l193 -52l-385 -1423h-240l-258 1157l-279 -1157h-239z" />
<glyph unicode="X" horiz-adv-x="1234" d="M76 0l438 745l-436 678l211 58l325 -580l328 580l195 -62l-428 -676l450 -743h-237l-308 594l-309 -594h-229z" />
<glyph unicode="Y" horiz-adv-x="1130" d="M55 1430l183 55l350 -733l307 733l180 -53l-401 -826v-606h-176v606z" />
<glyph unicode="Z" horiz-adv-x="1128" d="M117 0q0 143 24 256.5t75.5 208t115 168.5t160.5 162q63 57 104.5 98t84.5 92.5t67 97t39.5 101.5t15.5 116h-664v160h852q0 -143 -17.5 -244.5t-63.5 -189.5t-106 -157.5t-165 -166.5q-61 -56 -100.5 -96.5t-87 -97.5t-75 -106.5t-46.5 -112t-19 -125.5h701v-164h-895z " />
<glyph unicode="[" horiz-adv-x="612" d="M147 -406v1903h383v-139h-219v-1624h219v-140h-383z" />
<glyph unicode="\" horiz-adv-x="681" d="M-37 1497h150l606 -1532h-150z" />
<glyph unicode="]" horiz-adv-x="612" d="M82 -266h219v1624h-219v139h383v-1903h-383v140z" />
<glyph unicode="^" horiz-adv-x="1228" d="M158 754l385 649h131l391 -639l-133 -82l-324 565l-307 -565z" />
<glyph unicode="_" horiz-adv-x="1024" d="M-4 -119h1032v-139h-1032v139z" />
<glyph unicode="`" horiz-adv-x="851" d="M184 1460l90 172l394 -303l-62 -121z" />
<glyph unicode="a" horiz-adv-x="1064" d="M137 256q0 81 35 146t89 106t131.5 71.5t148.5 45.5t153 24q2 24 2 46q0 51 -8 93q-12 60 -50.5 102t-100.5 42q-68 0 -125 -21t-125 -61l-66 131q159 90 316 90q151 0 240 -92.5t89 -247.5v-463q0 -33 2.5 -56t10 -46t24.5 -35t43 -12q42 0 92 28l52 -118 q-30 -20 -82.5 -32.5t-98.5 -12.5q-146 0 -196 143q-90 -152 -279 -152q-127 0 -212 76.5t-85 204.5zM328 274q0 -73 38 -117t101 -44q69 0 127 37t98 100v276q-71 -6 -130.5 -20.5t-115 -42t-87 -76t-31.5 -113.5z" />
<glyph unicode="b" horiz-adv-x="1114" d="M188 369v1171h168v-596q35 55 97 91t139 36q97 0 168.5 -42t113.5 -117.5t62 -170.5t20 -211q0 -89 -15.5 -168t-49 -149t-83 -120.5t-122 -79.5t-160.5 -29q-162 0 -250 104t-88 281zM360 369q0 -118 47.5 -184t141.5 -66q215 0 215 411q0 406 -191 406q-70 0 -128 -47 t-85 -111v-409z" />
<glyph unicode="c" horiz-adv-x="944" d="M158 524q0 254 99.5 401.5t285.5 147.5q100 0 181 -40.5t124 -112.5l-131 -76q-26 43 -71 67.5t-103 24.5q-55 0 -95 -34.5t-61.5 -95t-31 -130t-9.5 -152.5q0 -407 197 -407q112 0 196 94l105 -105q-120 -124 -301 -124q-98 0 -172 39.5t-120.5 112t-69.5 170.5t-23 220 z" />
<glyph unicode="d" horiz-adv-x="1124" d="M158 520q0 149 41.5 271.5t130 200t209.5 77.5q119 0 215 -96v569h172v-1274q0 -72 16.5 -110.5t65.5 -38.5q40 0 90 28l51 -118q-70 -45 -180 -45q-147 0 -197 141q-91 -148 -242 -148q-97 0 -170 42t-116.5 117t-64.5 171.5t-21 212.5zM346 522q0 -83 10 -152 t32.5 -128.5t64 -93t98.5 -33.5q66 0 123 55t80 109v520q-26 57 -79.5 94t-123.5 37q-57 0 -98.5 -34t-64 -93.5t-32.5 -128.5t-10 -152z" />
<glyph unicode="e" horiz-adv-x="1060" d="M158 543q0 235 107.5 382.5t297.5 147.5q156 0 258.5 -88t102.5 -229q0 -54 -18.5 -98.5t-49 -76t-77 -56t-94 -39.5t-108.5 -26t-112.5 -16t-114.5 -8q2 -63 15.5 -118t37.5 -100t65 -71t93 -26q130 0 273 86l77 -133q-147 -88 -348 -88q-104 0 -183 42.5t-127 119 t-71.5 176t-23.5 219.5zM348 559q172 18 237 38q154 45 154 159q0 80 -49 132t-127 52q-58 0 -100.5 -32t-66 -88.5t-35 -120t-13.5 -140.5z" />
<glyph unicode="f" horiz-adv-x="604" d="M55 930v129h144v63q0 187 93.5 307.5t248.5 120.5q114 0 227 -45l-55 -135q-105 43 -174 43q-51 0 -85 -25t-51 -72t-23.5 -97t-6.5 -115v-45h270v-129h-272v-930h-172v930h-144z" />
<glyph unicode="g" horiz-adv-x="993" d="M117 -199q0 59 30 97h170q-16 -46 -16 -88q0 -66 60.5 -96.5t146.5 -30.5q89 0 151 38t62 107q0 76 -49.5 116t-136.5 60l-99 23q-55 13 -93.5 27t-74 34.5t-53.5 50.5t-18 68q0 43 19 78t41.5 54t60.5 46q8 5 12 8q-183 99 -183 324q0 161 104 259.5t257 98.5 q138 0 229 -71l285 73v-157h-211q53 -77 53 -203q0 -156 -99 -259.5t-257 -103.5q-46 0 -64 4q-23 -18 -35.5 -29t-25 -31t-12.5 -40q0 -13 5.5 -24t19.5 -20t24.5 -15t34 -13t35 -10t39.5 -10q11 -3 16 -4l94 -25q123 -32 192.5 -107.5t69.5 -195.5q0 -71 -35 -126 t-94.5 -87.5t-132.5 -48.5t-156 -16q-78 0 -142 13.5t-115.5 41.5t-80 76.5t-28.5 113.5zM326 717q0 -106 46 -177t136 -71q48 0 83.5 20t55 56t28.5 78.5t9 93.5q0 111 -44 180.5t-132 69.5t-135 -70t-47 -180z" />
<glyph unicode="h" horiz-adv-x="1163" d="M199 0v1542h172v-655q117 188 284 188q142 0 226 -84t84 -229v-494q0 -46 4.5 -75t23 -51.5t51.5 -22.5q42 0 93 28l51 -118q-73 -45 -180 -45t-162 76t-55 206v490q0 90 -42.5 136t-109.5 46q-135 0 -268 -186v-752h-172z" />
<glyph unicode="i" horiz-adv-x="606" d="M-4 930v117l377 24v-1071h-176v930h-201zM150 1460q0 54 37.5 91.5t91.5 37.5t91.5 -37.5t37.5 -91.5t-37.5 -91.5t-91.5 -37.5t-91.5 37.5t-37.5 91.5z" />
<glyph unicode="j" horiz-adv-x="608" d="M-104 -414l41 138q47 -15 96 -15q53 0 87.5 26.5t51 77t22 101.5t5.5 123v893h-201v117l377 24v-1034q0 -99 -17.5 -179.5t-55.5 -146.5t-105.5 -102.5t-161.5 -36.5q-87 0 -139 14zM152 1460q0 54 37.5 91.5t91.5 37.5t91.5 -37.5t37.5 -91.5t-37.5 -91.5t-91.5 -37.5 t-91.5 37.5t-37.5 91.5z" />
<glyph unicode="k" horiz-adv-x="1058" d="M199 0v1542h170v-885h127l381 451l122 -107l-364 -411l389 -590h-219l-309 518h-125v-518h-172z" />
<glyph unicode="l" horiz-adv-x="600" d="M199 264v1278h172v-1237q0 -55 5.5 -91t25.5 -62.5t55 -26.5q57 0 147 68l82 -115q-44 -43 -111 -67.5t-139 -24.5q-117 0 -177 73.5t-60 204.5z" />
<glyph unicode="m" horiz-adv-x="1667" d="M199 0v1057l139 16l31 -180q44 81 114.5 131.5t157.5 50.5q93 0 161 -50t97 -132q108 182 275 182q141 0 217.5 -87t76.5 -249v-471q0 -32 3 -56t10.5 -46.5t24.5 -34.5t42 -12q41 0 92 28l52 -118q-70 -45 -181 -45q-103 0 -160 75.5t-57 208.5v449q0 96 -33 157.5 t-106 61.5q-135 0 -237 -184v-752h-170v717q0 98 -36 158.5t-110 60.5q-128 0 -233 -186v-750h-170z" />
<glyph unicode="n" horiz-adv-x="1157" d="M199 0v1051l149 22l25 -182q106 184 276 184q138 0 223.5 -83.5t85.5 -229.5v-494q0 -70 16.5 -109.5t63.5 -39.5q38 0 92 28l52 -118q-70 -45 -181 -45q-104 0 -160.5 73.5t-56.5 208.5v488q0 85 -39.5 134.5t-111.5 49.5q-74 0 -141.5 -51.5t-118.5 -134.5v-752h-174z " />
<glyph unicode="o" horiz-adv-x="1134" d="M158 530q0 111 27.5 209t79 173t131 119t177.5 44q128 0 221 -73.5t138 -195t45 -276.5q0 -148 -43 -269t-136.5 -199t-224.5 -78q-106 0 -186.5 40t-130 113.5t-74 172t-24.5 220.5zM346 530q0 -67 5 -121.5t19.5 -110.5t39 -93.5t66 -61.5t97.5 -24q62 0 106.5 36 t67 98.5t32 130t9.5 146.5q0 82 -10 150.5t-33 129.5t-67 95.5t-105 34.5q-63 0 -109 -34.5t-71 -95t-36 -130t-11 -150.5z" />
<glyph unicode="p" horiz-adv-x="1124" d="M199 -449v1508h172v-78q92 92 217 92q95 0 169 -40.5t119 -112t68 -163t23 -198.5q0 -119 -24 -220.5t-72 -182t-128 -126.5t-184 -46q-122 0 -190 71v-467zM369 199q35 -35 89 -57.5t111 -22.5q58 0 100 36t64.5 99.5t32.5 135.5t10 157q0 79 -11.5 146t-35.5 123.5 t-68 89t-104 32.5q-54 0 -104 -26t-84 -70v-643z" />
<glyph unicode="q" horiz-adv-x="1138" d="M158 508q0 110 24.5 210.5t71 181t121 128t166.5 47.5q74 0 133.5 -29t93.5 -81v94h172v-1487h-172v512q-95 -98 -246 -98q-93 0 -164.5 43t-114 116.5t-64 165.5t-21.5 197zM350 524q0 -65 4 -118t17 -108.5t34.5 -93t58 -61.5t85.5 -24q68 0 125.5 34t95.5 89v553 q-33 62 -90.5 102.5t-126.5 40.5t-116.5 -62.5t-67 -152.5t-19.5 -199z" />
<glyph unicode="r" horiz-adv-x="784" d="M199 0v1065l133 14l35 -200q51 87 117.5 141.5t144.5 54.5q62 0 121 -16l-66 -168q-40 10 -55 10q-153 0 -260 -176v-725h-170z" />
<glyph unicode="s" horiz-adv-x="997" d="M137 98l80 125q133 -102 281 -102q174 0 174 149q0 35 -15.5 63.5t-44 49.5t-61 38t-73.5 35q-11 5 -17 7q-37 17 -57 26t-56 29t-56.5 36.5t-47.5 43.5t-41 54.5t-24.5 65t-10.5 79.5q0 68 31 122.5t81 87.5t109 50.5t119 17.5q160 0 328 -96l-68 -119q-145 80 -248 80 q-73 0 -118.5 -37.5t-45.5 -107.5q0 -22 6.5 -41.5t21.5 -36t28 -28.5t38.5 -26.5t40 -21.5t45.5 -21.5t42 -19.5q32 -15 45 -21.5t43 -22.5t44 -25.5t39 -27.5t37.5 -33t29 -37t24.5 -43.5t14 -49t6 -57.5q0 -75 -33 -134t-87.5 -94.5t-120.5 -54t-136 -18.5 q-200 0 -346 116z" />
<glyph unicode="t" horiz-adv-x="684" d="M76 930v129h157l62 344h108v-344h275v-129h-272v-625q0 -41 2.5 -69.5t11 -55.5t25.5 -41t44 -14q58 0 148 68l82 -115q-44 -43 -111 -67.5t-139 -24.5q-117 0 -177.5 73.5t-60.5 204.5v666h-155z" />
<glyph unicode="u" horiz-adv-x="1138" d="M199 303v756h174v-756q0 -89 43 -134.5t112 -45.5q73 0 140.5 52t97.5 114v770h174v-791q0 -71 16.5 -110t63.5 -39q42 0 92 28l51 -118q-68 -45 -180 -45q-150 0 -199 149q-39 -57 -110 -104t-166 -47q-146 0 -227.5 85.5t-81.5 235.5z" />
<glyph unicode="v" horiz-adv-x="997" d="M55 1038l181 35l274 -942l256 940l176 -39l-334 -1032h-202z" />
<glyph unicode="w" horiz-adv-x="1624" d="M76 1044l192 31l209 -936l258 920h164l260 -918l201 932l188 -33l-286 -1040h-207l-234 860l-248 -860h-202z" />
<glyph unicode="x" horiz-adv-x="1011" d="M55 0l355 543l-330 485l194 47l234 -403l246 405l180 -51l-336 -485l358 -541h-229l-229 416l-238 -416h-205z" />
<glyph unicode="y" horiz-adv-x="1159" d="M188 -393l74 155q113 -59 219 -59q150 0 228.5 111.5t78.5 296.5q-96 -127 -272 -127q-145 0 -222 97t-77 255v723h176v-686q0 -252 154 -252q146 0 237 123v815h177v-912q0 -270 -126.5 -429.5t-355.5 -159.5q-176 0 -291 49z" />
<glyph unicode="z" horiz-adv-x="880" d="M96 0q0 57 3.5 105t14 90.5t20 75t31 68t38.5 60t50 61t57 60.5t69 68q23 22 67 61t67 61.5t50 56t39 69t12 75.5h-495v148h655q0 -139 -18.5 -220t-68.5 -154t-161 -179q-23 -23 -72.5 -66.5t-75.5 -69.5t-57.5 -65t-46 -78t-14.5 -82h524v-145h-688z" />
<glyph unicode="{" horiz-adv-x="681" d="M98 475v139q67 0 118.5 69t51.5 173v373q0 122 68.5 195t152.5 73h144v-123h-103q-98 0 -98 -176v-375q0 -67 -20.5 -121.5t-51.5 -84.5t-57.5 -46t-48.5 -22v-6q17 -2 37 -10.5t46 -29t46.5 -49.5t34.5 -78t14 -108v-374q0 -177 98 -177h103v-123h-144 q-84 0 -152.5 73.5t-68.5 195.5v373q0 108 -51 173.5t-119 65.5z" />
<glyph unicode="|" horiz-adv-x="454" d="M158 -35v1532h161v-1532h-161z" />
<glyph unicode="}" horiz-adv-x="681" d="M49 -283h103q98 0 98 177v374q0 67 20.5 121.5t51.5 85t57.5 46.5t48.5 22v6q-22 3 -48.5 17t-57.5 43t-51.5 85t-20.5 129v371q0 180 -98 180h-103v123h144q84 0 152.5 -73t68.5 -195v-373q0 -108 51 -175t119 -67v-139q-67 0 -118.5 -67.5t-51.5 -171.5v-373 q0 -122 -68.5 -195.5t-152.5 -73.5h-144v123z" />
<glyph unicode="~" horiz-adv-x="1228" d="M121 741q47 80 112 128.5t164 48.5q57 0 122 -21t113.5 -46t104.5 -46t97 -21q20 0 38 6t29 12t27 23t21 23t21.5 30t18.5 27l121 -84q-33 -41 -55.5 -65.5t-58 -53t-76.5 -42t-89 -13.5q-57 0 -118 21t-105.5 45.5t-105 45.5t-115.5 21q-86 0 -141 -104z" />
<glyph unicode="&#xa1;" horiz-adv-x="481" d="M123 997q0 51 36 87t87 36t88 -36t37 -87t-37 -88t-88 -37t-87 37t-36 88zM174 -440v1134l145 -32l60 -1102h-205z" />
<glyph unicode="&#xa2;" horiz-adv-x="1046" d="M158 524q0 224 96 371.5t264 173.5v209h123v-207q177 -18 268 -151l-131 -76q-56 70 -137 86v-807q96 17 160 88l104 -105q-102 -105 -264 -122v-234l-123 -16v252q-171 24 -265.5 167.5t-94.5 370.5zM346 524q0 -149 42.5 -257.5t129.5 -139.5v799q-88 -30 -130 -140 t-42 -262z" />
<glyph unicode="&#xa3;" horiz-adv-x="1103" d="M96 676v129h117q-18 133 -18 225q0 215 108 340t299 125q119 0 213.5 -54.5t151.5 -135.5l-131 -99q-42 61 -103 106.5t-131 45.5q-114 0 -173.5 -90t-59.5 -238q0 -85 16 -225h313v-129h-295q16 -103 22.5 -164t2.5 -161.5t-27 -203.5h545l-39 -147h-780v119l109 24 q23 87 26 186t-5 168.5t-26 178.5h-135z" />
<glyph unicode="&#xa4;" horiz-adv-x="1294" d="M55 541v129h160v43q0 36 4 106h-164v129h181q44 246 179.5 388.5t346.5 142.5q256 0 436 -189l-65 -174q-44 48 -76 77.5t-80.5 64.5t-104 52t-118.5 17q-87 0 -153.5 -50.5t-105.5 -133t-59 -195.5h633l-47 -129h-602q-4 -70 -4 -106v-43h551l-49 -129h-492 q16 -124 55 -215t111 -147t170 -56q187 0 366 158l-14 -199q-147 -111 -352 -111q-123 0 -219.5 41.5t-161 118t-103 179t-53.5 231.5h-170z" />
<glyph unicode="&#xa5;" horiz-adv-x="1183" d="M96 1413l166 90l350 -735q0 1 3.5 5.5t11 22.5t38.5 91t92.5 219t166.5 397l163 -84l-296 -626h206v-142h-274l-23 -47v-110h297v-142h-297v-352h-165v352h-322v142h322v110l-27 47h-295v142h219z" />
<glyph unicode="&#xa6;" horiz-adv-x="454" d="M158 -35v600h161v-600h-161zM158 897v600h161v-600h-161z" />
<glyph unicode="&#xa7;" horiz-adv-x="1212" d="M158 -268l110 143q74 -65 145 -102t158 -37q100 0 163 60t63 155q0 52 -31 97t-80 80t-108.5 69t-119.5 73.5t-109 85t-80 112t-31 146.5q0 98 47 171t129 116q-111 106 -111 252q0 82 33 149.5t87.5 110t121.5 65.5t139 23q189 0 369 -121l-105 -133q-141 99 -252 99 q-84 0 -142 -48t-58 -133q0 -54 31 -101.5t80 -84t109 -72t119.5 -74.5t108.5 -83.5t80 -107t31 -136.5q0 -193 -185 -285q119 -104 119 -258q0 -164 -121.5 -272.5t-298.5 -108.5q-128 0 -224.5 38.5t-186.5 111.5zM430 627q0 -33 8 -62t27.5 -54.5t37 -44.5t51.5 -42 t55 -36t63.5 -37t62.5 -36q59 21 93 67.5t34 111.5q0 31 -8.5 58t-28 51.5t-38 43t-52 41.5t-56 36.5t-65 37.5t-63.5 37q-56 -20 -88.5 -63.5t-32.5 -108.5z" />
<glyph unicode="&#xa8;" horiz-adv-x="1136" d="M233 1460q0 54 37.5 91.5t91.5 37.5t92 -37.5t38 -91.5t-38 -91.5t-92 -37.5t-91.5 37.5t-37.5 91.5zM662 1460q0 54 37.5 91.5t91.5 37.5t91.5 -37.5t37.5 -91.5t-37.5 -91.5t-91.5 -37.5t-91.5 37.5t-37.5 91.5z" />
<glyph unicode="&#xa9;" horiz-adv-x="1732" d="M49 735q0 211 105 387t282 275.5t385 99.5q207 0 383 -99.5t280.5 -275.5t104.5 -387q0 -162 -61.5 -305.5t-165.5 -245t-245 -160.5t-296 -59q-156 0 -297.5 59t-246 160.5t-166.5 245t-62 305.5zM188 735q0 -185 83 -335.5t228 -236t322 -85.5q175 0 319 85.5 t227 236.5t83 335q0 180 -83 329t-227.5 234.5t-318.5 85.5q-176 0 -321.5 -85.5t-228.5 -234.5t-83 -329zM485 713q0 212 93 344.5t260 132.5q169 0 278 -135l-104 -76q-70 98 -178 98q-99 0 -150 -102.5t-51 -261.5q0 -155 51 -253t154 -98q38 0 71.5 12t53.5 25.5 t53 40.5l90 -88q-109 -102 -268 -102q-92 0 -161 35.5t-110.5 99t-61.5 146t-20 182.5z" />
<glyph unicode="&#xaa;" horiz-adv-x="694" d="M43 954q0 62 31.5 108.5t85.5 73.5t108 41t117 21q3 68 -18 109t-68 41q-41 0 -75.5 -13.5t-82.5 -42.5l-49 99q107 57 207 57q96 0 153.5 -58.5t57.5 -154.5v-272q0 -18 1 -29.5t4.5 -24.5t12.5 -19.5t23 -6.5q23 0 59 20l41 -88q-47 -31 -125 -31q-83 0 -120 72 q-58 -78 -168 -78q-82 0 -138.5 47.5t-56.5 128.5zM57 627v100h496v-100h-496zM182 967q0 -40 20 -64t54 -24q75 0 129 75v152q-203 -20 -203 -139z" />
<glyph unicode="&#xab;" horiz-adv-x="1112" d="M82 504v133l360 354l119 -117l-311 -305l313 -299l-117 -120zM549 504v133l360 354l119 -117l-311 -305l313 -299l-117 -120z" />
<glyph unicode="&#xac;" horiz-adv-x="1116" d="M82 637v158h952v-574h-145v416h-807z" />
<glyph unicode="&#xad;" horiz-adv-x="1001" d="M205 508v158h592v-158h-592z" />
<glyph unicode="&#xae;" horiz-adv-x="1826" d="M143 735q0 211 105 387t282 275.5t385 99.5q207 0 383 -99.5t280.5 -275.5t104.5 -387q0 -162 -61.5 -305.5t-165.5 -245t-245 -160.5t-296 -59q-156 0 -297.5 59t-246 160.5t-166.5 245t-62 305.5zM283 735q0 -185 83 -335.5t227.5 -236t321.5 -85.5q175 0 319 85.5 t227 236.5t83 335q0 181 -83 330t-227.5 234t-318.5 85q-176 0 -321 -85t-228 -234t-83 -330zM664 285v895h219q144 0 231.5 -60t87.5 -176q0 -69 -42.5 -120.5t-104.5 -75.5q60 -30 91.5 -87t31.5 -131v-77q0 -72 41 -72q26 0 65 20l47 -92q-52 -37 -121 -37 q-163 0 -163 172v86q0 77 -50 123.5t-129 46.5h-73v-415h-131zM795 811h90q81 0 130.5 35.5t49.5 97.5q0 64 -49.5 96.5t-132.5 32.5h-88v-262z" />
<glyph unicode="&#xaf;" horiz-adv-x="862" d="M82 1270v112h698v-112h-698z" />
<glyph unicode="&#xb0;" horiz-adv-x="819" d="M115 1157q0 123 86 209t209 86t209 -86t86 -209t-86 -209t-209 -86t-209 86t-86 209zM217 1157q0 -76 53 -134t140 -58t139.5 57.5t52.5 134.5t-52.5 135t-139.5 58t-140 -58t-53 -135z" />
<glyph unicode="&#xb1;" horiz-adv-x="1116" d="M82 0v158h952v-158h-952zM82 543v157h391v316h170v-316h391v-157h-391v-338h-170v338h-391z" />
<glyph unicode="&#xb2;" horiz-adv-x="673" d="M82 1300q37 72 102.5 112t143.5 40q118 0 191 -60.5t73 -164.5q0 -43 -14.5 -80.5t-43 -70.5t-56 -56.5t-68.5 -52.5l-64 -45q-64 -44 -89.5 -101.5t-27.5 -144.5h349l-13 -107h-473q0 165 38 268t138 173q11 8 51 36t60 44q40 30 58 60t18 77q0 56 -35.5 90.5 t-91.5 34.5q-76 0 -127 -101z" />
<glyph unicode="&#xb3;" horiz-adv-x="702" d="M82 1303q34 72 96 111.5t139 39.5q116 0 186 -63t70 -164q0 -113 -98 -170q58 -30 91.5 -91.5t33.5 -134.5q0 -113 -74 -190.5t-194 -77.5q-81 0 -149 40t-99 114l123 47q18 -45 50.5 -70.5t74.5 -25.5q63 0 98 46t35 117q0 73 -36.5 121.5t-100.5 48.5h-56v99h54 q52 0 81 36t29 93q0 56 -32.5 90.5t-86.5 34.5q-73 0 -114 -101z" />
<glyph unicode="&#xb4;" horiz-adv-x="880" d="M199 1329l395 303l88 -172l-422 -252z" />
<glyph unicode="&#xb5;" horiz-adv-x="1179" d="M199 1059h174v-701q0 -106 48 -170.5t132 -64.5q141 0 213 166v770h174v-791q0 -71 16.5 -110t63.5 -39q42 0 92 28l51 -118q-68 -45 -180 -45q-150 0 -199 149q-61 -151 -233 -151q-123 0 -178 92v-502h-172z" />
<glyph unicode="&#xb6;" horiz-adv-x="1228" d="M76 1040q0 136 66 231t176.5 139t256.5 44q320 0 490 109l90 -111q-44 -38 -162 -84v-1368h-153v1335q-56 -17 -129 -20v-1315h-168v659q-221 0 -344 104t-123 277z" />
<glyph unicode="&#xb7;" horiz-adv-x="569" d="M154 637q0 54 39 92.5t92 38.5t92 -39t39 -92q0 -50 -39.5 -90.5t-89.5 -40.5q-54 0 -93.5 39t-39.5 92z" />
<glyph unicode="&#xb8;" horiz-adv-x="606" d="M82 -391l51 98q6 -2 29 -11t34 -12.5t30.5 -7.5t35.5 -4q109 0 109 64q0 27 -28.5 45t-68.5 18q-51 0 -81.5 26.5t-30.5 70.5q0 26 12.5 47t26 31.5t37.5 25.5h110q-63 -43 -63 -78q0 -8 3 -12.5t11.5 -6t14 -2t19 0t19.5 0.5q74 0 123 -45t49 -121q0 -83 -76 -125.5 t-186 -42.5q-63 0 -180 41z" />
<glyph unicode="&#xb9;" horiz-adv-x="473" d="M20 1231q84 17 141.5 75.5t76.5 145.5h112v-872h-125l2 651q-52 -92 -166 -117z" />
<glyph unicode="&#xba;" horiz-adv-x="694" d="M86 1114q0 140 70.5 238t193.5 98t190.5 -95.5t67.5 -240.5q0 -89 -27 -163.5t-87 -123.5t-144 -49q-132 0 -198 91.5t-66 244.5zM127 627v100h440v-100h-440zM221 1114q0 -235 129 -235q45 0 73 35.5t38 85t10 114.5q0 105 -28.5 170.5t-92.5 65.5q-67 0 -98 -66.5 t-31 -169.5z" />
<glyph unicode="&#xbb;" horiz-adv-x="1112" d="M82 270l315 299l-313 305l119 117l360 -354v-133l-362 -354zM549 270l315 299l-313 305l119 117l360 -354v-133l-362 -354z" />
<glyph unicode="&#xbc;" horiz-adv-x="1628" d="M41 1231q84 17 141 75.5t76 145.5h113v-872h-125l2 651q-52 -92 -166 -117zM356 -35l607 1532h149l-606 -1532h-150zM934 199v96l276 602l131 -53l-274 -539h221v191l123 30v-221h135l-24 -106h-111v-199h-123v199h-354z" />
<glyph unicode="&#xbd;" horiz-adv-x="1595" d="M41 1231q84 17 141 75.5t76 145.5h113v-872h-125l2 651q-52 -92 -166 -117zM356 -35l607 1532h149l-606 -1532h-150zM983 733q36 71 101.5 110.5t144.5 39.5q117 0 190.5 -61t73.5 -165q0 -143 -180 -260l-66 -43q-64 -42 -88 -100t-26 -148h346l-13 -106h-471 q0 165 38 267t138 173q11 8 51 36t60 44q39 30 56.5 60t17.5 77q0 57 -34.5 91t-90.5 34q-76 0 -127 -100z" />
<glyph unicode="&#xbe;" horiz-adv-x="1652" d="M82 1303q34 72 96 111.5t139 39.5q116 0 186 -63t70 -164q0 -113 -98 -170q58 -30 91.5 -91.5t33.5 -134.5q0 -113 -74 -190.5t-194 -77.5q-81 0 -149 40t-99 114l123 47q18 -45 50.5 -70.5t74.5 -25.5q63 0 98 46t35 117q0 73 -36.5 121.5t-100.5 48.5h-56v99h54 q52 0 81 36t29 93q0 56 -32.5 90.5t-86.5 34.5q-73 0 -114 -101zM449 -35l606 1532h149l-606 -1532h-149zM958 199v96l277 602l131 -53l-274 -539h219v191l125 30v-221h135l-25 -106h-110v-199h-125v199h-353z" />
<glyph unicode="&#xbf;" horiz-adv-x="1071" d="M143 -10q0 249 326 426v315h172v-389q-297 -123 -297 -352q0 -121 66.5 -198t175.5 -77q85 0 149 53.5t90 137.5l164 -56q-52 -133 -158.5 -206.5t-246.5 -73.5q-194 0 -317.5 116t-123.5 304zM426 1028q0 51 36 87t87 36t87 -36t36 -87t-36 -88t-87 -37t-87 37t-36 88z " />
<glyph unicode="&#xc0;" d="M55 0l473 1460h263l417 -1460h-190l-109 403h-540l-119 -403h-195zM414 549h460l-196 774h-37zM469 1788l88 174l393 -305l-59 -121z" />
<glyph unicode="&#xc1;" d="M55 0l473 1460h263l417 -1460h-190l-109 403h-540l-119 -403h-195zM371 1681l395 306l88 -172l-422 -254zM414 549h460l-196 774h-37z" />
<glyph unicode="&#xc2;" d="M55 0l473 1460h263l417 -1460h-190l-109 403h-540l-119 -403h-195zM254 1667l395 272l391 -272l-61 -131l-332 219l-332 -219zM414 549h460l-196 774h-37z" />
<glyph unicode="&#xc3;" d="M55 0l473 1460h263l417 -1460h-190l-109 403h-540l-119 -403h-195zM299 1753q26 57 78 88t119 31q60 0 141 -35t121 -35q49 0 81 24t60 66l107 -120q-99 -121 -248 -121q-44 0 -129 33.5t-133 33.5q-21 0 -41 -14t-31 -28t-29 -41l-6 -9zM414 549h460l-196 774h-37z" />
<glyph unicode="&#xc4;" d="M55 0l473 1460h263l417 -1460h-190l-109 403h-540l-119 -403h-195zM293 1792q0 54 37.5 91.5t91.5 37.5t91.5 -37.5t37.5 -91.5t-37.5 -91.5t-91.5 -37.5t-91.5 37.5t-37.5 91.5zM414 549h460l-196 774h-37zM760 1788q0 54 37.5 91.5t91.5 37.5t91.5 -37.5t37.5 -91.5 t-37.5 -91.5t-91.5 -37.5t-91.5 37.5t-37.5 91.5z" />
<glyph unicode="&#xc5;" d="M55 0l473 1460h263l417 -1460h-190l-109 403h-540l-119 -403h-195zM403 1784q0 100 74 170.5t178 70.5t177 -70.5t73 -170.5t-73 -170t-177 -70t-178 70t-74 170zM414 549h460l-196 774h-37zM514 1784q0 -56 41.5 -95.5t99.5 -39.5t99 39.5t41 95.5t-41 95.5t-99 39.5 t-99.5 -39.5t-41.5 -95.5z" />
<glyph unicode="&#xc6;" horiz-adv-x="1939" d="M96 0l811 1460h916l-31 -151h-559v-457h463l-25 -154h-438v-540h588l-23 -158h-739h-2v403h-545l-221 -403h-195zM594 549h463v774h-37z" />
<glyph unicode="&#xc7;" horiz-adv-x="1181" d="M158 713q0 225 62 396.5t187 270.5t298 99q261 0 421 -203l-141 -102q-110 153 -289 153q-88 0 -154.5 -50t-105.5 -137t-58.5 -194.5t-19.5 -232.5q0 -97 12 -182.5t38.5 -161t66 -129.5t98.5 -85.5t132 -31.5q62 0 118 19.5t87.5 41t78.5 60.5l121 -121 q-71 -68 -175 -110t-230 -42h-7q-26 -23 -26 -49q0 -8 3 -12.5t11.5 -6t14 -2t19 0t19.5 0.5q74 0 123 -45t49 -121q0 -83 -76 -125.5t-186 -42.5q-63 0 -180 41l51 98q6 -2 29 -11t34 -12.5t30 -7.5t36 -4q109 0 109 64q0 27 -28 45t-68 18q-51 0 -83 26.5t-32 70.5 q0 51 47 86q-113 20 -198 83t-136.5 160.5t-76.5 219.5t-25 268z" />
<glyph unicode="&#xc8;" horiz-adv-x="1081" d="M199 0v1460h766l-31 -151h-559v-457h463l-25 -154h-438v-540h588l-23 -158h-741zM350 1788l88 174l396 -305l-62 -121z" />
<glyph unicode="&#xc9;" horiz-adv-x="1081" d="M199 0v1460h766l-31 -151h-559v-457h463l-25 -154h-438v-540h588l-23 -158h-741zM340 1681l393 306l88 -172l-422 -254z" />
<glyph unicode="&#xca;" horiz-adv-x="1081" d="M186 1667l396 272l391 -272l-62 -131l-331 219l-332 -219zM199 0v1462l766 -2l-31 -151h-559v-457h463l-25 -154h-438v-540h588l-23 -158h-741z" />
<glyph unicode="&#xcb;" horiz-adv-x="1081" d="M199 0v1460h766l-31 -151h-559v-457h463l-25 -154h-438v-540h588l-23 -158h-741zM223 1792q0 54 37.5 91.5t91.5 37.5t91.5 -37.5t37.5 -91.5t-37.5 -91.5t-91.5 -37.5t-91.5 37.5t-37.5 91.5zM690 1788q0 54 37.5 91.5t91.5 37.5t91.5 -37.5t37.5 -91.5t-37.5 -91.5 t-91.5 -37.5t-91.5 37.5t-37.5 91.5z" />
<glyph unicode="&#xcc;" horiz-adv-x="575" d="M76 1788l90 174l393 -305l-61 -121zM199 0v1460h178v-1460h-178z" />
<glyph unicode="&#xcd;" horiz-adv-x="575" d="M37 1681l395 306l88 -172l-422 -254zM199 0v1460h178v-1460h-178z" />
<glyph unicode="&#xce;" horiz-adv-x="575" d="M-104 1667l395 293l391 -293l-61 -131l-332 240l-332 -240zM199 0v1460h178v-1460h-178z" />
<glyph unicode="&#xcf;" horiz-adv-x="575" d="M-74 1792q0 54 37.5 91.5t91.5 37.5t91.5 -37.5t37.5 -91.5t-37.5 -91.5t-91.5 -37.5t-91.5 37.5t-37.5 91.5zM199 0v1460h178v-1460h-178zM393 1792q0 54 37.5 91.5t91.5 37.5t91.5 -37.5t37.5 -91.5t-37.5 -91.5t-91.5 -37.5t-91.5 37.5t-37.5 91.5z" />
<glyph unicode="&#xd0;" horiz-adv-x="1296" d="M20 713v125h179v622h276q174 0 309.5 -54.5t221.5 -153.5t130 -233t44 -296q0 -153 -47 -284.5t-135 -229t-222.5 -153.5t-300.5 -56h-276v713h-179zM381 154h94q122 0 219.5 44t160 121.5t95.5 180.5t33 223q0 171 -56.5 302.5t-173 209.5t-278.5 78h-94v-475h188v-125 h-188v-559z" />
<glyph unicode="&#xd1;" horiz-adv-x="1404" d="M199 0v1411l211 78l473 -971q30 -61 79 -180t78 -180q1 74 -2.5 223.5t-3.5 212.5v866h172v-1460h-256l-454 944q-38 79 -76.5 180t-54.5 138q-3 -77 1.5 -227.5t4.5 -215.5v-819h-172zM324 1753q26 57 78 88t118 31q60 0 141 -35t121 -35q49 0 81.5 24t60.5 66l106 -120 q-99 -121 -248 -121q-45 0 -130 33.5t-132 33.5q-8 0 -15.5 -1.5t-14.5 -5.5t-12.5 -7t-12.5 -10.5t-11 -11t-11 -13.5t-9.5 -13.5t-10 -15t-9.5 -14.5z" />
<glyph unicode="&#xd2;" horiz-adv-x="1419" d="M158 731q0 164 34 300t100.5 238t173.5 159t245 57q112 0 204 -38.5t156 -107t107.5 -163.5t63.5 -206t20 -237q0 -160 -33.5 -295.5t-100 -239.5t-173 -162.5t-244.5 -58.5q-140 0 -246.5 54t-173 154.5t-100 237t-33.5 308.5zM358 731q0 -134 20 -244t61 -195t110 -132 t162 -47q94 0 163 48.5t109 135.5t59 195t19 239q0 126 -21.5 235.5t-63.5 195.5t-110.5 136t-154.5 50q-73 0 -132.5 -33t-100 -89.5t-68 -135.5t-40 -168.5t-12.5 -190.5zM565 1788l88 174l396 -305l-62 -121z" />
<glyph unicode="&#xd3;" horiz-adv-x="1419" d="M158 731q0 164 34 300t100.5 238t173.5 159t245 57q112 0 204 -38.5t156 -107t107.5 -163.5t63.5 -206t20 -237q0 -160 -33.5 -295.5t-100 -239.5t-173 -162.5t-244.5 -58.5q-140 0 -246.5 54t-173 154.5t-100 237t-33.5 308.5zM358 731q0 -134 20 -244t61 -195t110 -132 t162 -47q94 0 163 48.5t109 135.5t59 195t19 239q0 126 -21.5 235.5t-63.5 195.5t-110.5 136t-154.5 50q-73 0 -132.5 -33t-100 -89.5t-68 -135.5t-40 -168.5t-12.5 -190.5zM424 1681l393 306l90 -172l-422 -254z" />
<glyph unicode="&#xd4;" horiz-adv-x="1419" d="M158 731q0 164 34 300t100.5 238t173.5 159t245 57q112 0 204 -38.5t156 -107t107.5 -163.5t63.5 -206t20 -237q0 -160 -33.5 -295.5t-100 -239.5t-173 -162.5t-244.5 -58.5q-140 0 -246.5 54t-173 154.5t-100 237t-33.5 308.5zM309 1667l396 272l391 -272l-62 -131 l-332 219l-331 -219zM358 731q0 -134 20 -244t61 -195t110 -132t162 -47q94 0 163 48.5t109 135.5t59 195t19 239q0 126 -21.5 235.5t-63.5 195.5t-110.5 136t-154.5 50q-73 0 -132.5 -33t-100 -89.5t-68 -135.5t-40 -168.5t-12.5 -190.5z" />
<glyph unicode="&#xd5;" horiz-adv-x="1419" d="M158 731q0 164 34 300t100.5 238t173.5 159t245 57q112 0 204 -38.5t156 -107t107.5 -163.5t63.5 -206t20 -237q0 -160 -33.5 -295.5t-100 -239.5t-173 -162.5t-244.5 -58.5q-140 0 -246.5 54t-173 154.5t-100 237t-33.5 308.5zM356 1753q26 57 78 88t119 31 q60 0 141 -35t121 -35q49 0 81 24t60 66l107 -120q-99 -121 -248 -121q-44 0 -129 33.5t-133 33.5q-21 0 -41 -14t-31 -28t-29 -41l-6 -9zM358 731q0 -134 20 -244t61 -195t110 -132t162 -47q94 0 163 48.5t109 135.5t59 195t19 239q0 126 -21.5 235.5t-63.5 195.5 t-110.5 136t-154.5 50q-73 0 -132.5 -33t-100 -89.5t-68 -135.5t-40 -168.5t-12.5 -190.5z" />
<glyph unicode="&#xd6;" horiz-adv-x="1419" d="M158 731q0 164 34 300t100.5 238t173.5 159t245 57q112 0 204 -38.5t156 -107t107.5 -163.5t63.5 -206t20 -237q0 -160 -33.5 -295.5t-100 -239.5t-173 -162.5t-244.5 -58.5q-140 0 -246.5 54t-173 154.5t-100 237t-33.5 308.5zM358 731q0 -134 20 -244t61 -195t110 -132 t162 -47q94 0 163 48.5t109 135.5t59 195t19 239q0 126 -21.5 235.5t-63.5 195.5t-110.5 136t-154.5 50q-73 0 -132.5 -33t-100 -89.5t-68 -135.5t-40 -168.5t-12.5 -190.5zM362 1792q0 54 38 91.5t92 37.5t91.5 -37.5t37.5 -91.5t-37.5 -91.5t-91.5 -37.5t-92 37.5 t-38 91.5zM829 1788q0 54 37.5 91.5t91.5 37.5t91.5 -37.5t37.5 -91.5t-37.5 -91.5t-91.5 -37.5t-91.5 37.5t-37.5 91.5z" />
<glyph unicode="&#xd7;" horiz-adv-x="1050" d="M82 860l111 113l335 -334l312 311l112 -110l-313 -314l330 -329l-111 -113l-330 332l-325 -326l-113 111l326 325z" />
<glyph unicode="&#xd8;" horiz-adv-x="1413" d="M16 27l228 260q-78 178 -78 444q0 164 34 300t100.5 238t173.5 159t245 57q257 0 403 -199l185 209l82 -76l-207 -233q88 -189 88 -453q0 -160 -33.5 -295.5t-100 -239.5t-173 -162.5t-244.5 -58.5q-277 0 -418 205l-203 -229zM367 731q0 -158 26 -276l600 684 q-94 209 -274 209q-91 0 -160 -49.5t-110 -136.5t-61.5 -195.5t-20.5 -235.5zM430 330q90 -217 289 -217q94 0 163 48.5t109 135.5t59 195t19 239q0 161 -33 287z" />
<glyph unicode="&#xd9;" horiz-adv-x="1320" d="M199 395v1065h182v-1042q0 -136 74 -211.5t202 -75.5q132 0 208.5 74.5t76.5 208.5v1046h180v-1038q0 -205 -126 -323.5t-339 -118.5q-210 0 -334 109t-124 306zM453 1788l90 174l393 -305l-62 -121z" />
<glyph unicode="&#xda;" horiz-adv-x="1320" d="M199 395v1065h182v-1042q0 -136 74 -211.5t202 -75.5q132 0 208.5 74.5t76.5 208.5v1046h180v-1038q0 -205 -126 -323.5t-339 -118.5q-210 0 -334 109t-124 306zM434 1681l393 306l91 -172l-422 -254z" />
<glyph unicode="&#xdb;" horiz-adv-x="1320" d="M199 395v1065h182v-1042q0 -136 74 -211.5t202 -75.5q132 0 208.5 74.5t76.5 208.5v1046h180v-1038q0 -205 -126 -323.5t-339 -118.5q-210 0 -334 109t-124 306zM268 1667l396 272l391 -272l-62 -131l-331 219l-332 -219z" />
<glyph unicode="&#xdc;" horiz-adv-x="1320" d="M199 395v1067h182v-1044q0 -136 74 -211.5t202 -75.5q132 0 208.5 74.5t76.5 208.5v1048h180v-1040q0 -205 -126 -323.5t-339 -118.5q-210 0 -334 109t-124 306zM303 1792q0 54 37.5 91.5t91.5 37.5t91.5 -37.5t37.5 -91.5t-37.5 -91.5t-91.5 -37.5t-91.5 37.5 t-37.5 91.5zM770 1788q0 54 37.5 91.5t91.5 37.5t91.5 -37.5t37.5 -91.5t-37.5 -91.5t-91.5 -37.5t-91.5 37.5t-37.5 91.5z" />
<glyph unicode="&#xdd;" horiz-adv-x="1130" d="M55 1430l183 55l350 -733l307 733l180 -53l-401 -826v-606h-176v606zM375 1681l393 306l90 -172l-422 -254z" />
<glyph unicode="&#xde;" horiz-adv-x="1355" d="M193 0v1460h176v-233h149q237 0 371.5 -114.5t134.5 -313.5q0 -190 -148 -306t-378 -116h-129v-377h-176zM369 518h129q149 0 240 74.5t91 206.5q0 136 -80.5 212t-230.5 76h-149v-569z" />
<glyph unicode="&#xdf;" horiz-adv-x="1273" d="M199 0v995q0 248 116.5 401.5t319.5 153.5q119 0 207.5 -66.5t128.5 -176.5t26 -240q-55 -17 -96.5 -37t-81.5 -49.5t-62 -71.5t-22 -94q0 -113 160 -197q56 -30 96 -57.5t81.5 -67t63 -89.5t21.5 -109q0 -143 -99 -227t-255 -84q-161 0 -277 112l92 115q86 -86 197 -86 q76 0 119 43.5t43 116.5q0 37 -15 69.5t-45 59t-60.5 46t-74.5 42.5q-94 49 -156.5 123.5t-62.5 169.5q0 120 74 199.5t188 123.5q8 77 -10 142.5t-65 108t-117 42.5q-127 0 -194.5 -118.5t-67.5 -311.5v-981h-172z" />
<glyph unicode="&#xe0;" horiz-adv-x="1064" d="M137 256q0 81 35 146t89 106t131.5 71.5t148.5 45.5t153 24q5 79 -6.5 139.5t-50 102t-100.5 41.5q-68 0 -125 -21t-125 -61l-66 131q159 90 316 90q151 0 240 -92.5t89 -247.5v-463q0 -33 2.5 -56t10 -46t24.5 -35t43 -12q42 0 92 28l52 -118q-30 -20 -82.5 -32.5 t-98.5 -12.5q-146 0 -196 143q-90 -152 -279 -152q-127 0 -212 76.5t-85 204.5zM328 274q0 -73 38 -117t101 -44q69 0 127 37t98 100v276q-71 -6 -130.5 -20.5t-115 -42t-87 -76t-31.5 -113.5zM330 1460l88 172l393 -303l-59 -121z" />
<glyph unicode="&#xe1;" horiz-adv-x="1064" d="M137 256q0 81 35 146t89 106t131.5 71.5t148.5 45.5t153 24q5 79 -6.5 139.5t-50 102t-100.5 41.5q-68 0 -125 -21t-125 -61l-66 131q159 90 316 90q151 0 240 -92.5t89 -247.5v-463q0 -33 2.5 -56t10 -46t24.5 -35t43 -12q42 0 92 28l52 -118q-30 -20 -82.5 -32.5 t-98.5 -12.5q-146 0 -196 143q-90 -152 -279 -152q-127 0 -212 76.5t-85 204.5zM293 1329l395 303l88 -172l-422 -252zM328 274q0 -73 38 -117t101 -44q69 0 127 37t98 100v276q-71 -6 -130.5 -20.5t-115 -42t-87 -76t-31.5 -113.5z" />
<glyph unicode="&#xe2;" horiz-adv-x="1064" d="M137 256q0 81 35 146t89 106t131.5 71.5t148.5 45.5t153 24q5 79 -6.5 139.5t-50 102t-100.5 41.5q-68 0 -125 -21t-125 -61l-66 131q159 90 316 90q151 0 240 -92.5t89 -247.5v-463q0 -33 2.5 -56t10 -46t24.5 -35t43 -12q42 0 92 28l52 -118q-30 -20 -82.5 -32.5 t-98.5 -12.5q-146 0 -196 143q-90 -152 -279 -152q-127 0 -212 76.5t-85 204.5zM150 1339l395 271l391 -271l-62 -131l-331 219l-332 -219zM328 274q0 -73 38 -117t101 -44q69 0 127 37t98 100v276q-71 -6 -130.5 -20.5t-115 -42t-87 -76t-31.5 -113.5z" />
<glyph unicode="&#xe3;" horiz-adv-x="1064" d="M137 256q0 81 35 146t89 106t131.5 71.5t148.5 45.5t153 24q5 79 -6.5 139.5t-50 102t-100.5 41.5q-68 0 -125 -21t-125 -61l-66 131q159 90 316 90q151 0 240 -92.5t89 -247.5v-463q0 -33 2.5 -56t10 -46t24.5 -35t43 -12q42 0 92 28l52 -118q-30 -20 -82.5 -32.5 t-98.5 -12.5q-146 0 -196 143q-90 -152 -279 -152q-127 0 -212 76.5t-85 204.5zM152 1341q26 57 78 88t118 31q60 0 141 -34.5t121 -34.5q49 0 81.5 24t60.5 66l106 -121q-99 -121 -248 -121q-44 0 -129 34t-133 34q-9 0 -17.5 -2.5t-15 -5.5t-15 -10.5t-13 -11.5t-12.5 -15 t-11 -15t-11.5 -17t-10.5 -16zM328 274q0 -73 38 -117t101 -44q69 0 127 37t98 100v276q-71 -6 -130.5 -20.5t-115 -42t-87 -76t-31.5 -113.5z" />
<glyph unicode="&#xe4;" horiz-adv-x="1064" d="M137 256q0 81 35 146t89 106t131.5 71.5t148.5 45.5t153 24q5 79 -6.5 139.5t-50 102t-100.5 41.5q-68 0 -125 -21t-125 -61l-66 131q159 90 316 90q151 0 240 -92.5t89 -247.5v-463q0 -33 2.5 -56t10 -46t24.5 -35t43 -12q42 0 92 28l52 -118q-30 -20 -82.5 -32.5 t-98.5 -12.5q-146 0 -196 143q-90 -152 -279 -152q-127 0 -212 76.5t-85 204.5zM207 1460q0 54 37.5 91.5t91.5 37.5t91.5 -37.5t37.5 -91.5t-37.5 -91.5t-91.5 -37.5t-91.5 37.5t-37.5 91.5zM328 274q0 -73 38 -117t101 -44q69 0 127 37t98 100v276q-71 -6 -130.5 -20.5 t-115 -42t-87 -76t-31.5 -113.5zM635 1460q0 54 37.5 91.5t91.5 37.5t91.5 -37.5t37.5 -91.5t-37.5 -91.5t-91.5 -37.5t-91.5 37.5t-37.5 91.5z" />
<glyph unicode="&#xe5;" horiz-adv-x="1064" d="M137 256q0 81 35 146t89 106t131.5 71.5t148.5 45.5t153 24q5 79 -6.5 139.5t-50 102t-100.5 41.5q-68 0 -125 -21t-125 -61l-66 131q159 90 316 90q151 0 240 -92.5t89 -247.5v-463q0 -33 2.5 -56t10 -46t24.5 -35t43 -12q42 0 92 28l52 -118q-30 -20 -82.5 -32.5 t-98.5 -12.5q-146 0 -196 143q-90 -152 -279 -152q-127 0 -212 76.5t-85 204.5zM289 1423q0 100 74 170t178 70t177 -70t73 -170t-73 -170.5t-177 -70.5t-178 70.5t-74 170.5zM328 274q0 -73 38 -117t101 -44q69 0 127 37t98 100v276q-71 -6 -130.5 -20.5t-115 -42t-87 -76 t-31.5 -113.5zM399 1423q0 -56 42 -95.5t100 -39.5t98.5 39.5t40.5 95.5t-40.5 94.5t-98.5 38.5q-59 0 -100.5 -39t-41.5 -94z" />
<glyph unicode="&#xe6;" horiz-adv-x="1593" d="M137 256q0 81 35 146t89 106t131.5 71.5t148.5 45.5t153 24q5 79 -6.5 139.5t-50 102t-100.5 41.5q-68 0 -125 -21t-125 -61l-66 131q159 90 316 90q181 0 272 -131q108 133 287 133q156 0 258 -88t102 -229q0 -54 -18.5 -98.5t-49 -76t-76.5 -56t-93.5 -39.5t-108.5 -26 t-112.5 -16t-114.5 -8q2 -63 15.5 -118t37.5 -100t65 -71t93 -26q129 0 272 86l78 -133q-147 -88 -348 -88q-207 0 -314 168q-49 -83 -138.5 -131t-209.5 -48q-127 0 -212 76.5t-85 204.5zM328 274q0 -73 38 -117t101 -44q76 0 145.5 47.5t114.5 113.5q-34 103 -37 252 q-70 -6 -129 -20.5t-114.5 -42t-87 -76t-31.5 -113.5zM881 559q172 18 237 38q154 45 154 159q0 80 -49 132t-127 52q-58 0 -100.5 -32t-66 -88.5t-35 -120t-13.5 -140.5z" />
<glyph unicode="&#xe7;" horiz-adv-x="944" d="M158 524q0 254 99.5 401.5t285.5 147.5q100 0 181 -40.5t124 -112.5l-131 -76q-26 43 -71 67.5t-103 24.5q-55 0 -95 -34.5t-61.5 -95t-31 -130t-9.5 -152.5q0 -407 197 -407q112 0 196 94l105 -105q-113 -118 -283 -124q-39 -35 -39 -60q0 -8 3.5 -12.5t11.5 -6t14 -2 t20 0t19 0.5q74 0 123 -45t49 -121q0 -83 -76 -125.5t-186 -42.5q-64 0 -181 41l52 98q6 -2 29 -11t34 -12.5t30.5 -7.5t35.5 -4q108 0 108 64q0 27 -28 45t-68 18q-51 0 -82 26.5t-31 70.5q0 55 60 94q-101 21 -169.5 95t-100 184.5t-31.5 254.5z" />
<glyph unicode="&#xe8;" horiz-adv-x="1060" d="M158 543q0 235 107.5 382.5t297.5 147.5q156 0 258.5 -88t102.5 -229q0 -54 -18.5 -98.5t-49 -76t-77 -56t-94 -39.5t-108.5 -26t-112.5 -16t-114.5 -8q2 -63 15.5 -118t37.5 -100t65 -71t93 -26q130 0 273 86l77 -133q-147 -88 -348 -88q-104 0 -183 42.5t-127 119 t-71.5 176t-23.5 219.5zM348 559q172 18 237 38q154 45 154 159q0 80 -49 132t-127 52q-58 0 -100.5 -32t-66 -88.5t-35 -120t-13.5 -140.5zM393 1460l90 172l394 -303l-62 -121z" />
<glyph unicode="&#xe9;" horiz-adv-x="1060" d="M158 543q0 235 107.5 382.5t297.5 147.5q156 0 258.5 -88t102.5 -229q0 -54 -18.5 -98.5t-49 -76t-77 -56t-94 -39.5t-108.5 -26t-112.5 -16t-114.5 -8q2 -63 15.5 -118t37.5 -100t65 -71t93 -26q130 0 273 86l77 -133q-147 -88 -348 -88q-104 0 -183 42.5t-127 119 t-71.5 176t-23.5 219.5zM330 1329l395 303l88 -172l-422 -252zM348 559q172 18 237 38q154 45 154 159q0 80 -49 132t-127 52q-58 0 -100.5 -32t-66 -88.5t-35 -120t-13.5 -140.5z" />
<glyph unicode="&#xea;" horiz-adv-x="1060" d="M158 543q0 235 107.5 382.5t297.5 147.5q156 0 258.5 -88t102.5 -229q0 -54 -18.5 -98.5t-49 -76t-77 -56t-94 -39.5t-108.5 -26t-112.5 -16t-114.5 -8q2 -63 15.5 -118t37.5 -100t65 -71t93 -26q130 0 273 86l77 -133q-147 -88 -348 -88q-104 0 -183 42.5t-127 119 t-71.5 176t-23.5 219.5zM172 1339l395 271l391 -271l-61 -131l-332 219l-332 -219zM348 559q172 18 237 38q154 45 154 159q0 80 -49 132t-127 52q-58 0 -100.5 -32t-66 -88.5t-35 -120t-13.5 -140.5z" />
<glyph unicode="&#xeb;" horiz-adv-x="1060" d="M158 543q0 235 107.5 382.5t297.5 147.5q156 0 258.5 -88t102.5 -229q0 -54 -18.5 -98.5t-49 -76t-77 -56t-94 -39.5t-108.5 -26t-112.5 -16t-114.5 -8q2 -63 15.5 -118t37.5 -100t65 -71t93 -26q130 0 273 86l77 -133q-147 -88 -348 -88q-104 0 -183 42.5t-127 119 t-71.5 176t-23.5 219.5zM223 1460q0 54 37.5 91.5t91.5 37.5t91.5 -37.5t37.5 -91.5t-37.5 -91.5t-91.5 -37.5t-91.5 37.5t-37.5 91.5zM348 559q172 18 237 38q154 45 154 159q0 80 -49 132t-127 52q-58 0 -100.5 -32t-66 -88.5t-35 -120t-13.5 -140.5zM651 1460 q0 54 37.5 91.5t91.5 37.5t91.5 -37.5t37.5 -91.5t-37.5 -91.5t-91.5 -37.5t-91.5 37.5t-37.5 91.5z" />
<glyph unicode="&#xec;" horiz-adv-x="606" d="M-4 930v117l377 24v-1071h-176v930h-201zM37 1460l88 172l395 -303l-61 -121z" />
<glyph unicode="&#xed;" horiz-adv-x="606" d="M-10 1329l393 303l90 -172l-422 -252zM18 930v117l377 24v-1071h-176v930h-201z" />
<glyph unicode="&#xee;" horiz-adv-x="606" d="M-41 1339l393 291l391 -291l-59 -131l-332 240l-334 -240zM80 930v117l377 24v-1071h-176v930h-201z" />
<glyph unicode="&#xef;" horiz-adv-x="606" d="M-61 1460q0 54 37.5 91.5t91.5 37.5t91.5 -37.5t37.5 -91.5t-37.5 -91.5t-91.5 -37.5t-91.5 37.5t-37.5 91.5zM18 930v117l377 24v-1071h-176v930h-201zM367 1460q0 54 37.5 91.5t91.5 37.5t91.5 -37.5t37.5 -91.5t-37.5 -91.5t-91.5 -37.5t-91.5 37.5t-37.5 91.5z" />
<glyph unicode="&#xf0;" horiz-adv-x="1120" d="M158 467q0 98 25 182.5t73.5 150.5t128 104t180.5 38q79 0 140.5 -35.5t99.5 -97.5q0 238 -119 389l-227 -127l-53 94l198 111q-86 61 -188 61q-94 0 -146 -24l-75 121q85 39 221 39q193 0 332 -117l202 112l54 -94l-181 -98q168 -213 168 -594q0 -124 -11.5 -224 t-41.5 -192t-78 -154t-125.5 -98.5t-179.5 -36.5q-100 0 -177 38t-124.5 105.5t-71.5 155t-24 191.5zM348 465q0 -348 207 -348q125 0 188.5 97.5t63.5 250.5q0 92 -26.5 168t-82.5 124t-133 48q-59 0 -102 -27t-67.5 -75.5t-36 -107.5t-11.5 -130z" />
<glyph unicode="&#xf1;" horiz-adv-x="1157" d="M199 0v1051l149 22l25 -182q106 184 276 184q138 0 223.5 -83.5t85.5 -229.5v-494q0 -70 16.5 -109.5t63.5 -39.5q38 0 92 28l52 -118q-70 -45 -181 -45q-104 0 -160.5 73.5t-56.5 208.5v488q0 85 -39.5 134.5t-111.5 49.5q-74 0 -141.5 -51.5t-118.5 -134.5v-752h-174z M283 1341q26 57 78 88t118 31q60 0 141 -34.5t121 -34.5q49 0 81.5 24t60.5 66l106 -121q-99 -121 -248 -121q-45 0 -130 34t-132 34q-9 0 -17.5 -2.5t-15 -5.5t-15 -10.5t-13 -11.5t-12.5 -15t-11 -15t-11.5 -17t-10.5 -16z" />
<glyph unicode="&#xf2;" horiz-adv-x="1134" d="M158 530q0 111 27.5 209t79 173t131 119t177.5 44q128 0 221 -73.5t138 -195t45 -276.5q0 -148 -43 -269t-136.5 -199t-224.5 -78q-106 0 -186.5 40t-130 113.5t-74 172t-24.5 220.5zM346 530q0 -67 5 -121.5t19.5 -110.5t39 -93.5t66 -61.5t97.5 -24q62 0 106.5 36 t67 98.5t32 130t9.5 146.5q0 82 -10 150.5t-33 129.5t-67 95.5t-105 34.5q-63 0 -109 -34.5t-71 -95t-36 -130t-11 -150.5zM379 1460l90 172l393 -303l-61 -121z" />
<glyph unicode="&#xf3;" horiz-adv-x="1134" d="M158 530q0 111 27.5 209t79 173t131 119t177.5 44q128 0 221 -73.5t138 -195t45 -276.5q0 -148 -43 -269t-136.5 -199t-224.5 -78q-106 0 -186.5 40t-130 113.5t-74 172t-24.5 220.5zM307 1329l395 303l89 -172l-422 -252zM346 530q0 -67 5 -121.5t19.5 -110.5t39 -93.5 t66 -61.5t97.5 -24q62 0 106.5 36t67 98.5t32 130t9.5 146.5q0 82 -10 150.5t-33 129.5t-67 95.5t-105 34.5q-63 0 -109 -34.5t-71 -95t-36 -130t-11 -150.5z" />
<glyph unicode="&#xf4;" horiz-adv-x="1134" d="M158 530q0 111 27.5 209t79 173t131 119t177.5 44q128 0 221 -73.5t138 -195t45 -276.5q0 -148 -43 -269t-136.5 -199t-224.5 -78q-106 0 -186.5 40t-130 113.5t-74 172t-24.5 220.5zM176 1339l395 271l392 -271l-62 -131l-332 219l-331 -219zM346 530q0 -67 5 -121.5 t19.5 -110.5t39 -93.5t66 -61.5t97.5 -24q62 0 106.5 36t67 98.5t32 130t9.5 146.5q0 82 -10 150.5t-33 129.5t-67 95.5t-105 34.5q-63 0 -109 -34.5t-71 -95t-36 -130t-11 -150.5z" />
<glyph unicode="&#xf5;" horiz-adv-x="1134" d="M158 530q0 111 27.5 209t79 173t131 119t177.5 44q128 0 221 -73.5t138 -195t45 -276.5q0 -148 -43 -269t-136.5 -199t-224.5 -78q-106 0 -186.5 40t-130 113.5t-74 172t-24.5 220.5zM213 1341q26 57 78 88t119 31q60 0 141 -34.5t121 -34.5q49 0 81 24t60 66l107 -121 q-99 -121 -248 -121q-44 0 -129 34t-133 34q-8 0 -15.5 -1.5t-15 -5.5t-12.5 -7t-12.5 -11t-11 -11.5t-11 -14t-9.5 -13t-10.5 -15t-9.5 -14.5zM346 530q0 -67 5 -121.5t19.5 -110.5t39 -93.5t66 -61.5t97.5 -24q62 0 106.5 36t67 98.5t32 130t9.5 146.5q0 82 -10 150.5 t-33 129.5t-67 95.5t-105 34.5q-63 0 -109 -34.5t-71 -95t-36 -130t-11 -150.5z" />
<glyph unicode="&#xf6;" horiz-adv-x="1134" d="M158 530q0 111 27.5 209t79 173t131 119t177.5 44q128 0 221 -73.5t138 -195t45 -276.5q0 -148 -43 -269t-136.5 -199t-224.5 -78q-106 0 -186.5 40t-130 113.5t-74 172t-24.5 220.5zM207 1460q0 54 37.5 91.5t91.5 37.5t91.5 -37.5t37.5 -91.5t-37.5 -91.5t-91.5 -37.5 t-91.5 37.5t-37.5 91.5zM346 530q0 -67 5 -121.5t19.5 -110.5t39 -93.5t66 -61.5t97.5 -24q62 0 106.5 36t67 98.5t32 130t9.5 146.5q0 82 -10 150.5t-33 129.5t-67 95.5t-105 34.5q-63 0 -109 -34.5t-71 -95t-36 -130t-11 -150.5zM635 1460q0 54 37.5 91.5t91.5 37.5 t91.5 -37.5t37.5 -91.5t-37.5 -91.5t-91.5 -37.5t-91.5 37.5t-37.5 91.5z" />
<glyph unicode="&#xf7;" horiz-adv-x="1239" d="M102 444v158h1035v-158h-1035zM469 98q0 63 44.5 108.5t107.5 45.5t107 -45.5t44 -108.5t-44 -107t-107 -44t-107.5 44t-44.5 107zM469 969q0 63 44.5 108t107.5 45t107 -45t44 -108t-44 -107.5t-107 -44.5t-107.5 44.5t-44.5 107.5z" />
<glyph unicode="&#xf8;" horiz-adv-x="1114" d="M35 25l180 206q-49 125 -49 299q0 149 47 271t143 198t226 76q165 0 270 -121l145 166l82 -76l-164 -184q70 -140 70 -330q0 -87 -15.5 -167t-48 -149t-79.5 -120t-114 -80.5t-146 -29.5q-202 0 -310 143l-155 -176zM354 530q0 -70 6 -135l383 436q-55 109 -161 109 q-51 0 -91 -23.5t-65.5 -62t-42 -92.5t-23 -111t-6.5 -121zM391 262q56 -143 191 -143q62 0 106.5 36t67 98.5t32 130t9.5 146.5q0 96 -15 179z" />
<glyph unicode="&#xf9;" horiz-adv-x="1138" d="M199 303v756h174v-756q0 -89 43 -134.5t112 -45.5q73 0 140.5 52t97.5 114v770h174v-791q0 -71 16.5 -110t63.5 -39q42 0 92 28l51 -118q-68 -45 -180 -45q-150 0 -199 149q-39 -57 -110 -104t-166 -47q-146 0 -227.5 85.5t-81.5 235.5zM348 1460l90 172l393 -303 l-61 -121z" />
<glyph unicode="&#xfa;" horiz-adv-x="1138" d="M199 303v756h174v-756q0 -89 43 -134.5t112 -45.5q73 0 140.5 52t97.5 114v770h174v-791q0 -71 16.5 -110t63.5 -39q42 0 92 28l51 -118q-68 -45 -180 -45q-150 0 -199 149q-39 -57 -110 -104t-166 -47q-146 0 -227.5 85.5t-81.5 235.5zM309 1329l396 303l88 -172 l-422 -252z" />
<glyph unicode="&#xfb;" horiz-adv-x="1138" d="M170 1339l395 271l391 -271l-61 -131l-332 219l-332 -219zM199 303v756h174v-756q0 -89 43 -134.5t112 -45.5q73 0 140.5 52t97.5 114v770h174v-791q0 -71 16.5 -110t63.5 -39q42 0 92 28l51 -118q-68 -45 -180 -45q-150 0 -199 149q-39 -57 -110 -104t-166 -47 q-146 0 -227.5 85.5t-81.5 235.5z" />
<glyph unicode="&#xfc;" horiz-adv-x="1138" d="M199 303v756h174v-756q0 -89 43 -134.5t112 -45.5q73 0 140.5 52t97.5 114v770h174v-791q0 -71 16.5 -110t63.5 -39q42 0 92 28l51 -118q-68 -45 -180 -45q-150 0 -199 149q-39 -57 -110 -104t-166 -47q-146 0 -227.5 85.5t-81.5 235.5zM227 1460q0 54 37.5 91.5 t91.5 37.5t91.5 -37.5t37.5 -91.5t-37.5 -91.5t-91.5 -37.5t-91.5 37.5t-37.5 91.5zM655 1460q0 54 37.5 91.5t91.5 37.5t91.5 -37.5t37.5 -91.5t-37.5 -91.5t-91.5 -37.5t-91.5 37.5t-37.5 91.5z" />
<glyph unicode="&#xfd;" horiz-adv-x="1159" d="M188 -393l74 155q113 -59 219 -59q150 0 228.5 111.5t78.5 296.5q-96 -127 -272 -127q-145 0 -222 97t-77 255v723h176v-686q0 -252 154 -252q146 0 237 123v815h177v-912q0 -270 -126.5 -429.5t-355.5 -159.5q-176 0 -291 49zM383 1329l395 303l88 -172l-422 -252z" />
<glyph unicode="&#xfe;" horiz-adv-x="1185" d="M158 -430v1890h172v-479q92 92 217 92q95 0 169 -40.5t119 -112t68 -163t23 -198.5q0 -119 -24 -220.5t-72 -182t-128 -126.5t-184 -46q-122 0 -190 71v-483zM328 199q35 -35 89 -57.5t111 -22.5q58 0 100 36t64.5 99.5t32.5 135.5t10 157q0 79 -11.5 146t-35.5 123.5 t-68 89t-104 32.5q-54 0 -104 -26t-84 -70v-643z" />
<glyph unicode="&#xff;" horiz-adv-x="1159" d="M188 -393l74 155q113 -59 219 -59q150 0 228.5 111.5t78.5 296.5q-96 -127 -272 -127q-145 0 -222 97t-77 255v723h176v-686q0 -252 154 -252q146 0 237 123v815h177v-912q0 -270 -126.5 -429.5t-355.5 -159.5q-176 0 -291 49zM244 1460q0 54 37.5 91.5t91.5 37.5 t91.5 -37.5t37.5 -91.5t-37.5 -91.5t-91.5 -37.5t-91.5 37.5t-37.5 91.5zM672 1460q0 54 37.5 91.5t91.5 37.5t91.5 -37.5t37.5 -91.5t-37.5 -91.5t-91.5 -37.5t-91.5 37.5t-37.5 91.5z" />
<glyph unicode="&#x152;" horiz-adv-x="1984" d="M199 731q0 164 34 300t100.5 238t173.5 159t245 57q215 0 350 -135v110h766l-31 -149h-559l2 -457h461l-25 -154h-436l-2 -540h588l-23 -158h-741v115q-137 -140 -350 -140q-140 0 -246.5 54t-173 154.5t-100 237t-33.5 308.5zM399 731q0 -134 20 -244t61 -195t110 -132 t162 -47q94 0 163 48.5t109 135.5t59 195t19 239q0 126 -21.5 235.5t-63.5 195.5t-110.5 136t-154.5 50q-73 0 -132.5 -33t-100 -89.5t-68 -135.5t-40 -168.5t-12.5 -190.5z" />
<glyph unicode="&#x153;" horiz-adv-x="1693" d="M158 530q0 111 27.5 209t79 173t131 119t177.5 44q200 0 310 -172q112 170 313 170q156 0 258 -88t102 -229q0 -54 -18.5 -98.5t-49 -76t-76.5 -56t-93.5 -39.5t-108.5 -26t-112.5 -16t-114.5 -8q2 -63 15.5 -118t37.5 -100t65 -71t93 -26q129 0 272 86l78 -133 q-147 -88 -348 -88q-209 0 -315 170q-109 -172 -308 -172q-106 0 -186.5 40t-130 113.5t-74 172t-24.5 220.5zM346 530q0 -67 5 -121.5t19.5 -110.5t39 -93.5t66 -61.5t97.5 -24q62 0 106.5 36t67 98.5t32 130t9.5 146.5q0 82 -10 150.5t-33 129.5t-67 95.5t-105 34.5 q-63 0 -109 -34.5t-71 -95t-36 -130t-11 -150.5zM981 559q172 18 237 38q154 45 154 159q0 80 -49 132t-127 52q-58 0 -100.5 -32t-66 -88.5t-35 -120t-13.5 -140.5z" />
<glyph unicode="&#x178;" horiz-adv-x="1130" d="M55 1430l183 55l350 -733l307 733l180 -53l-401 -826v-606h-176v606zM227 1792q0 54 37.5 91.5t91.5 37.5t91.5 -37.5t37.5 -91.5t-37.5 -91.5t-91.5 -37.5t-91.5 37.5t-37.5 91.5zM655 1792q0 54 37.5 91.5t91.5 37.5t91.5 -37.5t37.5 -91.5t-37.5 -91.5t-91.5 -37.5 t-91.5 37.5t-37.5 91.5z" />
<glyph unicode="&#x2c6;" horiz-adv-x="950" d="M82 1339l395 271l391 -271l-61 -131l-332 219l-332 -219z" />
<glyph unicode="&#x2dc;" horiz-adv-x="870" d="M82 1341q26 57 78 88t119 31q60 0 141 -34.5t121 -34.5q49 0 81 24t60 66l106 -121q-99 -121 -247 -121q-44 0 -129 34t-133 34q-8 0 -15.5 -1.5t-15 -5.5t-12.5 -7t-12.5 -11t-11 -11.5t-11 -14t-9.5 -13t-10.5 -15t-9.5 -14.5z" />
<glyph unicode="&#x2000;" horiz-adv-x="1012" />
<glyph unicode="&#x2001;" horiz-adv-x="2025" />
<glyph unicode="&#x2002;" horiz-adv-x="1012" />
<glyph unicode="&#x2003;" horiz-adv-x="2025" />
<glyph unicode="&#x2004;" horiz-adv-x="675" />
<glyph unicode="&#x2005;" horiz-adv-x="506" />
<glyph unicode="&#x2006;" horiz-adv-x="337" />
<glyph unicode="&#x2007;" horiz-adv-x="337" />
<glyph unicode="&#x2008;" horiz-adv-x="253" />
<glyph unicode="&#x2009;" horiz-adv-x="405" />
<glyph unicode="&#x200a;" horiz-adv-x="112" />
<glyph unicode="&#x2010;" horiz-adv-x="1001" d="M205 508v158h592v-158h-592z" />
<glyph unicode="&#x2011;" horiz-adv-x="1001" d="M205 508v158h592v-158h-592z" />
<glyph unicode="&#x2012;" horiz-adv-x="1001" d="M205 508v158h592v-158h-592z" />
<glyph unicode="&#x2013;" horiz-adv-x="1433" d="M205 508v158h1024v-158h-1024z" />
<glyph unicode="&#x2014;" horiz-adv-x="1828" d="M205 508v158h1419v-158h-1419z" />
<glyph unicode="&#x2018;" horiz-adv-x="727" d="M205 1133q0 252 241 327l72 -141q-36 -16 -64 -36.5t-28 -37.5q0 -27 23 -39q35 -14 54 -49t19 -76q0 -59 -39 -101t-98 -42q-75 0 -127.5 57.5t-52.5 137.5z" />
<glyph unicode="&#x2019;" horiz-adv-x="727" d="M205 1317q0 59 39 101t98 42q75 0 127.5 -57t52.5 -137q0 -250 -241 -328l-72 141q92 45 92 74q0 32 -22 39q-35 17 -54.5 51t-19.5 74z" />
<glyph unicode="&#x201a;" horiz-adv-x="727" d="M205 117q0 59 39 101t98 42q75 0 127.5 -57t52.5 -137q0 -250 -241 -328l-72 141q92 45 92 74q0 32 -22 39q-35 14 -54.5 49.5t-19.5 75.5z" />
<glyph unicode="&#x201c;" horiz-adv-x="1163" d="M205 1133q0 252 241 327l72 -141q-36 -16 -64 -36.5t-28 -37.5q0 -27 23 -39q35 -14 54 -49t19 -76q0 -59 -39 -101t-98 -42q-75 0 -127.5 57.5t-52.5 137.5zM641 1133q0 252 242 327l71 -141q-36 -16 -64 -36.5t-28 -37.5q0 -27 23 -39q35 -14 54 -49t19 -76 q0 -59 -39 -101t-98 -42q-75 0 -127.5 57.5t-52.5 137.5z" />
<glyph unicode="&#x201d;" horiz-adv-x="1163" d="M205 1317q0 59 39 101t98 42q75 0 127.5 -57t52.5 -137q0 -250 -241 -328l-72 141q92 45 92 74q0 32 -22 39q-35 17 -54.5 51t-19.5 74zM641 1317q0 59 39 101t98 42q75 0 127.5 -57t52.5 -137q0 -250 -241 -328l-72 141q92 45 92 74q0 32 -22 39q-35 17 -54.5 51 t-19.5 74z" />
<glyph unicode="&#x201e;" horiz-adv-x="1163" d="M205 117q0 59 39 101t98 42q75 0 127.5 -57t52.5 -137q0 -250 -241 -328l-72 141q92 45 92 74q0 32 -22 39q-35 14 -54.5 49.5t-19.5 75.5zM641 117q0 59 39 101t98 42q75 0 127.5 -57t52.5 -137q0 -250 -241 -328l-72 141q92 45 92 74q0 32 -22 39q-35 14 -54.5 49.5 t-19.5 75.5z" />
<glyph unicode="&#x2022;" horiz-adv-x="1024" d="M147 731q0 152 106.5 258.5t258.5 106.5t259.5 -106.5t107.5 -258.5t-107.5 -259t-259.5 -107t-258.5 107t-106.5 259z" />
<glyph unicode="&#x2026;" horiz-adv-x="1632" d="M205 98q0 57 40 98.5t97 41.5t97 -41.5t40 -98.5t-40 -97t-97 -40t-97 40t-40 97zM676 98q0 57 40 98.5t97 41.5t97 -41.5t40 -98.5t-40 -97t-97 -40t-97 40t-40 97zM1153 98q0 57 40 98.5t97 41.5t97 -41.5t40 -98.5t-40 -97t-97 -40t-97 40t-40 97z" />
<glyph unicode="&#x202f;" horiz-adv-x="405" />
<glyph unicode="&#x2039;" horiz-adv-x="645" d="M82 504v133l360 354l119 -117l-311 -305l313 -299l-117 -120z" />
<glyph unicode="&#x203a;" horiz-adv-x="645" d="M82 270l315 299l-313 305l119 117l360 -354v-133l-362 -354z" />
<glyph unicode="&#x205f;" horiz-adv-x="506" />
<glyph unicode="&#x2122;" horiz-adv-x="1771" d="M82 1333v125h612l-12 -125h-227v-717h-146v717h-227zM752 616l114 826l133 31l218 -648l188 623l133 20l152 -852h-156l-76 564l-182 -564h-117l-196 564l-60 -564h-151z" />
<glyph unicode="&#x25fc;" horiz-adv-x="1075" d="M0 0v1075h1075v-1075h-1075z" />
<glyph unicode="&#xfb01;" horiz-adv-x="1220" d="M55 930v129h144v76q0 130 60 225.5t157 142.5t217 47q224 0 430 -104l-76 -133q-206 100 -356 100q-123 0 -190.5 -75t-67.5 -201v-78h669v-1059h-176v930h-495v-930h-172v930h-144z" />
<glyph unicode="&#xfb02;" horiz-adv-x="1273" d="M55 930v129h144v76q0 190 122 302.5t312 112.5q120 0 215.5 -25t195.5 -71v-1149q0 -55 5.5 -91t25.5 -62.5t55 -26.5q58 0 148 68l82 -115q-44 -43 -111 -67.5t-139 -24.5q-117 0 -177.5 73.5t-60.5 204.5v1100q-114 49 -241 49q-122 0 -190 -74.5t-68 -201.5v-78h248 v-129h-250v-930h-172v930h-144z" />
</font>
</defs>
</svg>
