<?xml version="1.0" standalone="no"?>
<!DOCTYPE svg PUBLIC "-//W3C//DTD SVG 1.1//EN" "http://www.w3.org/Graphics/SVG/1.1/DTD/svg11.dtd" >
<svg xmlns="http://www.w3.org/2000/svg">
<metadata></metadata>
<defs>
<font id="sassoonroman_italic" horiz-adv-x="1175" >
<font-face units-per-em="2048" ascent="1638" descent="-410" />
<missing-glyph horiz-adv-x="606" />
<glyph horiz-adv-x="2048" />
<glyph horiz-adv-x="2048" />
<glyph unicode="&#xd;" horiz-adv-x="606" />
<glyph unicode=" "  horiz-adv-x="606" />
<glyph unicode="&#x09;" horiz-adv-x="606" />
<glyph unicode="&#xa0;" horiz-adv-x="606" />
<glyph unicode="!" horiz-adv-x="645" d="M211 94q0 -49 35 -84t84 -35t84 35t35 84t-35 84t-84 35t-84 -35t-35 -84zM272 375h144l82 1091h-193z" />
<glyph unicode="&#x22;" horiz-adv-x="681" d="M158 823h168v643h-168v-643zM451 823h167v643h-167v-643z" />
<glyph unicode="#" horiz-adv-x="1212" d="M125 449h205l-62 -449h144l61 449h252l-61 -449h143l61 449h222v131h-205l43 307h221v131h-205l62 448h-144l-61 -448h-252l61 448h-143l-61 -448h-222v-131h205l-43 -307h-221v-131zM489 580l43 307h252l-43 -307h-252z" />
<glyph unicode="$" horiz-adv-x="1212" d="M141 90q41 -20 91.5 -39.5t105.5 -36t110.5 -27t104.5 -12.5l-10 -188h106l10 188q78 12 152 35t132 67t93 113.5t35 174.5q0 88 -31.5 158.5t-83 128t-117 103.5t-134.5 83l28 497q94 -10 182.5 -40.5t171.5 -73.5l11 178q-80 49 -171 68.5t-186 23.5l9 166h-107 l-8 -166q-82 -6 -157 -26.5t-131 -62.5t-89 -107.5t-33 -159.5q0 -88 32 -157t84 -123t116.5 -97t130.5 -80l-27 -547q-111 6 -212 48t-199 93zM406 1135q0 76 55 135t166 65l-29 -446q-37 20 -71.5 44.5t-61.5 55.5t-43 67t-16 79zM668 131l26 498q41 -25 77 -50.5 t62.5 -57.5t42 -71.5t15.5 -93.5q0 -104 -62.5 -160.5t-160.5 -64.5z" />
<glyph unicode="%" horiz-adv-x="1933" d="M190 1077q0 -51 12.5 -114.5t46.5 -120t96.5 -94t164.5 -37.5q88 0 153.5 31.5t108.5 86t63.5 127t20.5 154.5q0 98 -25.5 170t-68.5 119t-100.5 69.5t-122.5 22.5q-84 0 -148.5 -35t-109.5 -92t-68 -132t-23 -155zM346 1096q0 49 11.5 97t35 85t59 59.5t83.5 22.5 q49 0 80.5 -22.5t51 -58.5t26.5 -79t7 -84q0 -76 -15 -128t-42 -85t-59.5 -47t-69.5 -14q-49 0 -82 20.5t-51.5 56t-26.5 82t-8 95.5zM498 -25h143l887 1516h-144zM1161 342q0 -51 12.5 -114.5t46 -120t96 -94.5t165.5 -38q88 0 153.5 32t108.5 86t63.5 127t20.5 155 q0 98 -25.5 169.5t-68.5 119t-100.5 70t-123.5 22.5q-84 0 -148.5 -35t-109.5 -92.5t-67.5 -132t-22.5 -154.5zM1317 360q0 49 11 97.5t34.5 85.5t59.5 59.5t83 22.5q49 0 81 -22.5t51.5 -58.5t26.5 -79t7 -84q0 -76 -15.5 -128t-42 -85t-59 -47.5t-69.5 -14.5 q-49 0 -82 20.5t-51.5 56.5t-26.5 82t-8 95z" />
<glyph unicode="&#x26;" horiz-adv-x="1517" d="M129 344q0 -74 25.5 -140.5t79 -117.5t133 -81t188.5 -30q145 0 262 59.5t225 141.5q37 -45 76 -90t82 -86h225q-25 23 -59.5 59.5t-70 77.5t-69.5 82t-57 72q63 66 134 147.5t133 175.5l-123 99q-55 -76 -121 -159t-125 -144q-145 178 -276 362q74 39 134 82t104 93 t68.5 109.5t24.5 131.5q0 59 -21.5 114.5t-66.5 97.5t-111.5 66.5t-156.5 24.5q-92 0 -161.5 -24.5t-116 -68.5t-69 -105.5t-22.5 -133.5q0 -92 42 -176t108 -168q-76 -35 -150.5 -78t-134 -99t-96.5 -128t-37 -166zM309 338q0 70 31 124t79 96t106.5 74t113.5 58l303 -391 q-29 -25 -65.5 -54.5t-84 -54t-106.5 -42t-131 -17.5q-43 0 -86 11.5t-79 37t-58.5 64.5t-22.5 94zM565 1165q0 49 18.5 84t47 56.5t63.5 32t68 10.5q37 0 71.5 -12.5t61.5 -35t43 -52t16 -66.5q0 -45 -20.5 -86t-55 -78t-80.5 -67.5t-96 -51.5q-53 61 -95 130.5t-42 135.5z " />
<glyph unicode="'" horiz-adv-x="454" d="M201 823h168v643h-168v-643z" />
<glyph unicode="(" horiz-adv-x="872" d="M328 639q0 -86 5 -175t22.5 -175t49 -164t85 -140.5t131 -105.5t186.5 -57l6 160q-98 10 -159.5 71.5t-97.5 148.5t-48 186t-12 185q0 63 5 151.5t20.5 186t42 192.5t70.5 174t107.5 131t151.5 62l10 162q-119 -18 -208 -70.5t-152.5 -130t-105.5 -175t-66.5 -202 t-33.5 -211t-9 -204.5z" />
<glyph unicode=")" horiz-adv-x="872" d="M10 -178q119 16 208 69.5t152.5 131t105.5 175t66.5 202t34 211t9.5 204.5q0 86 -5.5 175t-22.5 175t-49 164t-85 140.5t-131 105.5t-187 57l-6 -159q98 -10 160 -72t97.5 -149t48 -186t12.5 -185q0 -63 -5 -151.5t-20.5 -186t-42 -192.5t-70.5 -174t-107.5 -131 t-152.5 -62z" />
<glyph unicode="*" horiz-adv-x="948" d="M156 952l51 -114l274 149l-35 -299h132l6 299l250 -170l71 109l-280 153l299 138l-52 110l-278 -156l27 295h-132l7 -295l-256 175l-70 -105l274 -162z" />
<glyph unicode="+" horiz-adv-x="1228" d="M117 434h434v-434h168v434h434v168h-434v434h-168v-434h-434v-168z" />
<glyph unicode="," horiz-adv-x="645" d="M109 -346l65 -84q51 33 97 79t81 101t56.5 116.5t21.5 127.5q0 35 -8 73.5t-26.5 70.5t-47.5 53.5t-69 21.5q-53 0 -77 -26.5t-24 -57.5q0 -16 13.5 -38.5t29 -49.5t28.5 -58.5t13 -68.5q0 -53 -18.5 -96t-43 -76t-51 -55.5t-40.5 -32.5z" />
<glyph unicode="-" horiz-adv-x="645" d="M100 467h496l10 156h-495z" />
<glyph unicode="." horiz-adv-x="645" d="M193 94q0 -49 34.5 -84t83.5 -35t84 35t35 84t-35 84t-84 35t-83.5 -35t-34.5 -84z" />
<glyph unicode="/" horiz-adv-x="796" d="M119 -178h168l473 1798h-168z" />
<glyph unicode="0" horiz-adv-x="1212" d="M133 647q0 -131 19.5 -252t73 -214t144.5 -149.5t236 -56.5q170 0 277.5 84t168 212t83 279.5t22.5 287.5q0 104 -18.5 220t-68.5 212t-142 158.5t-240 62.5q-113 0 -197.5 -36t-147 -98.5t-102.5 -145.5t-64.5 -177t-34 -193.5t-9.5 -193.5zM313 616q0 147 21.5 279.5 t65.5 233t114 160t168 59.5q92 0 149.5 -50.5t90 -128t44 -171t11.5 -181.5q0 -74 -8 -153.5t-25.5 -157.5t-46.5 -147.5t-70 -123t-94 -85t-121 -31.5q-86 0 -143 43t-92 112.5t-49.5 158.5t-14.5 183z" />
<glyph unicode="1" horiz-adv-x="1212" d="M328 1204l80 -125q59 41 117.5 82t107.5 86l-66 -1247h168l80 1466h-135q-84 -72 -176 -139t-176 -123z" />
<glyph unicode="2" horiz-adv-x="1212" d="M133 0h930l6 156h-666v4q53 47 111.5 100t116 108.5t112 109.5t99.5 102q51 55 101 113.5t88 123t61.5 133t23.5 144.5q0 57 -19.5 126.5t-66.5 130t-128 100.5t-206 40q-197 0 -316.5 -97.5t-189.5 -273.5l150 -61q53 135 136 205.5t200 70.5q113 0 186.5 -63.5 t73.5 -179.5q0 -57 -22.5 -111.5t-57.5 -107t-78 -101.5t-84 -96q-45 -51 -111.5 -117.5t-141 -139.5t-153.5 -143.5t-149 -132.5z" />
<glyph unicode="3" horiz-adv-x="1212" d="M104 211q88 -121 211 -178.5t271 -57.5q102 0 190 29t152.5 85t101.5 138t37 189q0 139 -70.5 231t-199.5 119v4q127 39 198.5 140.5t71.5 228.5q0 76 -28.5 140t-81 111.5t-128 74t-167.5 26.5q-152 0 -259.5 -54.5t-203.5 -146.5l104 -129q35 33 72 64.5t79 56.5t90 39 t103 14q49 0 92 -14t76 -41t52.5 -65.5t19.5 -90.5q0 -49 -18.5 -100t-62.5 -92t-120 -66.5t-190 -25.5q-29 0 -62 3t-55 3l-6 -150h104q82 0 157 -13t131 -46t89 -88t33 -137q0 -123 -78 -202t-215 -79q-119 0 -205 52.5t-164 138.5z" />
<glyph unicode="4" horiz-adv-x="1212" d="M133 362h664l-21 -362h168l21 362h165l9 156h-166l33 594h-168l-33 -594h-467l596 948h-193l-600 -948z" />
<glyph unicode="5" horiz-adv-x="1212" d="M104 180q98 -104 208 -154.5t255 -50.5q113 0 207 38t163 106.5t107.5 163t38.5 206.5q0 104 -33.5 186.5t-91 139.5t-134 87t-162.5 30q-63 0 -132 -18.5t-110 -45.5l33 443h610l10 155h-770l-55 -745l141 -59q29 35 88.5 68.5t153.5 33.5q61 0 111.5 -21.5t86 -59.5 t55 -87t19.5 -104q0 -86 -28.5 -154t-75.5 -114t-106.5 -69.5t-121.5 -23.5q-104 0 -193 48t-161 120z" />
<glyph unicode="6" horiz-adv-x="1212" d="M166 485q0 -150 43 -248t109.5 -156t148.5 -82t162 -24q117 0 207 40t150.5 111t91 167t30.5 209q0 88 -23.5 163.5t-71.5 133t-122 90.5t-174 33q-78 0 -156 -24t-133 -64l-4 4q86 170 219 325.5t272 302.5h-213q-98 -98 -194 -208.5t-172 -233.5t-123 -257t-47 -282z M346 471q0 57 7 97t18 73q29 20 63.5 42t74.5 40t86 30.5t99 12.5q66 0 110 -23.5t71.5 -63.5t40 -92.5t12.5 -109.5q0 -63 -17.5 -126.5t-53.5 -115t-90 -84t-130 -32.5q-80 0 -135.5 28.5t-90 76.5t-50 111.5t-15.5 135.5z" />
<glyph unicode="7" horiz-adv-x="1212" d="M254 1311h682l-655 -1311h180l674 1331l8 135h-877z" />
<glyph unicode="8" horiz-adv-x="1212" d="M133 367q0 -193 129 -292.5t356 -99.5q125 0 219.5 32t157 88.5t93 132t30.5 161.5q0 76 -24.5 133.5t-66.5 102.5t-98.5 79.5t-119.5 63.5q61 27 115.5 65.5t95.5 89t65.5 109t24.5 123.5q0 160 -114.5 248t-313.5 88q-96 0 -181 -20.5t-148.5 -64.5t-101.5 -114 t-38 -168q0 -133 65.5 -220t192.5 -148q-70 -18 -131 -51t-107.5 -80t-73 -111.5t-26.5 -146.5zM313 369q0 66 22.5 110.5t63.5 79.5t97.5 63.5t121.5 59.5q57 -25 113.5 -53.5t103 -64.5t75 -82t28.5 -103q0 -68 -25.5 -117t-68.5 -80.5t-99.5 -47t-119.5 -15.5 q-59 0 -115.5 14t-99.5 44t-70 77t-27 115zM393 1137q0 57 23.5 98t63.5 65.5t89 36t103 11.5q47 0 93 -11.5t83 -36t59.5 -65.5t22.5 -98q0 -51 -23.5 -95.5t-63.5 -81t-90.5 -66.5t-103.5 -54q-51 29 -97 56.5t-82 61t-56.5 77t-20.5 102.5z" />
<glyph unicode="9" horiz-adv-x="1212" d="M176 971q0 -80 23.5 -156t71.5 -135t122 -95t174 -36q88 0 161 29.5t128 85.5l4 -5q-59 -170 -153.5 -334.5t-196.5 -324.5h188q70 104 142.5 235.5t132 271.5t97.5 280.5t38 261.5q0 125 -38 209.5t-99.5 136t-138 74t-152.5 22.5q-117 0 -211 -38t-158.5 -106.5 t-99.5 -165t-35 -210.5zM356 993q0 68 17.5 130.5t56.5 109.5t97.5 74.5t142.5 27.5q127 0 198.5 -75.5t71.5 -194.5q0 -76 -24.5 -141.5t-69.5 -114.5t-105.5 -76.5t-132.5 -27.5q-129 0 -190.5 81.5t-61.5 206.5z" />
<glyph unicode=":" horiz-adv-x="645" d="M193 94q0 -49 34.5 -84t83.5 -35t84 35t35 84t-35 84t-84 35t-83.5 -35t-34.5 -84zM240 700q0 -49 34.5 -83.5t83.5 -34.5t84 34.5t35 83.5t-34.5 84t-84.5 35q-49 0 -83.5 -35t-34.5 -84z" />
<glyph unicode=";" horiz-adv-x="645" d="M109 -346l65 -84q51 33 97 79t81 101t56.5 116.5t21.5 127.5q0 35 -8 73.5t-26.5 70.5t-47.5 53.5t-69 21.5q-53 0 -77 -26.5t-24 -57.5q0 -16 13.5 -38.5t29 -49.5t28.5 -58.5t13 -68.5q0 -53 -18.5 -96t-43 -76t-51 -55.5t-40.5 -32.5zM240 700q0 -49 34.5 -83.5 t83.5 -34.5t84 34.5t35 83.5t-34.5 84t-84.5 35q-49 0 -83.5 -35t-34.5 -84z" />
<glyph unicode="&#x3c;" horiz-adv-x="1228" d="M117 446l1036 -462v168l-823 366l823 367v168l-1036 -463v-144z" />
<glyph unicode="=" horiz-adv-x="1228" d="M117 221h1036v168h-1036v-168zM117 647h1036v168h-1036v-168z" />
<glyph unicode="&#x3e;" horiz-adv-x="1228" d="M117 -16l1036 462v144l-1036 463v-168l823 -367l-823 -366v-168z" />
<glyph unicode="?" horiz-adv-x="909" d="M182 1415l19 -162q53 29 117.5 55.5t148.5 26.5q111 0 173 -64.5t62 -172.5q0 -74 -26.5 -126t-69.5 -86t-98 -49.5t-113 -15.5q-29 0 -49 4l-22 -450h159l15 291q76 6 146.5 39.5t122.5 91t84 135.5t32 170q0 78 -28 148.5t-79 123.5t-123.5 85t-165.5 32 q-86 0 -165.5 -23.5t-139.5 -52.5zM270 94q0 -49 35 -84t84 -35t84 35t35 84t-35 84t-84 35t-84 -35t-35 -84z" />
<glyph unicode="@" horiz-adv-x="1638" d="M123 735q0 -162 59.5 -300t164 -240.5t245.5 -161t303 -58.5q195 0 359.5 90.5t267.5 253.5h-144q-88 -98 -213 -155.5t-262 -57.5q-133 0 -246.5 46.5t-197.5 129.5t-132 196.5t-48 248.5q0 131 45 247t124.5 202t191.5 135t245 49q115 0 216 -35t177 -101.5t120 -162.5 t44 -219q0 -80 -24.5 -155t-62.5 -132t-86 -92t-98 -35q-23 0 -32 12.5t-9 28.5q0 23 7.5 52.5t13.5 51.5l147 551h-143l-33 -118q-43 80 -104.5 114.5t-134.5 34.5q-102 0 -187.5 -47t-144.5 -124t-92 -173t-33 -197q0 -68 22.5 -128t63.5 -104t96.5 -70.5t120.5 -26.5 q68 0 129.5 36.5t99.5 84.5h5q8 -61 43.5 -91t85.5 -30q63 0 148 36.5t162 110.5t130 182.5t53 251.5q0 139 -57.5 254t-153.5 198t-223 128t-266 45q-158 0 -296 -58.5t-241.5 -161t-164 -240.5t-60.5 -296zM606 633q0 59 20.5 123.5t58.5 119t90 89t116 34.5q84 0 125 -55 t41 -129q0 -57 -21.5 -122.5t-60.5 -122t-91.5 -93.5t-113.5 -37q-74 0 -119 53.5t-45 139.5z" />
<glyph unicode="A" horiz-adv-x="1366" d="M25 0h180l215 481h577l164 -481h180l-483 1466h-174zM489 637l265 592l192 -592h-457z" />
<glyph unicode="B" horiz-adv-x="1327" d="M209 12q96 -10 225 -17t248 -7t217 24.5t168 76.5t107.5 133t37.5 192q0 152 -88 245t-243 109v4q57 18 105 52t82 79t53.5 100.5t19.5 114.5q0 186 -122 267t-345 81q-113 0 -218.5 -2t-170.5 -6zM387 145l29 533h102q266 0 390 -61.5t124 -202.5q0 -78 -30.5 -131.5 t-83 -87t-123 -49t-148.5 -15.5q-80 0 -144.5 4t-115.5 10zM424 821l27 494q35 4 77.5 6t89.5 2q164 0 253.5 -44t89.5 -161q0 -143 -94.5 -220t-286.5 -77h-156z" />
<glyph unicode="C" horiz-adv-x="1366" d="M209 690q0 -346 149.5 -530.5t421.5 -184.5q147 0 280.5 64.5t223.5 185.5l-108 117q-31 -33 -68 -69.5t-83 -68.5t-103.5 -52.5t-124.5 -20.5q-119 0 -197 50t-125 130t-66.5 180.5t-19.5 198.5q0 129 31 247t90 206t146 140t198 52q121 0 203 -55t143 -154l137 82 q-59 133 -180 208t-289 75q-166 0 -289.5 -68.5t-205.5 -181.5t-123 -257t-41 -294z" />
<glyph unicode="D" horiz-adv-x="1478" d="M219 12q39 -6 87 -11t100.5 -8t103.5 -4t94 -1q160 0 299 51t242.5 151.5t162 250t58.5 345.5q0 215 -70.5 348.5t-178 207t-233.5 99t-239 25.5q-104 0 -200.5 -3t-147.5 -5zM395 152l64 1155q37 2 81 3t109 1q123 0 222.5 -31t169 -97.5t107.5 -170t38 -246.5 q0 -139 -41 -253t-117 -197t-183.5 -128t-240.5 -45q-27 0 -59.5 1t-63 2t-54.5 3.5t-32 2.5z" />
<glyph unicode="E" horiz-adv-x="1138" d="M219 0h797l6 156h-625l27 510h563l6 155h-561l29 490h618l6 155h-784z" />
<glyph unicode="F" horiz-adv-x="1138" d="M219 0h168l37 666h563l6 155h-561l29 490h618l6 155h-784z" />
<glyph unicode="G" horiz-adv-x="1441" d="M170 672q0 -166 37 -296t105.5 -219t165.5 -135.5t218 -46.5q123 0 230.5 43t183.5 148l4 -4l-10 -162h156l53 821h-441l-10 -155h271l-7 -113q-4 -76 -28.5 -151.5t-72.5 -135t-123 -97.5t-177 -38q-111 0 -182.5 50t-114.5 128t-60.5 172t-17.5 183q0 156 36 279.5 t100.5 210.5t153.5 134t198 47q233 0 346 -176l129 98q-18 29 -51 69t-87.5 77t-130 62.5t-180.5 25.5q-176 0 -306 -67.5t-216 -180.5t-129 -261t-43 -310z" />
<glyph unicode="H" horiz-adv-x="1478" d="M209 0h168l37 666h725l-37 -666h168l82 1466h-168l-37 -645h-725l37 645h-168z" />
<glyph unicode="I" horiz-adv-x="606" d="M219 0h168l82 1466h-168z" />
<glyph unicode="J" horiz-adv-x="985" d="M61 332q0 -92 28 -159t76 -111t110.5 -65.5t134.5 -21.5q106 0 177.5 37t114.5 98.5t63.5 140.5t25.5 163l57 1052h-168l-57 -1013q-4 -72 -14.5 -133.5t-33 -105.5t-61.5 -69.5t-98 -25.5q-55 0 -91 22.5t-57.5 57t-30 73.5t-8.5 74q0 53 7 76h-168q-4 -23 -5.5 -48.5 t-1.5 -41.5z" />
<glyph unicode="K" horiz-adv-x="1251" d="M209 0h168l39 678l598 -678h237l-667 768l678 698h-226l-612 -641l35 641h-168z" />
<glyph unicode="L" horiz-adv-x="1138" d="M219 0h801l6 156h-618l73 1310h-180z" />
<glyph unicode="M" horiz-adv-x="1703" d="M209 0h168l65 1200h4l349 -586h143l451 586h4l-66 -1200h168l82 1466h-180l-516 -659l-410 659h-180z" />
<glyph unicode="N" horiz-adv-x="1515" d="M209 0h168l55 1188h4l690 -1188h181l82 1466h-168l-58 -1187h-4l-688 1187h-180z" />
<glyph unicode="O" horiz-adv-x="1554" d="M209 692q0 -188 45 -323.5t124 -223.5t184.5 -129t225.5 -41q168 0 288 67t198 176.5t114.5 249.5t36.5 290q0 197 -45 336t-123.5 227t-184 129t-226.5 41q-168 0 -288 -64.5t-197.5 -175t-114.5 -255t-37 -304.5zM389 692q0 168 36 290t97.5 200t144.5 115.5t179 37.5 q117 0 193.5 -53t122.5 -137t64.5 -186.5t18.5 -200.5q0 -109 -23.5 -219.5t-77.5 -201.5t-141.5 -148.5t-214.5 -57.5q-109 0 -184.5 45t-123.5 122t-69.5 178t-21.5 216z" />
<glyph unicode="P" horiz-adv-x="1251" d="M219 0h168l39 672q59 -4 117.5 -5t138.5 -1q82 0 169 21.5t159.5 67.5t120 120.5t47.5 181.5q0 82 -22.5 144.5t-58.5 106.5t-80 72.5t-85 44.5q-47 16 -125 28.5t-207 12.5q-29 0 -68.5 -1t-80.5 -2t-81 -3t-69 -2zM436 831l27 486q35 2 75 4t89 2q51 0 115.5 -10 t122 -38t95 -78t37.5 -130q0 -66 -29.5 -112t-78.5 -75.5t-114.5 -44t-135.5 -14.5q-66 0 -117 3t-86 7z" />
<glyph unicode="Q" horiz-adv-x="1554" d="M209 692q0 -188 45 -323.5t124 -223.5t184.5 -129t225.5 -41q141 0 252 50l181 -220l122 99l-169 205q131 111 191 283.5t60 365.5q0 197 -45 336t-123.5 227t-184 129t-226.5 41q-168 0 -288 -64.5t-197.5 -175t-114.5 -255t-37 -304.5zM389 692q0 168 36 290t97.5 200 t144.5 115.5t179 37.5q117 0 193.5 -53t122.5 -137t64.5 -186.5t18.5 -200.5q0 -70 -9 -142.5t-30.5 -141t-55.5 -129t-83 -105.5l-129 155l-123 -98l117 -141q-66 -25 -144 -25q-109 0 -184.5 45t-123.5 122t-69.5 178.5t-21.5 215.5z" />
<glyph unicode="R" horiz-adv-x="1251" d="M219 0h168l39 688l547 -688h225l-551 668q106 0 200.5 21.5t163 70.5t108.5 129t40 196q0 115 -56 197t-138 125q-29 14 -62 25.5t-76 19.5t-98 11t-131 3q-29 0 -72 -1l-86 -2t-80.5 -3t-58.5 -2zM434 817l27 486q25 2 64.5 5t105.5 3q55 0 116.5 -9.5t112.5 -35 t85 -73.5t34 -126q0 -68 -30.5 -116t-81 -79.5t-115 -46t-131.5 -14.5q-23 0 -49.5 1t-52 2t-48 2t-37.5 1z" />
<glyph unicode="S" horiz-adv-x="1138" d="M125 86q115 -61 217 -86t229 -25q88 0 167 27t138.5 79t94.5 127t35 173q0 129 -61.5 212t-164.5 155l-190 133q-37 25 -72 53.5t-62.5 61t-44 69.5t-16.5 80q0 33 15.5 67.5t46 61t77 44t109.5 17.5q102 0 196.5 -34.5t186.5 -81.5l12 182q-18 8 -60 23.5t-94.5 30.5 t-110.5 25.5t-111 10.5q-84 0 -165 -21.5t-143.5 -66.5t-100.5 -112.5t-38 -160.5q0 -121 60.5 -211t152.5 -155l236 -168q33 -23 61.5 -47.5t51 -52t35.5 -62.5t13 -78q0 -61 -26.5 -104t-67.5 -69.5t-88 -39t-90 -12.5q-113 0 -219.5 40t-200.5 93z" />
<glyph unicode="T" d="M154 1311h417l-67 -1311h180l68 1311h417l9 155h-1016z" />
<glyph unicode="U" horiz-adv-x="1478" d="M240 518q0 -92 20.5 -188.5t75.5 -175t151.5 -129t245.5 -50.5q180 0 299 61.5t191 209.5q39 78 58 203.5t28 261.5l43 755h-181l-43 -827q-6 -100 -24.5 -192.5t-60.5 -162t-112.5 -111.5t-178.5 -42q-100 0 -165 35t-101.5 91t-51 128t-14.5 147q0 78 4 158t8 158 l39 618h-180l-39 -600q-12 -176 -12 -348z" />
<glyph unicode="V" horiz-adv-x="1366" d="M152 1466l444 -1466h125l653 1466h-180l-514 -1151l-348 1151h-180z" />
<glyph unicode="W" horiz-adv-x="2009" d="M152 1466l327 -1466h144l432 1153h4l280 -1153h168l510 1466h-180l-393 -1171h-4l-279 1171h-155l-428 -1134h-5l-241 1134h-180z" />
<glyph unicode="X" horiz-adv-x="1290" d="M53 0h213l418 594l340 -594h213l-436 743l518 723h-213l-406 -579l-331 579h-205l424 -723z" />
<glyph unicode="Y" horiz-adv-x="1214" d="M137 1466l426 -786l-37 -680h168l37 680l512 786h-192l-392 -628l-329 628h-193z" />
<glyph unicode="Z" horiz-adv-x="1138" d="M63 0h1012l8 156h-778l830 1167l8 143h-979l-8 -155h753l-837 -1174z" />
<glyph unicode="[" horiz-adv-x="872" d="M334 -178h454l9 131h-293l88 1548h291l8 131h-455z" />
<glyph unicode="\" horiz-adv-x="796" d="M180 1620l330 -1798h168l-330 1798h-168z" />
<glyph unicode="]" horiz-adv-x="872" d="M23 -178h454l103 1810h-455l-8 -131h293l-88 -1548h-291z" />
<glyph unicode="^" horiz-adv-x="1228" d="M160 618h168l329 668l330 -668h168l-422 848h-155z" />
<glyph unicode="_" horiz-adv-x="1024" d="M0 -154v-102h1024v102h-1024z" />
<glyph unicode="`" horiz-adv-x="569" d="M33 1534l291 -295h131l-168 295h-254z" />
<glyph unicode="a" d="M139 416q0 -92 21.5 -172t67.5 -139.5t118 -94.5t174 -35q98 0 181 50.5t139 136.5q12 -84 60 -135.5t128 -51.5q47 0 79 13.5t67 36.5v125q-23 -12 -45.5 -21.5t-47.5 -9.5q-47 0 -65.5 45t-18.5 151q0 49 5.5 133t11.5 180.5t12 197t10 184.5q-68 27 -149.5 41 t-155.5 14q-145 0 -255.5 -49t-185.5 -137t-113 -207t-38 -256zM307 418q0 90 23.5 178t72 157.5t123 112.5t179.5 43q41 0 85 -8t78 -18l-14 -279q-6 -135 -38 -226t-76 -146.5t-98 -78t-107 -22.5q-61 0 -104.5 24.5t-71 64.5t-40 92.5t-12.5 105.5z" />
<glyph unicode="b" d="M182 74q82 -45 183.5 -72t195.5 -27q131 0 230.5 50.5t164 136.5t97 199.5t32.5 240.5q0 102 -19 187t-62 146.5t-112 95.5t-169 34q-104 0 -182 -41t-144 -125l-4 4l43 717h-168zM348 172l19 283q6 94 29.5 177t66.5 144.5t104.5 97t141.5 35.5q59 0 99 -24.5 t64.5 -65.5t35 -95t10.5 -116q0 -111 -27 -201t-74 -154.5t-111.5 -99t-142.5 -34.5q-86 0 -131 15.5t-84 37.5z" />
<glyph unicode="c" horiz-adv-x="948" d="M139 440q0 -123 34 -210t90 -144t132 -84t160 -27q78 0 164 19.5t147 56.5l13 176q-66 -47 -143 -77.5t-154 -30.5q-74 0 -124 28.5t-81 75.5t-44.5 108.5t-13.5 127.5q0 84 21.5 165t67 144t114 102t162.5 39q57 0 112.5 -13t106.5 -36l10 160q-63 29 -129.5 37 t-121.5 8q-133 0 -231.5 -55.5t-163 -144.5t-96.5 -200.5t-32 -224.5z" />
<glyph unicode="d" horiz-adv-x="1214" d="M139 422q0 -125 33 -211t85 -138.5t116.5 -75t130.5 -22.5q61 0 108 11.5t86 34t73 58.5t69 83q12 -90 60 -138.5t128 -48.5q39 0 77 17.5t69 40.5v119q-25 -14 -47.5 -23.5t-45.5 -9.5q-41 0 -59 29.5t-18 103.5q0 127 7 231.5t13 216.5l49 920h-164l-32 -594 q-55 20 -104.5 29.5t-108.5 9.5q-131 0 -229.5 -57.5t-164 -149.5t-98.5 -206.5t-33 -229.5zM319 416q0 66 16.5 150.5t58.5 161.5t111.5 129t174.5 52q49 0 95 -8t91 -24l-18 -287q-6 -86 -25.5 -169t-57.5 -147.5t-96.5 -103.5t-142.5 -39q-57 0 -96 25.5t-63.5 66.5 t-36 91.5t-11.5 101.5z" />
<glyph unicode="e" horiz-adv-x="1024" d="M139 440q0 -123 34 -210t90 -144t132 -84t160 -27t163 22.5t144 72.5l6 155q-70 -43 -138 -74.5t-146 -31.5q-66 0 -117 24.5t-86 66.5t-54.5 97t-19.5 117q29 -4 60.5 -6t72.5 -2q98 0 191.5 23.5t166 68.5t116.5 112.5t44 155.5q0 127 -80.5 208t-234.5 81 q-127 0 -221 -55.5t-156.5 -144.5t-94.5 -200.5t-32 -224.5zM313 563q6 51 31 114.5t67 117t99 90.5t127 37q61 0 107.5 -40t46.5 -110q0 -39 -20.5 -77t-62.5 -68.5t-107.5 -49t-156.5 -18.5q-33 0 -65.5 1t-65.5 3z" />
<glyph unicode="f" horiz-adv-x="681" d="M-147 -526q29 -6 69.5 -14.5t81.5 -8.5q111 0 201 57.5t139 161.5q47 100 62.5 211t25.5 221q6 76 12.5 172.5t10.5 202t8 214t6 206.5h203l8 143h-211v27v17q0 185 43 286q45 107 160 107q78 0 139 -35l18 153q-14 8 -27.5 14.5t-31.5 11.5t-44 8t-62 3q-96 0 -165 -38 t-113 -105.5t-64.5 -160.5t-20.5 -202v-86h-156l-8 -143h164q-2 -113 -5 -240t-7 -248.5t-10.5 -231t-14.5 -185.5q-8 -74 -23.5 -145.5t-45 -128t-79.5 -90.5t-130 -34q-25 0 -60 4.5t-63 10.5z" />
<glyph unicode="g" d="M139 395q0 -133 40 -215t97.5 -128t122 -61.5t113.5 -15.5q63 0 114.5 17.5t91.5 42t69.5 53.5t48.5 51l4 -4l-9 -166q-4 -72 -24.5 -138.5t-61 -119.5t-104 -85t-156.5 -32q-53 0 -114.5 18.5t-102.5 35.5l-6 -152q61 -23 127 -34t131 -11q137 0 250 71.5t168 209.5 q18 43 28.5 92t17.5 109.5t11 133t9 164.5l40 789q-53 14 -136 29.5t-169 15.5q-145 0 -256.5 -52t-188.5 -142.5t-116 -212t-39 -263.5zM319 418q0 94 26 183t76 157.5t126 109.5t176 41q51 0 84 -6t72 -16l-21 -312q-6 -80 -22.5 -159.5t-53.5 -143t-97 -102.5t-153 -39 q-61 0 -102 22.5t-65.5 61.5t-35 91t-10.5 112z" />
<glyph unicode="h" horiz-adv-x="1214" d="M193 0h155l21 395q8 141 44 237.5t84 155t102 84t97 25.5q84 0 121 -54.5t37 -140.5q0 -20 -4 -86.5t-9 -145.5t-9.5 -154.5t-4.5 -114.5q0 -98 47.5 -162t143.5 -64q39 0 84 17.5t82 40.5l6 123q-23 -14 -49.5 -25.5t-59.5 -11.5q-41 0 -63.5 27.5t-22.5 93.5 q0 57 4.5 125.5t9.5 138t9 134t4 114.5q0 59 -18.5 115.5t-55.5 100.5t-93 70.5t-132 26.5q-51 0 -99.5 -17.5t-90 -44t-73.5 -59.5t-50 -61h-4l40 737h-155z" />
<glyph unicode="i" horiz-adv-x="569" d="M190 211q0 -98 42 -167t145 -69q92 0 170 54l8 131q-29 -14 -56.5 -27.5t-64.5 -13.5q-39 0 -57.5 30.5t-18.5 77.5q0 29 4.5 114t10.5 198.5t14 246t14 254.5h-168q-4 -117 -11 -250t-14 -251.5t-12.5 -207.5t-5.5 -120zM233 1360q0 -45 31 -76t76 -31t75.5 31t30.5 76 t-30.5 75.5t-75.5 30.5t-76 -30.5t-31 -75.5z" />
<glyph unicode="j" horiz-adv-x="530" d="M-176 -528q29 -10 65.5 -15.5t75.5 -5.5q102 0 172 33t113 89t64.5 131t25.5 161l61 1175h-168l-49 -1044q-6 -115 -21.5 -192.5t-42 -124t-66.5 -66t-93 -19.5q-41 0 -70.5 6.5t-58.5 14.5zM233 1360q0 -45 31 -76t76 -31t75.5 31t30.5 76t-30.5 75.5t-75.5 30.5 t-76 -30.5t-31 -75.5z" />
<glyph unicode="k" horiz-adv-x="1099" d="M186 0h162l27 543h4l305 -443q51 -72 95 -98.5t91 -26.5q45 0 86 17.5t80 40.5l6 131q-23 -16 -51 -30.5t-57 -14.5q-27 0 -49.5 14t-43 37t-38 47.5t-31.5 46.5l-225 330l514 446h-248l-430 -387l53 967h-162z" />
<glyph unicode="l" horiz-adv-x="569" d="M190 207q0 -111 44.5 -171.5t140.5 -60.5q86 0 162 48l8 124q-57 -41 -111 -41q-47 0 -67.5 39t-20.5 117q0 37 3 115t9.5 184.5t13.5 235.5t14 267t15.5 280.5t14.5 275.5h-156q-6 -125 -13 -265.5t-15.5 -280.5t-15.5 -274t-13 -250t-9.5 -205t-3.5 -138z" />
<glyph unicode="m" horiz-adv-x="1781" d="M186 0h162l33 514q8 119 42 195.5t79 122t93 61.5t83 16q63 0 109.5 -43t46.5 -143q0 -35 -4.5 -102.5t-10.5 -161.5t-12 -211t-10 -248h161l37 571q2 51 18.5 109.5t48.5 110t81 85t121 33.5q82 0 119.5 -61.5t37.5 -145.5q0 -20 -4 -86.5t-9 -145.5t-9 -154.5 t-4 -114.5q0 -98 47 -162t143 -64q39 0 84 17.5t82 40.5l6 123q-23 -14 -49.5 -25.5t-58.5 -11.5q-41 0 -63.5 27.5t-22.5 93.5q0 57 4 125.5t9 138t9 134t4 114.5q0 59 -18.5 115.5t-55 100.5t-93 70.5t-132.5 26.5q-113 0 -190.5 -52t-124.5 -124q-29 76 -98.5 126 t-169.5 50q-96 0 -178.5 -48t-135.5 -128h-4q-4 47 -10 86l-10 65h-162q8 -47 13 -100t5 -137q0 -55 -4 -149.5t-9 -206t-12 -229.5t-14 -218z" />
<glyph unicode="n" horiz-adv-x="1214" d="M186 0h162l21 395q8 141 44 237.5t84 155t102 84t97 25.5q84 0 121 -54.5t37 -140.5q0 -20 -4 -86.5t-9 -145.5t-9.5 -154.5t-4.5 -114.5q0 -98 47.5 -162t143.5 -64q39 0 84 17.5t82 40.5l6 123q-23 -14 -49.5 -25.5t-59.5 -11.5q-41 0 -63.5 27.5t-22.5 93.5 q0 57 4.5 125.5t9.5 138t9 134t4 114.5q0 59 -18.5 115.5t-55.5 100.5t-93 70.5t-132 26.5q-49 0 -98.5 -17.5t-92.5 -46t-78.5 -65.5t-56.5 -76h-4q-6 59 -13 109.5t-11 70.5h-162q8 -47 13 -100t5 -137q0 -55 -4 -149.5t-9 -206t-12 -229.5t-14 -218z" />
<glyph unicode="o" d="M156 477q0 -236 110.5 -369t339.5 -133q123 0 211 48.5t144.5 128t83 182t26.5 209.5q0 244 -109.5 383t-320.5 139q-125 0 -216 -49t-151.5 -130t-89 -187.5t-28.5 -221.5zM324 477q0 207 84 326t225 119q78 0 130 -31t83 -83t44 -121t13 -144q0 -70 -14.5 -144.5 t-48 -137t-92 -102.5t-146.5 -40q-78 0 -131 30.5t-86 81t-47 114.5t-14 132z" />
<glyph unicode="p" d="M147 -537h168l33 600q47 -37 106.5 -62.5t141.5 -25.5q119 0 210 52.5t153.5 138.5t94 199.5t31.5 236.5q0 102 -19 187t-62 146.5t-112 95.5t-169 34q-104 0 -183 -43t-155 -135q-2 47 -9 87t-16 66h-167q12 -43 22 -99t10 -116q0 -29 -2 -80t-6 -111.5t-8 -121.5 t-6 -111zM358 225l23 275q6 78 28.5 151.5t62.5 131t98.5 92t138.5 34.5q59 0 99 -24.5t64.5 -65.5t35 -95t10.5 -116q0 -111 -27 -201t-74 -154.5t-111.5 -99t-142.5 -34.5q-74 0 -122 30.5t-83 75.5z" />
<glyph unicode="q" d="M139 393q0 -111 30 -189.5t81 -128.5t118.5 -75t141.5 -25q115 0 193.5 47.5t132.5 114.5l4 -4l-39 -670h162l81 1557q-76 23 -149.5 34t-171.5 11q-135 0 -242.5 -47t-183.5 -135t-117 -212t-41 -278zM319 434q0 98 26 184.5t76 151t125 102t175 37.5q53 0 94 -4t64 -8 l-19 -313q-6 -86 -26.5 -168t-60.5 -145.5t-97.5 -101.5t-136.5 -38q-66 0 -109 23.5t-67.5 64.5t-34 96.5t-9.5 118.5z" />
<glyph unicode="r" horiz-adv-x="833" d="M205 0h155l27 444q6 92 27.5 181.5t95.5 167.5q49 53 101.5 84.5t111.5 31.5q23 0 47.5 -4t46.5 -12l17 147q-35 10 -69 17.5t-73 7.5q-59 0 -105 -24.5t-81 -62.5t-60.5 -82t-42.5 -83l-4 4q0 63 -3 119.5t-15 103.5h-156q8 -47 13.5 -100t5.5 -137q0 -55 -4 -149.5 t-9.5 -206t-12.5 -229.5t-13 -218z" />
<glyph unicode="s" horiz-adv-x="909" d="M129 57q53 -37 138 -59.5t196 -22.5q68 0 127 18.5t105 55.5t73 93.5t27 131.5q0 90 -52.5 160t-126.5 119l-176 117q-43 29 -64.5 56.5t-21.5 68.5q0 47 38 87t126 40q72 0 137.5 -22.5t130.5 -51.5l15 149q-66 29 -130.5 48.5t-146.5 19.5q-61 0 -121.5 -16.5 t-108.5 -50t-78 -88t-30 -128.5q0 -84 41 -143t131 -121l187 -129q35 -23 58.5 -54.5t23.5 -72.5q0 -23 -8.5 -48.5t-30 -47t-56 -34.5t-90.5 -13q-104 0 -179 28.5t-128 75.5z" />
<glyph unicode="t" horiz-adv-x="757" d="M156 897h127q-4 -70 -10.5 -163t-12.5 -188t-10 -181t-4 -140q0 -111 60.5 -180.5t195.5 -69.5q59 0 108 12.5t103 43.5l10 157q-45 -31 -97.5 -50t-84.5 -19q-72 0 -99.5 41t-27.5 110q0 45 4 135.5t10 188.5t12 183t11 120h297l6 143h-295l22 320h-168l-22 -320h-127z " />
<glyph unicode="u" horiz-adv-x="1214" d="M205 291q0 -137 76.5 -226.5t240.5 -89.5q109 0 185.5 51.5t130.5 129.5h4q2 -57 20.5 -93t44 -55.5t53 -26t50.5 -6.5q47 0 91 15.5t83 42.5l6 123q-23 -16 -52.5 -26.5t-58.5 -10.5q-41 0 -62.5 27.5t-21.5 91.5q0 31 2 80t7 112l34 610h-159l-27 -442 q-8 -135 -40 -227t-77 -148.5t-99 -80t-108 -23.5q-66 0 -110.5 50t-44.5 144q0 63 5 149.5t10 167.5t10 146.5t5 87.5q0 53 -4 98.5t-8 77.5h-168q4 -39 8.5 -86t4.5 -90q0 -68 -5.5 -153.5t-10.5 -166.5t-10 -149.5t-5 -103.5z" />
<glyph unicode="v" horiz-adv-x="1099" d="M121 1040l264 -915q10 -35 19.5 -62.5t25.5 -47t43 -30t70 -10.5q37 0 63.5 13.5t47 40t39 67.5t40.5 97l352 847h-180l-360 -884h-4l-246 884h-174z" />
<glyph unicode="w" horiz-adv-x="1669" d="M145 1040l230 -940q18 -76 43.5 -100.5t87.5 -24.5q31 0 51.5 6.5t35.5 19.5t27.5 37.5t24.5 61.5l225 635h4l152 -635q8 -33 15.5 -56.5t20.5 -38.5t36.5 -22.5t62.5 -7.5q33 0 53.5 6.5t34 20.5t22.5 33.5t19 48.5l350 956h-180l-293 -864h-4l-209 864h-137l-299 -864 h-4l-207 864h-162z" />
<glyph unicode="x" horiz-adv-x="1062" d="M72 0h200l287 403l238 -403h196l-329 543l362 497h-207l-244 -358l-210 358h-193l297 -497z" />
<glyph unicode="y" d="M205 295q0 -170 85 -245t218 -75q100 0 176 42t137 114l4 -4q-2 -88 -10 -182.5t-42 -172t-104.5 -128t-195.5 -50.5q-41 0 -100.5 10.5t-106.5 26.5l-10 -145q57 -18 123.5 -26.5t103.5 -8.5q133 0 225.5 38t151 108.5t87 171t34.5 227.5l53 1044h-162l-20 -409 q-6 -135 -25.5 -216t-54.5 -134q-29 -43 -61.5 -74t-66.5 -50.5t-64.5 -28.5t-55.5 -9q-86 0 -125 49t-39 133q0 68 4.5 151t10.5 163.5t10 152.5t4 119t-1 84t-9 69h-156q4 -25 7 -56.5t3 -57.5q0 -123 -14 -287t-14 -344z" />
<glyph unicode="z" horiz-adv-x="985" d="M102 0h643q33 0 72 2t70 10l10 144q-25 -8 -63.5 -10.5t-79.5 -2.5h-443l611 770l6 127h-727l-6 -143h499l-585 -754z" />
<glyph unicode="{" horiz-adv-x="872" d="M207 662q63 0 112.5 -41t49.5 -138q0 -27 -3.5 -86t-7.5 -125.5t-7 -128t-3 -90.5q0 -109 49 -170t154 -61h147l7 131h-103q-47 0 -70.5 30.5t-23.5 73.5q0 20 3 78t7 125.5t7 130t3 90.5q0 68 -15 112t-39.5 71.5t-53.5 41t-55 19.5l2 4q18 4 48.5 20.5t61.5 50.5 t55.5 89t30.5 139l23 346q4 57 26.5 92t79.5 35h94l7 131h-129q-57 0 -101.5 -15t-75 -51t-48 -96.5t-23.5 -150.5l-19 -326q-2 -47 -19.5 -84t-44 -62.5t-58 -39.5t-62.5 -14z" />
<glyph unicode="|" horiz-adv-x="454" d="M184 0h168v1620h-168v-1620z" />
<glyph unicode="}" horiz-adv-x="872" d="M119 -178h129q57 0 101 15.5t75 51t48 96t24 150.5l18 326q2 45 19.5 83t43 63.5t58.5 40t63 14.5l7 131q-63 0 -112.5 40.5t-49.5 137.5q0 27 3 86t7 125.5t7 128t3 90.5q0 109 -49 170t-154 61h-147l-6 -131h102q47 0 70.5 -30.5t23.5 -73.5q0 -20 -3 -77.5t-7 -125.5 t-7 -130.5t-3 -90.5q0 -68 15.5 -112t40 -71.5t53 -41t55.5 -19.5l-2 -4q-18 -4 -49 -20.5t-62 -50t-55.5 -90t-30.5 -138.5l-22 -346q-4 -57 -27 -92t-80 -35h-94z" />
<glyph unicode="~" horiz-adv-x="1228" d="M164 489l74 -127q18 27 36.5 53.5t40 47t47 34t56.5 13.5q41 0 96 -24.5t113 -49.5q59 -27 116.5 -46t110.5 -19q51 0 91 15t71 40t54.5 56.5t39.5 64.5l-74 127q-18 -27 -36.5 -53.5t-40 -47t-47 -34t-56.5 -13.5q-41 0 -96 24.5t-113 49.5q-59 27 -116.5 46.5 t-110.5 19.5q-51 0 -91 -15.5t-71 -40t-54.5 -56.5t-39.5 -65z" />
<glyph unicode="&#xa1;" horiz-adv-x="645" d="M199 -512h192l33 1092h-143zM248 860q0 -49 34.5 -84t84.5 -35q49 0 83.5 35t34.5 84t-34.5 84t-83.5 35t-84 -35t-35 -84z" />
<glyph unicode="&#xa2;" horiz-adv-x="1212" d="M244 440q0 -156 53 -255t139 -152l-65 -185l98 -41l66 185q61 -16 124 -17q78 0 164 19.5t148 56.5l12 176q-66 -47 -142.5 -77.5t-154.5 -30.5q-55 0 -100 18l274 770q39 -10 83 -25.5t93 -43.5l8 174q-35 16 -69.5 25.5t-63.5 13.5l45 125l-98 41l-55 -152 q-141 0 -245.5 -50t-174.5 -136t-104.5 -200t-34.5 -239zM424 459q0 80 19.5 155.5t59.5 138t101.5 104.5t145.5 52l-252 -704q-41 47 -57.5 114.5t-16.5 139.5z" />
<glyph unicode="&#xa3;" horiz-adv-x="1212" d="M125 0h979l10 156h-760q41 39 78 93t65.5 114.5t51 121t37.5 109.5h362l6 143h-338q14 63 27.5 145.5t24.5 141.5q29 147 85 229t175 82q72 0 132 -35.5t114 -80.5l12 190q-31 20 -101.5 51t-169.5 31q-125 0 -226 -71.5t-148 -188.5q-12 -31 -24.5 -87.5t-25 -125 t-23.5 -143t-19 -138.5h-218l-10 -143h197q-31 -92 -57.5 -159.5t-57.5 -121t-72 -96.5t-98 -86z" />
<glyph unicode="&#xa4;" horiz-adv-x="1212" d="M106 313l101 -100l115 115q66 -49 142.5 -76t162.5 -27t162.5 27t142.5 76l112 -115l103 100l-115 117q47 61 75 139t28 164t-27 162t-76 141l115 115l-103 100l-112 -114q-66 49 -142.5 76.5t-162.5 27.5t-164 -27.5t-141 -76.5l-115 114l-101 -100l115 -115 q-49 -66 -75.5 -141.5t-26.5 -161.5t27.5 -162.5t74.5 -140.5zM287 733q0 74 26.5 137.5t72.5 111.5t107.5 75.5t133.5 27.5q70 0 132 -27.5t108 -75.5t73 -111.5t27 -137.5t-27 -137.5t-73 -111.5t-108.5 -75.5t-131.5 -27.5q-72 0 -133.5 27.5t-107.5 75.5t-72.5 111.5 t-26.5 137.5z" />
<glyph unicode="&#xa5;" horiz-adv-x="1212" d="M176 1466l385 -786l-37 -680h168l37 680l471 786h-192l-351 -628l-288 628h-193zM219 451h821l7 118h-822zM238 719h821l6 119h-821z" />
<glyph unicode="&#xa6;" horiz-adv-x="454" d="M184 0h168v563h-168v-563zM184 1057h168v563h-168v-563z" />
<glyph unicode="&#xa7;" horiz-adv-x="1214" d="M100 -256q104 -57 218 -92t237 -35q80 0 161 22.5t144.5 67.5t103.5 112.5t40 160.5q0 86 -43 157.5t-113 118.5q106 47 174 124t68 200q0 115 -73 198.5t-239 130.5l-123 35q-63 18 -105 41t-67.5 49.5t-36 55t-10.5 57.5q0 74 61.5 131t194.5 57q96 0 185.5 -33.5 t173.5 -84.5l79 147q-94 55 -198.5 91t-226.5 36q-80 0 -159 -18.5t-140.5 -59.5t-99.5 -104.5t-38 -155.5q0 -94 46 -163.5t124 -119.5q-117 -27 -185.5 -108.5t-68.5 -204.5q0 -74 23.5 -125t62.5 -88t89.5 -60.5t101.5 -39.5l192 -62q72 -23 127.5 -74t55.5 -124 q0 -86 -70 -148.5t-213 -62.5q-104 0 -198.5 37.5t-186.5 85.5zM352 571q0 55 23.5 93t60.5 63t84 36t94 11q57 0 112.5 -13t98.5 -40t70 -66t27 -90q0 -33 -14.5 -69.5t-45.5 -67.5t-79 -50.5t-117 -19.5q-51 0 -106.5 9.5t-101.5 34t-76 65.5t-30 104z" />
<glyph unicode="&#xa8;" horiz-adv-x="569" d="M33 1360q0 -45 30.5 -76t75.5 -31t76 31t31 76t-31 75.5t-76 30.5t-75.5 -30.5t-30.5 -75.5zM436 1360q0 -45 31 -76t76 -31t75.5 31t30.5 76t-30.5 75.5t-75.5 30.5t-76 -30.5t-31 -75.5z" />
<glyph unicode="&#xa9;" horiz-adv-x="1638" d="M102 733q0 -168 61.5 -307t166 -239.5t242 -156t288.5 -55.5q152 0 289 55.5t241.5 156t166 239.5t61.5 307t-61.5 307.5t-166 239.5t-241.5 155.5t-289 55.5t-289 -55.5t-241.5 -155.5t-166 -239.5t-61.5 -307.5zM246 733q0 127 48 239.5t131 195.5t195.5 131.5 t239.5 48.5t239.5 -48.5t195.5 -131.5t131.5 -195.5t48.5 -239.5t-48.5 -239.5t-131.5 -195.5t-195.5 -131t-239.5 -48t-239.5 48t-195.5 131t-131 195.5t-48 239.5zM449 737q0 -98 31.5 -182t89 -145.5t138 -97.5t179.5 -36q137 0 237.5 86.5t128.5 235.5h-143 q-10 -84 -70.5 -137t-152.5 -53q-61 0 -111.5 26.5t-86.5 72.5t-54.5 106.5t-18.5 125.5q0 70 17.5 129.5t51.5 103.5t83 68.5t115 24.5q88 0 149.5 -51t77.5 -133h143q-12 76 -44.5 135t-82 99t-112 60.5t-131.5 20.5q-100 0 -181 -35t-137.5 -96t-86 -145t-29.5 -183z" />
<glyph unicode="&#xaa;" horiz-adv-x="763" d="M121 1102q0 -55 14.5 -103.5t44 -84t76.5 -56t113 -20.5t119 29.5t87 80.5q10 -49 40 -79.5t83 -30.5q31 0 51.5 7t38.5 21v90q-10 -8 -24 -13t-31 -5q-29 0 -39 24.5t-10 77.5q0 31 3 81t6 108.5t7.5 121t6.5 115.5q-47 12 -100.5 18.5t-100.5 6.5q-94 0 -166 -29.5 t-121 -82t-73.5 -124t-24.5 -153.5zM240 1102q0 49 15 100t46 91t78 65.5t110 25.5q25 0 50.5 -5t42.5 -9l-9 -156q-4 -82 -23.5 -134t-47 -82.5t-62 -42t-67.5 -11.5q-68 0 -100.5 46t-32.5 112z" />
<glyph unicode="&#xab;" horiz-adv-x="1062" d="M141 545l211 -404h180l-210 404l253 403h-180zM559 545l211 -404h180l-211 404l254 403h-180z" />
<glyph unicode="&#xac;" horiz-adv-x="1228" d="M117 647h868v-426h168v594h-1036v-168z" />
<glyph unicode="&#xad;" horiz-adv-x="645" d="M100 467h496l10 156h-495z" />
<glyph unicode="&#xae;" horiz-adv-x="1638" d="M102 733q0 -168 61.5 -307t166 -239.5t242 -156t288.5 -55.5q152 0 289 55.5t241.5 156t166 239.5t61.5 307t-61.5 307.5t-166 239.5t-241.5 155.5t-289 55.5t-289 -55.5t-241.5 -155.5t-166 -239.5t-61.5 -307.5zM246 733q0 127 48 239.5t131 195.5t195.5 131.5 t239.5 48.5t239.5 -48.5t195.5 -131.5t131.5 -195.5t48.5 -239.5t-48.5 -239.5t-131.5 -195.5t-195.5 -131t-239.5 -48t-239.5 48t-195.5 131t-131 195.5t-48 239.5zM567 303h144v375h110l230 -375h168l-240 381q98 12 163.5 65.5t65.5 172.5q0 133 -79.5 191t-235.5 58 h-326v-868zM711 797v256h168q80 0 133 -26t53 -99q0 -72 -52 -101.5t-134 -29.5h-168z" />
<glyph unicode="&#xaf;" horiz-adv-x="569" d="M-8 1239h667l9 143h-668z" />
<glyph unicode="&#xb0;" horiz-adv-x="819" d="M158 1198q0 -61 22.5 -114.5t62.5 -93.5t93 -62.5t115 -22.5q61 0 114 22.5t93 62.5t62.5 93.5t22.5 114.5t-22.5 114.5t-62.5 93.5t-93 62.5t-114 22.5t-114.5 -22.5t-93.5 -62.5t-62.5 -93.5t-22.5 -114.5zM276 1198q0 72 51.5 123t123.5 51t123 -51t51 -123 t-51.5 -123t-122.5 -51q-72 0 -123.5 51t-51.5 123z" />
<glyph unicode="&#xb1;" horiz-adv-x="1228" d="M117 0h1036v168h-1036v-168zM117 555h434v-313h168v313h434v168h-434v313h-168v-313h-434v-168z" />
<glyph unicode="&#xb2;" horiz-adv-x="788" d="M106 594h611v119h-406v4l172 137q59 47 107.5 91t83.5 89t53 94.5t18 106.5q0 113 -73.5 184.5t-210.5 71.5q-119 0 -195 -58.5t-123 -164.5l93 -62q70 166 217 166q72 0 116.5 -37t44.5 -100q0 -61 -47 -122.5t-151 -151.5l-310 -261v-106z" />
<glyph unicode="&#xb3;" horiz-adv-x="788" d="M109 723q57 -72 137 -106.5t176 -34.5q66 0 123 19.5t99 54t66.5 82.5t24.5 108q0 84 -46 138t-130 71v4q82 23 129 76t47 139q0 96 -70.5 156.5t-193.5 60.5q-98 0 -169 -33t-132 -88l74 -90q45 41 97 66.5t120 25.5q59 0 101 -30.5t42 -84.5q0 -25 -11 -51t-39 -47.5 t-75 -36t-117 -14.5q-16 0 -38.5 1t-36.5 5v-113h63q109 0 181.5 -32.5t72.5 -114.5q0 -66 -49 -110t-127 -44q-74 0 -129 25t-104 76z" />
<glyph unicode="&#xb4;" horiz-adv-x="569" d="M211 1239h131l291 295h-254z" />
<glyph unicode="&#xb6;" horiz-adv-x="1228" d="M121 1081q0 -80 28.5 -148.5t82 -118.5t130 -77.5t175.5 -27.5l-60 -1067h168l92 1693h197l-92 -1693h168l98 1824h-490q-106 0 -197 -21.5t-157.5 -67.5t-104.5 -119.5t-38 -176.5z" />
<glyph unicode="&#xb7;" horiz-adv-x="645" d="M213 596q0 -61 43 -104t104 -43t104.5 43t43.5 104t-43 104t-105 43q-61 0 -104 -43t-43 -104z" />
<glyph unicode="&#xb8;" horiz-adv-x="569" d="M39 -436q35 -16 98.5 -27.5t130.5 -11.5q45 0 95.5 11t93.5 37t70.5 68t27.5 101q0 49 -17.5 82t-47 52.5t-67.5 28.5t-81 9l25 102h-119l-33 -135l59 -67q16 10 48 10q39 0 64.5 -24.5t25.5 -53.5q0 -53 -49.5 -77.5t-110.5 -24.5q-100 0 -186 41z" />
<glyph unicode="&#xb9;" horiz-adv-x="788" d="M213 1321l51 -88q35 20 74 46t68 48l-44 -733h132l53 885h-105q-53 -43 -114.5 -84t-114.5 -74z" />
<glyph unicode="&#xba;" horiz-adv-x="763" d="M121 1139q0 -141 71.5 -221t221.5 -80q80 0 137 29.5t94 76.5t54.5 108.5t17.5 125.5q0 137 -66.5 225t-214.5 88q-80 0 -139 -28.5t-98 -78t-58.5 -112.5t-19.5 -133zM240 1139q0 117 53 181t139 64q47 0 79 -17t51.5 -47t27.5 -66.5t8 -75.5q0 -37 -8 -79t-29.5 -76 t-57.5 -56.5t-91 -22.5q-49 0 -82 17.5t-52.5 45t-28.5 62.5t-9 70z" />
<glyph unicode="&#xbb;" horiz-adv-x="1062" d="M141 141h181l253 404l-210 403h-181l211 -403zM559 141h180l254 404l-211 403h-180l211 -403z" />
<glyph unicode="&#xbc;" horiz-adv-x="1820" d="M213 1321l51 -88q35 20 74 46t68 48l-44 -733h132l53 885h-105q-53 -43 -114.5 -84t-114.5 -74zM313 -25h144l886 1516h-143zM1004 203h426l-13 -203h131l13 203h106l8 119h-106l20 350h-131l-20 -350h-283l375 563h-144l-376 -570z" />
<glyph unicode="&#xbd;" horiz-adv-x="1820" d="M213 1321l51 -88q35 20 74 46t68 48l-44 -733h132l53 885h-105q-53 -43 -114.5 -84t-114.5 -74zM313 -25h144l886 1516h-143zM1057 0h610v119h-405v4l172 137q59 47 107 91t83 89t53.5 94.5t18.5 106.5q0 113 -74 184.5t-211 71.5q-119 0 -194.5 -58.5t-122.5 -164.5 l92 -62q70 166 217 166q72 0 117 -36.5t45 -100.5q0 -61 -47.5 -122.5t-151.5 -151.5l-309 -261v-106z" />
<glyph unicode="&#xbe;" horiz-adv-x="1820" d="M109 723q57 -72 137 -106.5t176 -34.5q66 0 123 19.5t99 54t66.5 82.5t24.5 108q0 84 -46 138t-130 71v4q82 23 129 76t47 139q0 96 -70.5 156.5t-193.5 60.5q-98 0 -169 -33t-132 -88l74 -90q45 41 97 66.5t120 25.5q59 0 101 -30.5t42 -84.5q0 -25 -11 -51t-39 -47.5 t-75 -36t-117 -14.5q-16 0 -38.5 1t-36.5 5v-113h63q109 0 181.5 -32.5t72.5 -114.5q0 -66 -49 -110t-127 -44q-74 0 -129 25t-104 76zM436 -25h144l886 1516h-143zM1004 203h426l-13 -203h131l13 203h106l8 119h-106l20 350h-131l-20 -350h-283l375 563h-144l-376 -570z " />
<glyph unicode="&#xbf;" horiz-adv-x="909" d="M104 -147q0 -78 28 -149t79 -124t124 -85t165 -32q86 0 165.5 24t139.5 52l-19 162q-53 -29 -117.5 -55.5t-148.5 -26.5q-111 0 -173 64.5t-62 173.5q0 74 25.5 126t68.5 85.5t98 49t115 15.5q29 0 49 -4l23 451h-160l-15 -291q-78 -6 -147.5 -40t-121.5 -91.5t-84 -135 t-32 -169.5zM479 860q0 -49 35 -84t84 -35t84 35t35 84t-35 84t-84 35t-84 -35t-35 -84z" />
<glyph unicode="&#xc0;" horiz-adv-x="1366" d="M25 0h180l215 481h577l164 -481h180l-483 1466h-174zM473 1858l291 -295h131l-168 295h-254zM489 637l265 592l192 -592h-457z" />
<glyph unicode="&#xc1;" horiz-adv-x="1366" d="M25 0h180l215 481h577l164 -481h180l-483 1466h-174zM489 637l265 592l192 -592h-457zM651 1563h131l291 295h-254z" />
<glyph unicode="&#xc2;" horiz-adv-x="1366" d="M25 0h180l215 481h577l164 -481h180l-483 1466h-174zM403 1563h131l236 176l186 -176h131l-176 295h-266zM489 637l265 592l192 -592h-457z" />
<glyph unicode="&#xc3;" horiz-adv-x="1366" d="M25 0h180l215 481h577l164 -481h180l-483 1466h-174zM424 1571h100q2 18 7 40t15.5 41.5t30 32.5t51.5 13q23 0 55.5 -15.5t61.5 -29.5q45 -23 93 -42t89 -19q49 0 88 22.5t67 61.5t45.5 88t21.5 102h-101q-8 -47 -40.5 -83t-80.5 -36q-23 0 -56.5 15.5t-74.5 38.5 q-53 29 -90 41t-65 12q-59 0 -98.5 -26.5t-64 -67.5t-36.5 -91.5t-18 -97.5zM489 637l265 592l192 -592h-457z" />
<glyph unicode="&#xc4;" horiz-adv-x="1366" d="M25 0h180l215 481h577l164 -481h180l-483 1466h-174zM473 1684q0 -45 30.5 -76t75.5 -31t76 31t31 76t-31 75.5t-76 30.5t-75.5 -30.5t-30.5 -75.5zM489 637l265 592l192 -592h-457zM876 1684q0 -45 31 -76t76 -31t75.5 31t30.5 76t-30.5 75.5t-75.5 30.5t-76 -30.5 t-31 -75.5z" />
<glyph unicode="&#xc5;" horiz-adv-x="1366" d="M25 0h180l215 481h577l164 -481h180l-483 1466h-174zM489 637l265 592l192 -592h-457zM557 1716q0 -43 16.5 -81t44 -65.5t65.5 -44t81 -16.5t81 16.5t65.5 44t44 65.5t16.5 81t-16.5 81t-44 65.5t-65.5 44t-81 16.5t-81 -16.5t-65.5 -44t-44 -65.5t-16.5 -81zM651 1716 q0 47 33 80t80 33t80 -33t33 -80t-33 -80t-80 -33t-80 33t-33 80z" />
<glyph unicode="&#xc6;" horiz-adv-x="1933" d="M57 0h193l387 666h465l88 -666h602l6 156h-455l-67 510h491l7 155h-519l-65 490h672l6 155h-946zM727 821l285 490h4l65 -490h-354z" />
<glyph unicode="&#xc7;" horiz-adv-x="1366" d="M209 690q0 -326 133 -509t377 -206l-23 -94l60 -67q16 10 47 10q39 0 64.5 -24.5t25.5 -53.5q0 -53 -49 -77.5t-111 -24.5q-100 0 -186 41l-27 -121q35 -16 98.5 -27.5t131.5 -11.5q45 0 95 11t93 37t70.5 68t27.5 101q0 49 -17.5 82t-47 52.5t-67.5 28.5t-81 9l15 63 q133 12 249.5 76t196.5 172l-108 117q-31 -33 -68 -69.5t-83 -68.5t-103.5 -52.5t-124.5 -20.5q-119 0 -197 50t-125 130t-66.5 180.5t-19.5 198.5q0 129 31 247t90 206t146 140t198 52q121 0 203 -55t143 -154l137 82q-59 133 -180 208t-289 75q-166 0 -289.5 -68.5 t-205.5 -181.5t-123 -257t-41 -294z" />
<glyph unicode="&#xc8;" horiz-adv-x="1138" d="M219 0h797l6 156h-625l27 510h563l6 155h-561l29 490h618l6 155h-784zM400 1858l291 -295h131l-168 295h-254z" />
<glyph unicode="&#xc9;" horiz-adv-x="1138" d="M219 0h797l6 156h-625l27 510h563l6 155h-561l29 490h618l6 155h-784zM578 1563h131l291 295h-254z" />
<glyph unicode="&#xca;" horiz-adv-x="1138" d="M219 0h797l6 156h-625l27 510h563l6 155h-561l29 490h618l6 155h-784zM330 1563h131l236 176l186 -176h131l-176 295h-266z" />
<glyph unicode="&#xcb;" horiz-adv-x="1138" d="M219 0h797l6 156h-625l27 510h563l6 155h-561l29 490h618l6 155h-784zM400 1684q0 -45 30.5 -76t75.5 -31t76 31t31 76t-31 75.5t-76 30.5t-75.5 -30.5t-30.5 -75.5zM803 1684q0 -45 31 -76t76 -31t75.5 31t30.5 76t-30.5 75.5t-75.5 30.5t-76 -30.5t-31 -75.5z" />
<glyph unicode="&#xcc;" horiz-adv-x="606" d="M92 1858l291 -295h131l-168 295h-254zM219 0h168l82 1466h-168z" />
<glyph unicode="&#xcd;" horiz-adv-x="606" d="M219 0h168l82 1466h-168zM270 1563h131l291 295h-254z" />
<glyph unicode="&#xce;" horiz-adv-x="606" d="M22 1563h131l236 176l186 -176h131l-176 295h-266zM219 0h168l82 1466h-168z" />
<glyph unicode="&#xcf;" horiz-adv-x="606" d="M92 1684q0 -45 30.5 -76t75.5 -31t76 31t31 76t-31 75.5t-76 30.5t-75.5 -30.5t-30.5 -75.5zM219 0h168l82 1466h-168zM495 1684q0 -45 31 -76t76 -31t75.5 31t30.5 76t-30.5 75.5t-75.5 30.5t-76 -30.5t-31 -75.5z" />
<glyph unicode="&#xd0;" horiz-adv-x="1478" d="M119 715h137l-37 -703q39 -6 87 -11t100.5 -8t103.5 -4t94 -1q160 0 299 51t242.5 151.5t162 250t58.5 345.5q0 215 -70.5 348.5t-178 207t-233.5 99t-239 25.5q-104 0 -200.5 -3t-147.5 -5l-33 -612h-137zM395 152l31 563h430l8 131h-430l25 461q37 2 81 3t109 1 q123 0 222.5 -31t169 -97.5t107.5 -170t38 -246.5q0 -139 -41 -253t-117 -197t-183.5 -128t-240.5 -45q-27 0 -59.5 1t-63 2t-54.5 3.5t-32 2.5z" />
<glyph unicode="&#xd1;" horiz-adv-x="1515" d="M209 0h168l55 1188h4l690 -1188h181l82 1466h-168l-58 -1187h-4l-688 1187h-180zM498 1571h100q2 18 7 40t15.5 41.5t30 32.5t51.5 13q23 0 55.5 -15.5t61.5 -29.5q45 -23 93 -42t89 -19q49 0 88 22.5t67 61.5t45.5 88t21.5 102h-101q-8 -47 -40.5 -83t-80.5 -36 q-23 0 -56.5 15.5t-74.5 38.5q-53 29 -90 41t-65 12q-59 0 -98.5 -26.5t-64 -67.5t-36.5 -91.5t-18 -97.5z" />
<glyph unicode="&#xd2;" horiz-adv-x="1554" d="M209 692q0 -188 45 -323.5t124 -223.5t184.5 -129t225.5 -41q168 0 288 67t198 176.5t114.5 249.5t36.5 290q0 197 -45 336t-123.5 227t-184 129t-226.5 41q-168 0 -288 -64.5t-197.5 -175t-114.5 -255t-37 -304.5zM389 692q0 168 36 290t97.5 200t144.5 115.5t179 37.5 q117 0 193.5 -53t122.5 -137t64.5 -186.5t18.5 -200.5q0 -109 -23.5 -219.5t-77.5 -201.5t-141.5 -148.5t-214.5 -57.5q-109 0 -184.5 45t-123.5 122t-69.5 178t-21.5 216zM568 1858l291 -295h131l-168 295h-254z" />
<glyph unicode="&#xd3;" horiz-adv-x="1554" d="M209 692q0 -188 45 -323.5t124 -223.5t184.5 -129t225.5 -41q168 0 288 67t198 176.5t114.5 249.5t36.5 290q0 197 -45 336t-123.5 227t-184 129t-226.5 41q-168 0 -288 -64.5t-197.5 -175t-114.5 -255t-37 -304.5zM389 692q0 168 36 290t97.5 200t144.5 115.5t179 37.5 q117 0 193.5 -53t122.5 -137t64.5 -186.5t18.5 -200.5q0 -109 -23.5 -219.5t-77.5 -201.5t-141.5 -148.5t-214.5 -57.5q-109 0 -184.5 45t-123.5 122t-69.5 178t-21.5 216zM746 1563h131l291 295h-254z" />
<glyph unicode="&#xd4;" horiz-adv-x="1554" d="M209 692q0 -188 45 -323.5t124 -223.5t184.5 -129t225.5 -41q168 0 288 67t198 176.5t114.5 249.5t36.5 290q0 197 -45 336t-123.5 227t-184 129t-226.5 41q-168 0 -288 -64.5t-197.5 -175t-114.5 -255t-37 -304.5zM389 692q0 168 36 290t97.5 200t144.5 115.5t179 37.5 q117 0 193.5 -53t122.5 -137t64.5 -186.5t18.5 -200.5q0 -109 -23.5 -219.5t-77.5 -201.5t-141.5 -148.5t-214.5 -57.5q-109 0 -184.5 45t-123.5 122t-69.5 178t-21.5 216zM498 1563h131l236 176l186 -176h131l-176 295h-266z" />
<glyph unicode="&#xd5;" horiz-adv-x="1554" d="M209 692q0 -188 45 -323.5t124 -223.5t184.5 -129t225.5 -41q168 0 288 67t198 176.5t114.5 249.5t36.5 290q0 197 -45 336t-123.5 227t-184 129t-226.5 41q-168 0 -288 -64.5t-197.5 -175t-114.5 -255t-37 -304.5zM389 692q0 168 36 290t97.5 200t144.5 115.5t179 37.5 q117 0 193.5 -53t122.5 -137t64.5 -186.5t18.5 -200.5q0 -109 -23.5 -219.5t-77.5 -201.5t-141.5 -148.5t-214.5 -57.5q-109 0 -184.5 45t-123.5 122t-69.5 178t-21.5 216zM519 1571h100q2 18 7 40t15.5 41.5t30 32.5t51.5 13q23 0 55.5 -15.5t61.5 -29.5q45 -23 93 -42 t89 -19q49 0 88 22.5t67 61.5t45.5 88t21.5 102h-101q-8 -47 -40.5 -83t-80.5 -36q-23 0 -56.5 15.5t-74.5 38.5q-53 29 -90 41t-65 12q-59 0 -98.5 -26.5t-64 -67.5t-36.5 -91.5t-18 -97.5z" />
<glyph unicode="&#xd6;" horiz-adv-x="1554" d="M209 692q0 -188 45 -323.5t124 -223.5t184.5 -129t225.5 -41q168 0 288 67t198 176.5t114.5 249.5t36.5 290q0 197 -45 336t-123.5 227t-184 129t-226.5 41q-168 0 -288 -64.5t-197.5 -175t-114.5 -255t-37 -304.5zM389 692q0 168 36 290t97.5 200t144.5 115.5t179 37.5 q117 0 193.5 -53t122.5 -137t64.5 -186.5t18.5 -200.5q0 -109 -23.5 -219.5t-77.5 -201.5t-141.5 -148.5t-214.5 -57.5q-109 0 -184.5 45t-123.5 122t-69.5 178t-21.5 216zM568 1684q0 -45 30.5 -76t75.5 -31t76 31t31 76t-31 75.5t-76 30.5t-75.5 -30.5t-30.5 -75.5z M971 1684q0 -45 31 -76t76 -31t75.5 31t30.5 76t-30.5 75.5t-75.5 30.5t-76 -30.5t-31 -75.5z" />
<glyph unicode="&#xd7;" horiz-adv-x="1228" d="M164 162l115 -115l356 359l356 -359l115 115l-358 356l358 356l-115 115l-356 -358l-356 358l-115 -115l358 -356z" />
<glyph unicode="&#xd8;" horiz-adv-x="1554" d="M154 -10l92 -72l160 201q78 -74 175 -109t207 -35q168 0 288 67t198 176.5t114.5 249.5t36.5 290q0 166 -31.5 288.5t-86.5 208.5l174 222l-92 71l-160 -200q-76 76 -174.5 109.5t-208.5 33.5q-168 0 -288 -64.5t-197.5 -175t-114.5 -255t-37 -304.5q0 -156 30.5 -274.5 t90.5 -206.5zM389 692q0 168 36 290t97.5 200t144.5 115.5t179 37.5q92 0 158.5 -33.5t113.5 -93.5l-669 -846q-31 72 -45.5 155t-14.5 175zM512 254l670 844q35 -78 49 -166t14 -174q0 -109 -23.5 -219.5t-77.5 -201.5t-141.5 -148.5t-214.5 -57.5q-92 0 -159.5 32 t-116.5 91z" />
<glyph unicode="&#xd9;" horiz-adv-x="1478" d="M240 518q0 -92 20.5 -188.5t75.5 -175t151.5 -129t245.5 -50.5q180 0 299 61.5t191 209.5q39 78 58 203.5t28 261.5l43 755h-181l-43 -827q-6 -100 -24.5 -192.5t-60.5 -162t-112.5 -111.5t-178.5 -42q-100 0 -165 35t-101.5 91t-51 128t-14.5 147q0 78 4 158t8 158 l39 618h-180l-39 -600q-12 -176 -12 -348zM529 1858l291 -295h131l-168 295h-254z" />
<glyph unicode="&#xda;" horiz-adv-x="1478" d="M240 518q0 -92 20.5 -188.5t75.5 -175t151.5 -129t245.5 -50.5q180 0 299 61.5t191 209.5q39 78 58 203.5t28 261.5l43 755h-181l-43 -827q-6 -100 -24.5 -192.5t-60.5 -162t-112.5 -111.5t-178.5 -42q-100 0 -165 35t-101.5 91t-51 128t-14.5 147q0 78 4 158t8 158 l39 618h-180l-39 -600q-12 -176 -12 -348zM707 1563h131l291 295h-254z" />
<glyph unicode="&#xdb;" horiz-adv-x="1478" d="M240 518q0 -92 20.5 -188.5t75.5 -175t151.5 -129t245.5 -50.5q180 0 299 61.5t191 209.5q39 78 58 203.5t28 261.5l43 755h-181l-43 -827q-6 -100 -24.5 -192.5t-60.5 -162t-112.5 -111.5t-178.5 -42q-100 0 -165 35t-101.5 91t-51 128t-14.5 147q0 78 4 158t8 158 l39 618h-180l-39 -600q-12 -176 -12 -348zM459 1563h131l236 176l186 -176h131l-176 295h-266z" />
<glyph unicode="&#xdc;" horiz-adv-x="1478" d="M240 518q0 -92 20.5 -188.5t75.5 -175t151.5 -129t245.5 -50.5q180 0 299 61.5t191 209.5q39 78 58 203.5t28 261.5l43 755h-181l-43 -827q-6 -100 -24.5 -192.5t-60.5 -162t-112.5 -111.5t-178.5 -42q-100 0 -165 35t-101.5 91t-51 128t-14.5 147q0 78 4 158t8 158 l39 618h-180l-39 -600q-12 -176 -12 -348zM529 1684q0 -45 30.5 -76t75.5 -31t76 31t31 76t-31 75.5t-76 30.5t-75.5 -30.5t-30.5 -75.5zM932 1684q0 -45 31 -76t76 -31t75.5 31t30.5 76t-30.5 75.5t-75.5 30.5t-76 -30.5t-31 -75.5z" />
<glyph unicode="&#xdd;" horiz-adv-x="1214" d="M137 1466l426 -786l-37 -680h168l37 680l512 786h-192l-392 -628l-329 628h-193zM576 1563h131l291 295h-254z" />
<glyph unicode="&#xde;" horiz-adv-x="1251" d="M219 0h168l23 414q59 -4 117.5 -5t138.5 -1q82 0 169 21.5t159.5 67.5t119.5 120.5t47 181.5q0 82 -22.5 144.5t-58.5 106.5t-80 72.5t-85 44.5q-47 16 -124.5 28.5t-206.5 12.5h-49q-35 0 -80 -2l14 260h-168zM420 573l26 486q35 2 75 4t89 2q51 0 116 -10.5t122 -38 t95 -77.5t38 -130q0 -66 -29.5 -112t-79 -75.5t-115 -44t-134.5 -14.5q-66 0 -117 3t-86 7z" />
<glyph unicode="&#xdf;" horiz-adv-x="1290" d="M-147 -526q29 -6 69.5 -14.5t81.5 -8.5q111 0 201 57.5t139 161.5q47 100 62.5 211t25.5 221q20 250 28.5 498t8.5 498q0 193 53 286t172 93q53 0 90 -22.5t60.5 -57.5t34 -80t10.5 -88q0 -53 -9.5 -93t-23.5 -79q-37 -14 -69.5 -37t-58.5 -53.5t-41 -69.5t-15 -88 q0 -43 6 -77t28.5 -67.5t64.5 -71.5t114 -89q53 -39 86 -64.5t51 -48t25.5 -47.5t7.5 -61q0 -27 -10.5 -55.5t-34 -53t-63.5 -40t-97 -15.5q-55 0 -127 18.5t-131 52.5l-8 -157q47 -16 123.5 -37t164.5 -21q76 0 142.5 22.5t116 64.5t77 99.5t27.5 127.5q0 66 -16.5 115 t-47 88.5t-72.5 73.5t-93 67q-29 18 -58.5 38.5t-53.5 44t-39 49.5t-15 56q0 53 41 86t100 47q29 70 46 135.5t17 159.5q0 84 -24.5 155t-69.5 121t-110.5 78.5t-147.5 28.5q-68 0 -137.5 -20.5t-125.5 -74.5t-92 -148.5t-36 -241.5v-107h-156l-8 -143h164q-2 -113 -5 -240 t-7 -248.5t-10.5 -231t-14.5 -185.5q-8 -74 -23.5 -145.5t-45 -128t-79.5 -90.5t-130 -34q-25 0 -60 4.5t-63 10.5z" />
<glyph unicode="&#xe0;" d="M139 416q0 -92 21.5 -172t67.5 -139.5t118 -94.5t174 -35q98 0 181 50.5t139 136.5q12 -84 60 -135.5t128 -51.5q47 0 79 13.5t67 36.5v125q-23 -12 -45.5 -21.5t-47.5 -9.5q-47 0 -65.5 45t-18.5 151q0 49 5.5 133t11.5 180.5t12 197t10 184.5q-68 27 -149.5 41 t-155.5 14q-145 0 -255.5 -49t-185.5 -137t-113 -207t-38 -256zM307 418q0 90 23.5 178t72 157.5t123 112.5t179.5 43q41 0 85 -8t78 -18l-14 -279q-6 -135 -38 -226t-76 -146.5t-98 -78t-107 -22.5q-61 0 -104.5 24.5t-71 64.5t-40 92.5t-12.5 105.5zM398 1534l291 -295 h131l-168 295h-254z" />
<glyph unicode="&#xe1;" d="M139 416q0 -92 21.5 -172t67.5 -139.5t118 -94.5t174 -35q98 0 181 50.5t139 136.5q12 -84 60 -135.5t128 -51.5q47 0 79 13.5t67 36.5v125q-23 -12 -45.5 -21.5t-47.5 -9.5q-47 0 -65.5 45t-18.5 151q0 49 5.5 133t11.5 180.5t12 197t10 184.5q-68 27 -149.5 41 t-155.5 14q-145 0 -255.5 -49t-185.5 -137t-113 -207t-38 -256zM307 418q0 90 23.5 178t72 157.5t123 112.5t179.5 43q41 0 85 -8t78 -18l-14 -279q-6 -135 -38 -226t-76 -146.5t-98 -78t-107 -22.5q-61 0 -104.5 24.5t-71 64.5t-40 92.5t-12.5 105.5zM576 1239h131l291 295 h-254z" />
<glyph unicode="&#xe2;" d="M139 416q0 -92 21.5 -172t67.5 -139.5t118 -94.5t174 -35q98 0 181 50.5t139 136.5q12 -84 60 -135.5t128 -51.5q47 0 79 13.5t67 36.5v125q-23 -12 -45.5 -21.5t-47.5 -9.5q-47 0 -65.5 45t-18.5 151q0 49 5.5 133t11.5 180.5t12 197t10 184.5q-68 27 -149.5 41 t-155.5 14q-145 0 -255.5 -49t-185.5 -137t-113 -207t-38 -256zM307 418q0 90 23.5 178t72 157.5t123 112.5t179.5 43q41 0 85 -8t78 -18l-14 -279q-6 -135 -38 -226t-76 -146.5t-98 -78t-107 -22.5q-61 0 -104.5 24.5t-71 64.5t-40 92.5t-12.5 105.5zM328 1239h131l236 176 l186 -176h131l-176 295h-266z" />
<glyph unicode="&#xe3;" d="M139 416q0 -92 21.5 -172t67.5 -139.5t118 -94.5t174 -35q98 0 181 50.5t139 136.5q12 -84 60 -135.5t128 -51.5q47 0 79 13.5t67 36.5v125q-23 -12 -45.5 -21.5t-47.5 -9.5q-47 0 -65.5 45t-18.5 151q0 49 5.5 133t11.5 180.5t12 197t10 184.5q-68 27 -149.5 41 t-155.5 14q-145 0 -255.5 -49t-185.5 -137t-113 -207t-38 -256zM307 418q0 90 23.5 178t72 157.5t123 112.5t179.5 43q41 0 85 -8t78 -18l-14 -279q-6 -135 -38 -226t-76 -146.5t-98 -78t-107 -22.5q-61 0 -104.5 24.5t-71 64.5t-40 92.5t-12.5 105.5zM349 1247h100 q2 18 7 40t15.5 41.5t30 32.5t51.5 13q23 0 55.5 -15.5t61.5 -29.5q45 -23 93 -42t89 -19q49 0 88 22.5t67 61.5t45.5 88t21.5 102h-101q-8 -47 -40.5 -83t-80.5 -36q-23 0 -56.5 15.5t-74.5 38.5q-53 29 -90 41t-65 12q-59 0 -98.5 -26.5t-64 -67.5t-36.5 -91.5t-18 -97.5z " />
<glyph unicode="&#xe4;" d="M139 416q0 -92 21.5 -172t67.5 -139.5t118 -94.5t174 -35q98 0 181 50.5t139 136.5q12 -84 60 -135.5t128 -51.5q47 0 79 13.5t67 36.5v125q-23 -12 -45.5 -21.5t-47.5 -9.5q-47 0 -65.5 45t-18.5 151q0 49 5.5 133t11.5 180.5t12 197t10 184.5q-68 27 -149.5 41 t-155.5 14q-145 0 -255.5 -49t-185.5 -137t-113 -207t-38 -256zM307 418q0 90 23.5 178t72 157.5t123 112.5t179.5 43q41 0 85 -8t78 -18l-14 -279q-6 -135 -38 -226t-76 -146.5t-98 -78t-107 -22.5q-61 0 -104.5 24.5t-71 64.5t-40 92.5t-12.5 105.5zM398 1360 q0 -45 30.5 -76t75.5 -31t76 31t31 76t-31 75.5t-76 30.5t-75.5 -30.5t-30.5 -75.5zM801 1360q0 -45 31 -76t76 -31t75.5 31t30.5 76t-30.5 75.5t-75.5 30.5t-76 -30.5t-31 -75.5z" />
<glyph unicode="&#xe5;" d="M139 416q0 -92 21.5 -172t67.5 -139.5t118 -94.5t174 -35q98 0 181 50.5t139 136.5q12 -84 60 -135.5t128 -51.5q47 0 79 13.5t67 36.5v125q-23 -12 -45.5 -21.5t-47.5 -9.5q-47 0 -65.5 45t-18.5 151q0 49 5.5 133t11.5 180.5t12 197t10 184.5q-68 27 -149.5 41 t-155.5 14q-145 0 -255.5 -49t-185.5 -137t-113 -207t-38 -256zM307 418q0 90 23.5 178t72 157.5t123 112.5t179.5 43q41 0 85 -8t78 -18l-14 -279q-6 -135 -38 -226t-76 -146.5t-98 -78t-107 -22.5q-61 0 -104.5 24.5t-71 64.5t-40 92.5t-12.5 105.5zM559 1413 q0 -43 16.5 -81t44 -65.5t65.5 -44t81 -16.5t81 16.5t65.5 44t44 65.5t16.5 81t-16.5 81t-44 65.5t-65.5 44t-81 16.5t-81 -16.5t-65.5 -44t-44 -65.5t-16.5 -81zM653 1413q0 47 33 80t80 33t80 -33t33 -80t-33 -80t-80 -33t-80 33t-33 80z" />
<glyph unicode="&#xe6;" horiz-adv-x="1781" d="M172 416q0 -92 21.5 -172t67.5 -139.5t118 -94.5t174 -35q82 0 143.5 28t104.5 69t70.5 89t41.5 89h5q43 -139 146 -207t230 -68q98 0 172 29t146 74v162q-61 -43 -139 -82t-146 -39q-66 0 -117 22.5t-87 62.5t-56 92t-23 114h76q86 0 184.5 13t182.5 55t140 119t56 204 q0 47 -19 94t-58 85t-95.5 61.5t-132.5 23.5q-133 0 -213 -53.5t-129 -134.5l-4 4l12 129q-37 12 -77.5 22t-79.5 17.5t-72 11.5t-51 4q-145 0 -256 -49t-185.5 -137t-112.5 -207t-38 -256zM340 418q0 90 23.5 178t71.5 157.5t123 112.5t179 43q47 0 87 -8t65 -18l-12 -279 q-6 -135 -37 -226t-76 -146.5t-96.5 -78t-100.5 -22.5q-61 0 -104 24.5t-70.5 64.5t-40 92.5t-12.5 105.5zM1044 553q6 57 33 121.5t68 120t96 91.5t121 36q74 0 114 -43t40 -105q0 -59 -36 -100t-91.5 -68.5t-123 -40t-128.5 -12.5h-93z" />
<glyph unicode="&#xe7;" horiz-adv-x="948" d="M139 440q0 -115 30 -197.5t80 -140t117.5 -87t143.5 -35.5l-23 -99l60 -67q16 10 47 10q39 0 64.5 -24.5t25.5 -53.5q0 -53 -49 -77.5t-111 -24.5q-100 0 -186 41l-27 -121q35 -16 98.5 -27.5t131.5 -11.5q45 0 95 11t93 37t70.5 68t27.5 101q0 49 -17 82t-47 52.5 t-68 28.5t-81 9l15 66q63 6 126.5 24.5t110.5 46.5l13 176q-66 -47 -143 -77.5t-154 -30.5q-74 0 -124 28.5t-81 75.5t-44.5 108.5t-13.5 127.5q0 84 21.5 165t67 144t114 102t162.5 39q57 0 112.5 -13t106.5 -36l10 160q-63 29 -129.5 37t-121.5 8q-133 0 -231.5 -55.5 t-163 -144.5t-96.5 -200.5t-32 -224.5z" />
<glyph unicode="&#xe8;" horiz-adv-x="1024" d="M139 440q0 -123 34 -210t90 -144t132 -84t160 -27t163 22.5t144 72.5l6 155q-70 -43 -138 -74.5t-146 -31.5q-66 0 -117 24.5t-86 66.5t-54.5 97t-19.5 117q29 -4 60.5 -6t72.5 -2q98 0 191.5 23.5t166 68.5t116.5 112.5t44 155.5q0 127 -80.5 208t-234.5 81 q-127 0 -221 -55.5t-156.5 -144.5t-94.5 -200.5t-32 -224.5zM313 563q6 51 31 114.5t67 117t99 90.5t127 37q61 0 107.5 -40t46.5 -110q0 -39 -20.5 -77t-62.5 -68.5t-107.5 -49t-156.5 -18.5q-33 0 -65.5 1t-65.5 3zM322 1534l291 -295h131l-168 295h-254z" />
<glyph unicode="&#xe9;" horiz-adv-x="1024" d="M139 440q0 -123 34 -210t90 -144t132 -84t160 -27t163 22.5t144 72.5l6 155q-70 -43 -138 -74.5t-146 -31.5q-66 0 -117 24.5t-86 66.5t-54.5 97t-19.5 117q29 -4 60.5 -6t72.5 -2q98 0 191.5 23.5t166 68.5t116.5 112.5t44 155.5q0 127 -80.5 208t-234.5 81 q-127 0 -221 -55.5t-156.5 -144.5t-94.5 -200.5t-32 -224.5zM313 563q6 51 31 114.5t67 117t99 90.5t127 37q61 0 107.5 -40t46.5 -110q0 -39 -20.5 -77t-62.5 -68.5t-107.5 -49t-156.5 -18.5q-33 0 -65.5 1t-65.5 3zM500 1239h131l291 295h-254z" />
<glyph unicode="&#xea;" horiz-adv-x="1024" d="M139 440q0 -123 34 -210t90 -144t132 -84t160 -27t163 22.5t144 72.5l6 155q-70 -43 -138 -74.5t-146 -31.5q-66 0 -117 24.5t-86 66.5t-54.5 97t-19.5 117q29 -4 60.5 -6t72.5 -2q98 0 191.5 23.5t166 68.5t116.5 112.5t44 155.5q0 127 -80.5 208t-234.5 81 q-127 0 -221 -55.5t-156.5 -144.5t-94.5 -200.5t-32 -224.5zM252 1239h131l236 176l186 -176h131l-176 295h-266zM313 563q6 51 31 114.5t67 117t99 90.5t127 37q61 0 107.5 -40t46.5 -110q0 -39 -20.5 -77t-62.5 -68.5t-107.5 -49t-156.5 -18.5q-33 0 -65.5 1t-65.5 3z" />
<glyph unicode="&#xeb;" horiz-adv-x="1024" d="M139 440q0 -123 34 -210t90 -144t132 -84t160 -27t163 22.5t144 72.5l6 155q-70 -43 -138 -74.5t-146 -31.5q-66 0 -117 24.5t-86 66.5t-54.5 97t-19.5 117q29 -4 60.5 -6t72.5 -2q98 0 191.5 23.5t166 68.5t116.5 112.5t44 155.5q0 127 -80.5 208t-234.5 81 q-127 0 -221 -55.5t-156.5 -144.5t-94.5 -200.5t-32 -224.5zM313 563q6 51 31 114.5t67 117t99 90.5t127 37q61 0 107.5 -40t46.5 -110q0 -39 -20.5 -77t-62.5 -68.5t-107.5 -49t-156.5 -18.5q-33 0 -65.5 1t-65.5 3zM322 1360q0 -45 30.5 -76t75.5 -31t76 31t31 76 t-31 75.5t-76 30.5t-75.5 -30.5t-30.5 -75.5zM725 1360q0 -45 31 -76t76 -31t75.5 31t30.5 76t-30.5 75.5t-75.5 30.5t-76 -30.5t-31 -75.5z" />
<glyph unicode="&#xec;" horiz-adv-x="569" d="M33 1534l291 -295h131l-168 295h-254zM190 211q0 -98 42 -167t145 -69q92 0 170 54l8 131q-29 -14 -56.5 -27.5t-64.5 -13.5q-39 0 -57.5 30.5t-18.5 77.5q0 29 4.5 114t10.5 198.5t14 246t14 254.5h-168q-4 -117 -11 -250t-14 -251.5t-12.5 -207.5t-5.5 -120z" />
<glyph unicode="&#xed;" horiz-adv-x="569" d="M190 211q0 -98 42 -167t145 -69q92 0 170 54l8 131q-29 -14 -56.5 -27.5t-64.5 -13.5q-39 0 -57.5 30.5t-18.5 77.5q0 29 4.5 114t10.5 198.5t14 246t14 254.5h-168q-4 -117 -11 -250t-14 -251.5t-12.5 -207.5t-5.5 -120zM211 1239h131l291 295h-254z" />
<glyph unicode="&#xee;" horiz-adv-x="569" d="M-37 1239h131l236 176l186 -176h131l-176 295h-266zM190 211q0 -98 42 -167t145 -69q92 0 170 54l8 131q-29 -14 -56.5 -27.5t-64.5 -13.5q-39 0 -57.5 30.5t-18.5 77.5q0 29 4.5 114t10.5 198.5t14 246t14 254.5h-168q-4 -117 -11 -250t-14 -251.5t-12.5 -207.5 t-5.5 -120z" />
<glyph unicode="&#xef;" horiz-adv-x="569" d="M33 1360q0 -45 30.5 -76t75.5 -31t76 31t31 76t-31 75.5t-76 30.5t-75.5 -30.5t-30.5 -75.5zM190 211q0 -98 42 -167t145 -69q92 0 170 54l8 131q-29 -14 -56.5 -27.5t-64.5 -13.5q-39 0 -57.5 30.5t-18.5 77.5q0 29 4.5 114t10.5 198.5t14 246t14 254.5h-168 q-4 -117 -11 -250t-14 -251.5t-12.5 -207.5t-5.5 -120zM436 1360q0 -45 31 -76t76 -31t75.5 31t30.5 76t-30.5 75.5t-75.5 30.5t-76 -30.5t-31 -75.5z" />
<glyph unicode="&#xf0;" d="M156 477q0 -233 109.5 -367.5t340.5 -134.5q123 0 211 45.5t144.5 125t83 192.5t26.5 248q0 137 -20.5 258t-57.5 222t-87 184t-107 147l241 110l-77 82l-236 -108q-37 41 -83 81t-83 70l-135 -67q43 -35 84 -73t76 -77l-246 -112l78 -82l239 110q25 -29 52.5 -67.5 t52 -82.5t45 -92.5t33.5 -93.5l-4 -4q-74 74 -195 74q-125 0 -216 -49t-151.5 -130t-89 -187.5t-28.5 -221.5zM324 477q0 207 84 326t225 119q78 0 130 -32t83 -85t44 -122t13 -140q0 -70 -14.5 -144.5t-48 -137t-92 -102.5t-146.5 -40q-78 0 -131 30.5t-86 81t-47 114.5 t-14 132z" />
<glyph unicode="&#xf1;" horiz-adv-x="1214" d="M186 0h162l21 395q8 141 44 237.5t84 155t102 84t97 25.5q84 0 121 -54.5t37 -140.5q0 -20 -4 -86.5t-9 -145.5t-9.5 -154.5t-4.5 -114.5q0 -98 47.5 -162t143.5 -64q39 0 84 17.5t82 40.5l6 123q-23 -14 -49.5 -25.5t-59.5 -11.5q-41 0 -63.5 27.5t-22.5 93.5 q0 57 4.5 125.5t9.5 138t9 134t4 114.5q0 59 -18.5 115.5t-55.5 100.5t-93 70.5t-132 26.5q-49 0 -98.5 -17.5t-92.5 -46t-78.5 -65.5t-56.5 -76h-4q-6 59 -13 109.5t-11 70.5h-162q8 -47 13 -100t5 -137q0 -55 -4 -149.5t-9 -206t-12 -229.5t-14 -218zM308 1247h100 q2 18 7 40t15.5 41.5t30 32.5t51.5 13q23 0 55.5 -15.5t61.5 -29.5q45 -23 93 -42t89 -19q49 0 88 22.5t67 61.5t45.5 88t21.5 102h-101q-8 -47 -40.5 -83t-80.5 -36q-23 0 -56.5 15.5t-74.5 38.5q-53 29 -90 41t-65 12q-59 0 -98.5 -26.5t-64 -67.5t-36.5 -91.5t-18 -97.5z " />
<glyph unicode="&#xf2;" d="M156 477q0 -236 110.5 -369t339.5 -133q123 0 211 48.5t144.5 128t83 182t26.5 209.5q0 244 -109.5 383t-320.5 139q-125 0 -216 -49t-151.5 -130t-89 -187.5t-28.5 -221.5zM324 477q0 207 84 326t225 119q78 0 130 -31t83 -83t44 -121t13 -144q0 -70 -14.5 -144.5 t-48 -137t-92 -102.5t-146.5 -40q-78 0 -131 30.5t-86 81t-47 114.5t-14 132zM336 1534l291 -295h131l-168 295h-254z" />
<glyph unicode="&#xf3;" d="M156 477q0 -236 110.5 -369t339.5 -133q123 0 211 48.5t144.5 128t83 182t26.5 209.5q0 244 -109.5 383t-320.5 139q-125 0 -216 -49t-151.5 -130t-89 -187.5t-28.5 -221.5zM324 477q0 207 84 326t225 119q78 0 130 -31t83 -83t44 -121t13 -144q0 -70 -14.5 -144.5 t-48 -137t-92 -102.5t-146.5 -40q-78 0 -131 30.5t-86 81t-47 114.5t-14 132zM514 1239h131l291 295h-254z" />
<glyph unicode="&#xf4;" d="M156 477q0 -236 110.5 -369t339.5 -133q123 0 211 48.5t144.5 128t83 182t26.5 209.5q0 244 -109.5 383t-320.5 139q-125 0 -216 -49t-151.5 -130t-89 -187.5t-28.5 -221.5zM266 1239h131l236 176l186 -176h131l-176 295h-266zM324 477q0 207 84 326t225 119 q78 0 130 -31t83 -83t44 -121t13 -144q0 -70 -14.5 -144.5t-48 -137t-92 -102.5t-146.5 -40q-78 0 -131 30.5t-86 81t-47 114.5t-14 132z" />
<glyph unicode="&#xf5;" d="M156 477q0 -236 110.5 -369t339.5 -133q123 0 211 48.5t144.5 128t83 182t26.5 209.5q0 244 -109.5 383t-320.5 139q-125 0 -216 -49t-151.5 -130t-89 -187.5t-28.5 -221.5zM287 1247h100q2 18 7 40t15.5 41.5t30 32.5t51.5 13q23 0 55.5 -15.5t61.5 -29.5q45 -23 93 -42 t89 -19q49 0 88 22.5t67 61.5t45.5 88t21.5 102h-101q-8 -47 -40.5 -83t-80.5 -36q-23 0 -56.5 15.5t-74.5 38.5q-53 29 -90 41t-65 12q-59 0 -98.5 -26.5t-64 -67.5t-36.5 -91.5t-18 -97.5zM324 477q0 207 84 326t225 119q78 0 130 -31t83 -83t44 -121t13 -144 q0 -70 -14.5 -144.5t-48 -137t-92 -102.5t-146.5 -40q-78 0 -131 30.5t-86 81t-47 114.5t-14 132z" />
<glyph unicode="&#xf6;" d="M156 477q0 -236 110.5 -369t339.5 -133q123 0 211 48.5t144.5 128t83 182t26.5 209.5q0 244 -109.5 383t-320.5 139q-125 0 -216 -49t-151.5 -130t-89 -187.5t-28.5 -221.5zM324 477q0 207 84 326t225 119q78 0 130 -31t83 -83t44 -121t13 -144q0 -70 -14.5 -144.5 t-48 -137t-92 -102.5t-146.5 -40q-78 0 -131 30.5t-86 81t-47 114.5t-14 132zM367 1360q0 -45 30.5 -76t75.5 -31t76 31t31 76t-31 75.5t-76 30.5t-75.5 -30.5t-30.5 -75.5zM770 1360q0 -45 31 -76t76 -31t75.5 31t30.5 76t-30.5 75.5t-75.5 30.5t-76 -30.5t-31 -75.5z" />
<glyph unicode="&#xf7;" horiz-adv-x="1228" d="M117 434h1036v168h-1036v-168zM487 94q0 -61 43 -104t105 -43q61 0 104 43t43 104t-43 104.5t-104 43.5t-104.5 -43.5t-43.5 -104.5zM487 942q0 -61 43 -104t105 -43q61 0 104 43t43 104t-43 104.5t-104 43.5t-104.5 -43.5t-43.5 -104.5z" />
<glyph unicode="&#xf8;" d="M96 -2l72 -68l129 150q115 -104 309 -105q123 0 211 48.5t144.5 128t83 182t26.5 209.5q0 209 -80 338l139 161l-71 68l-129 -149q-109 104 -289 104q-125 0 -216 -49t-151.5 -130t-89 -187.5t-28.5 -221.5q0 -98 19.5 -178t60.5 -141zM324 477q0 207 84 326t225 119 q66 0 113 -22.5t77 -61.5l-469 -543q-16 41 -23 88t-7 94zM406 205l468 540q16 -47 22.5 -98t6.5 -104q0 -70 -14.5 -144.5t-48 -137t-92 -102.5t-146.5 -40q-68 0 -117 22.5t-79 63.5z" />
<glyph unicode="&#xf9;" horiz-adv-x="1214" d="M205 291q0 -137 76.5 -226.5t240.5 -89.5q109 0 185.5 51.5t130.5 129.5h4q2 -57 20.5 -93t44 -55.5t53 -26t50.5 -6.5q47 0 91 15.5t83 42.5l6 123q-23 -16 -52.5 -26.5t-58.5 -10.5q-41 0 -62.5 27.5t-21.5 91.5q0 31 2 80t7 112l34 610h-159l-27 -442 q-8 -135 -40 -227t-77 -148.5t-99 -80t-108 -23.5q-66 0 -110.5 50t-44.5 144q0 63 5 149.5t10 167.5t10 146.5t5 87.5q0 53 -4 98.5t-8 77.5h-168q4 -39 8.5 -86t4.5 -90q0 -68 -5.5 -153.5t-10.5 -166.5t-10 -149.5t-5 -103.5zM357 1534l291 -295h131l-168 295h-254z" />
<glyph unicode="&#xfa;" horiz-adv-x="1214" d="M205 291q0 -137 76.5 -226.5t240.5 -89.5q109 0 185.5 51.5t130.5 129.5h4q2 -57 20.5 -93t44 -55.5t53 -26t50.5 -6.5q47 0 91 15.5t83 42.5l6 123q-23 -16 -52.5 -26.5t-58.5 -10.5q-41 0 -62.5 27.5t-21.5 91.5q0 31 2 80t7 112l34 610h-159l-27 -442 q-8 -135 -40 -227t-77 -148.5t-99 -80t-108 -23.5q-66 0 -110.5 50t-44.5 144q0 63 5 149.5t10 167.5t10 146.5t5 87.5q0 53 -4 98.5t-8 77.5h-168q4 -39 8.5 -86t4.5 -90q0 -68 -5.5 -153.5t-10.5 -166.5t-10 -149.5t-5 -103.5zM535 1239h131l291 295h-254z" />
<glyph unicode="&#xfb;" horiz-adv-x="1214" d="M205 291q0 -137 76.5 -226.5t240.5 -89.5q109 0 185.5 51.5t130.5 129.5h4q2 -57 20.5 -93t44 -55.5t53 -26t50.5 -6.5q47 0 91 15.5t83 42.5l6 123q-23 -16 -52.5 -26.5t-58.5 -10.5q-41 0 -62.5 27.5t-21.5 91.5q0 31 2 80t7 112l34 610h-159l-27 -442 q-8 -135 -40 -227t-77 -148.5t-99 -80t-108 -23.5q-66 0 -110.5 50t-44.5 144q0 63 5 149.5t10 167.5t10 146.5t5 87.5q0 53 -4 98.5t-8 77.5h-168q4 -39 8.5 -86t4.5 -90q0 -68 -5.5 -153.5t-10.5 -166.5t-10 -149.5t-5 -103.5zM287 1239h131l236 176l186 -176h131 l-176 295h-266z" />
<glyph unicode="&#xfc;" horiz-adv-x="1214" d="M205 291q0 -137 76.5 -226.5t240.5 -89.5q109 0 185.5 51.5t130.5 129.5h4q2 -57 20.5 -93t44 -55.5t53 -26t50.5 -6.5q47 0 91 15.5t83 42.5l6 123q-23 -16 -52.5 -26.5t-58.5 -10.5q-41 0 -62.5 27.5t-21.5 91.5q0 31 2 80t7 112l34 610h-159l-27 -442 q-8 -135 -40 -227t-77 -148.5t-99 -80t-108 -23.5q-66 0 -110.5 50t-44.5 144q0 63 5 149.5t10 167.5t10 146.5t5 87.5q0 53 -4 98.5t-8 77.5h-168q4 -39 8.5 -86t4.5 -90q0 -68 -5.5 -153.5t-10.5 -166.5t-10 -149.5t-5 -103.5zM357 1360q0 -45 30.5 -76t75.5 -31t76 31 t31 76t-31 75.5t-76 30.5t-75.5 -30.5t-30.5 -75.5zM760 1360q0 -45 31 -76t76 -31t75.5 31t30.5 76t-30.5 75.5t-75.5 30.5t-76 -30.5t-31 -75.5z" />
<glyph unicode="&#xfd;" d="M205 295q0 -170 85 -245t218 -75q100 0 176 42t137 114l4 -4q-2 -88 -10 -182.5t-42 -172t-104.5 -128t-195.5 -50.5q-41 0 -100.5 10.5t-106.5 26.5l-10 -145q57 -18 123.5 -26.5t103.5 -8.5q133 0 225.5 38t151 108.5t87 171t34.5 227.5l53 1044h-162l-20 -409 q-6 -135 -25.5 -216t-54.5 -134q-29 -43 -61.5 -74t-66.5 -50.5t-64.5 -28.5t-55.5 -9q-86 0 -125 49t-39 133q0 68 4.5 151t10.5 163.5t10 152.5t4 119t-1 84t-9 69h-156q4 -25 7 -56.5t3 -57.5q0 -123 -14 -287t-14 -344zM555 1239h131l291 295h-254z" />
<glyph unicode="&#xfe;" d="M147 -537h168l33 600q47 -37 106.5 -62.5t141.5 -25.5q119 0 210 52.5t153.5 138.5t94 199.5t31.5 236.5q0 102 -19 187t-62 146.5t-112 95.5t-169 34q-104 0 -181 -41t-143 -125l-4 4l41 717h-168zM358 225l23 275q6 78 28.5 151.5t62.5 131t98.5 92t138.5 34.5 q59 0 99 -24.5t64.5 -65.5t35 -95t10.5 -116q0 -111 -27 -201t-74 -154.5t-111.5 -99t-142.5 -34.5q-74 0 -122 30.5t-83 75.5z" />
<glyph unicode="&#xff;" d="M205 295q0 -170 85 -245t218 -75q100 0 176 42t137 114l4 -4q-2 -88 -10 -182.5t-42 -172t-104.5 -128t-195.5 -50.5q-41 0 -100.5 10.5t-106.5 26.5l-10 -145q57 -18 123.5 -26.5t103.5 -8.5q133 0 225.5 38t151 108.5t87 171t34.5 227.5l53 1044h-162l-20 -409 q-6 -135 -25.5 -216t-54.5 -134q-29 -43 -61.5 -74t-66.5 -50.5t-64.5 -28.5t-55.5 -9q-86 0 -125 49t-39 133q0 68 4.5 151t10.5 163.5t10 152.5t4 119t-1 84t-9 69h-156q4 -25 7 -56.5t3 -57.5q0 -123 -14 -287t-14 -344zM377 1360q0 -45 30.5 -76t75.5 -31t76 31t31 76 t-31 75.5t-76 30.5t-75.5 -30.5t-30.5 -75.5zM780 1360q0 -45 31 -76t76 -31t75.5 31t30.5 76t-30.5 75.5t-75.5 30.5t-76 -30.5t-31 -75.5z" />
<glyph unicode="&#x152;" horiz-adv-x="2086" d="M170 692q0 -188 45 -323.5t124 -223.5t184.5 -129t226.5 -41q117 0 233.5 51.5t192.5 151.5h4l-11 -178h797l6 156h-624l26 510h563l7 155h-562l29 490h619l6 155h-785l-8 -198h-4q-35 47 -76 88t-92 70.5t-116.5 47t-147.5 17.5q-168 0 -288 -64.5t-197.5 -175 t-114.5 -255t-37 -304.5zM350 692q0 168 36 290t97.5 200t144.5 115.5t179 37.5q117 0 193.5 -53t122.5 -137t64.5 -186.5t18.5 -200.5q0 -109 -23.5 -219.5t-77.5 -201.5t-141 -148.5t-214 -57.5q-109 0 -185 45t-124 122t-69.5 178t-21.5 216z" />
<glyph unicode="&#x153;" horiz-adv-x="1781" d="M156 477q0 -236 110.5 -369t339.5 -133q115 0 211 48.5t164 152.5q53 -104 138 -152.5t202 -48.5q98 0 172 29t145 74v162q-61 -43 -139 -82t-145 -39q-66 0 -117 22.5t-87 62.5t-56.5 92t-22.5 114h76q86 0 184.5 13t182 55t140 119t56.5 204q0 47 -19.5 94t-58.5 85 t-95 61.5t-132 23.5q-70 0 -125 -16.5t-99 -48t-81 -77.5t-72 -104q-53 127 -157.5 186.5t-229.5 59.5t-216 -49t-151.5 -130t-89 -187.5t-28.5 -221.5zM324 477q0 207 84 326t225 119q78 0 130 -31t83 -83t44 -121t13 -144q0 -70 -14.5 -144.5t-48 -137t-92 -102.5 t-146.5 -40q-78 0 -131 30.5t-86 81t-47 114.5t-14 132zM1071 553q6 57 32.5 121.5t67.5 120t96.5 91.5t121.5 36q74 0 113.5 -43t39.5 -105q0 -59 -36 -100t-91 -68.5t-122.5 -40t-129.5 -12.5h-92z" />
<glyph unicode="&#x178;" horiz-adv-x="1214" d="M137 1466l426 -786l-37 -680h168l37 680l512 786h-192l-392 -628l-329 628h-193zM398 1684q0 -45 30.5 -76t75.5 -31t76 31t31 76t-31 75.5t-76 30.5t-75.5 -30.5t-30.5 -75.5zM801 1684q0 -45 31 -76t76 -31t75.5 31t30.5 76t-30.5 75.5t-75.5 30.5t-76 -30.5t-31 -75.5 z" />
<glyph unicode="&#x2c6;" horiz-adv-x="569" d="M-37 1239h131l236 176l186 -176h131l-176 295h-266z" />
<glyph unicode="&#x2dc;" horiz-adv-x="569" d="M-16 1247h100q2 18 7 40t15.5 41.5t30 32.5t51.5 13q23 0 55.5 -15.5t61.5 -29.5q45 -23 93 -42t89 -19q49 0 88 22.5t67 61.5t45.5 88t21.5 102h-101q-8 -47 -40.5 -83t-80.5 -36q-23 0 -56.5 15.5t-74.5 38.5q-53 29 -90 41t-65 12q-59 0 -98.5 -26.5t-64 -67.5 t-36.5 -91.5t-18 -97.5z" />
<glyph unicode="&#x2000;" horiz-adv-x="961" />
<glyph unicode="&#x2001;" horiz-adv-x="1923" />
<glyph unicode="&#x2002;" horiz-adv-x="961" />
<glyph unicode="&#x2003;" horiz-adv-x="1923" />
<glyph unicode="&#x2004;" horiz-adv-x="641" />
<glyph unicode="&#x2005;" horiz-adv-x="480" />
<glyph unicode="&#x2006;" horiz-adv-x="320" />
<glyph unicode="&#x2007;" horiz-adv-x="320" />
<glyph unicode="&#x2008;" horiz-adv-x="240" />
<glyph unicode="&#x2009;" horiz-adv-x="384" />
<glyph unicode="&#x200a;" horiz-adv-x="106" />
<glyph unicode="&#x2010;" horiz-adv-x="645" d="M100 467h496l10 156h-495z" />
<glyph unicode="&#x2011;" horiz-adv-x="645" d="M100 467h496l10 156h-495z" />
<glyph unicode="&#x2012;" horiz-adv-x="645" d="M100 467h496l10 156h-495z" />
<glyph unicode="&#x2013;" horiz-adv-x="1024" d="M0 467h1024v156h-1024v-156z" />
<glyph unicode="&#x2014;" horiz-adv-x="2048" d="M0 467h2048v156h-2048v-156z" />
<glyph unicode="&#x2018;" horiz-adv-x="645" d="M236 1063q0 -63 17 -105.5t41.5 -67t52.5 -33.5t48 -9q37 0 65.5 21.5t28.5 64.5q0 20 -15 39.5t-33.5 43t-34 54.5t-15.5 76q0 92 43 157.5t105 116.5l-62 70q-104 -74 -172.5 -185.5t-68.5 -242.5z" />
<glyph unicode="&#x2019;" horiz-adv-x="645" d="M213 918l61 -70q104 74 173 185.5t69 242.5q0 63 -17.5 105t-42 67t-52 34t-48.5 9q-37 0 -65.5 -21.5t-28.5 -64.5q0 -23 15.5 -41t34 -42t33.5 -54.5t15 -75.5q0 -92 -43 -157.5t-104 -116.5z" />
<glyph unicode="&#x201a;" horiz-adv-x="645" d="M143 -360l62 -70q104 74 172.5 185.5t68.5 242.5q0 63 -17 105t-42 67t-52.5 34t-47.5 9q-37 0 -65.5 -21.5t-28.5 -64.5q0 -23 15 -41t33.5 -42t34 -54.5t15.5 -75.5q0 -92 -43 -157.5t-105 -116.5z" />
<glyph unicode="&#x201c;" horiz-adv-x="1062" d="M236 1063q0 -63 17 -105.5t41.5 -67t52.5 -33.5t48 -9q37 0 65.5 21.5t28.5 64.5q0 20 -15 39.5t-33.5 43t-34 54.5t-15.5 76q0 92 43 157.5t105 116.5l-62 70q-104 -74 -172.5 -185.5t-68.5 -242.5zM653 1063q0 -63 17.5 -105.5t42 -67t52.5 -33.5t48 -9q37 0 65.5 21.5 t28.5 64.5q0 20 -15 39.5t-33.5 43t-34 54.5t-15.5 76q0 92 43 157.5t104 116.5l-61 70q-104 -74 -173 -185.5t-69 -242.5z" />
<glyph unicode="&#x201d;" horiz-adv-x="1062" d="M213 918l61 -70q104 74 173 185.5t69 242.5q0 63 -17.5 105t-42 67t-52 34t-48.5 9q-37 0 -65.5 -21.5t-28.5 -64.5q0 -23 15.5 -41t34 -42t33.5 -54.5t15 -75.5q0 -92 -43 -157.5t-104 -116.5zM631 918l61 -70q104 74 173 185.5t69 242.5q0 63 -17.5 105t-42 67t-52 34 t-48.5 9q-37 0 -65.5 -21.5t-28.5 -64.5q0 -23 15.5 -41t34 -42t33.5 -54.5t15 -75.5q0 -92 -43 -157.5t-104 -116.5z" />
<glyph unicode="&#x201e;" horiz-adv-x="1062" d="M143 -360l62 -70q104 74 172.5 185.5t68.5 242.5q0 63 -17 105t-42 67t-52.5 34t-47.5 9q-37 0 -65.5 -21.5t-28.5 -64.5q0 -23 15 -41t33.5 -42t34 -54.5t15.5 -75.5q0 -92 -43 -157.5t-105 -116.5zM561 -360l62 -70q104 74 172.5 185.5t68.5 242.5q0 63 -17.5 105 t-42 67t-52 34t-47.5 9q-37 0 -66 -21.5t-29 -64.5q0 -23 15.5 -41t34 -42t34 -54.5t15.5 -75.5q0 -92 -43 -157.5t-105 -116.5z" />
<glyph unicode="&#x2022;" horiz-adv-x="1024" d="M145 733q0 -76 29 -142.5t79 -116.5t116.5 -78.5t142.5 -28.5t142.5 28.5t116.5 78.5t79 116.5t29 142.5t-29 142.5t-79 116.5t-116.5 79t-142.5 29t-142.5 -29t-116.5 -79t-79 -116.5t-29 -142.5z" />
<glyph unicode="&#x2026;" horiz-adv-x="2048" d="M223 94q0 -49 35 -84t84 -35t84 35t35 84t-35 84t-84 35t-84 -35t-35 -84zM905 94q0 -49 35 -84t84 -35t84 35t35 84t-35 84t-84 35t-84 -35t-35 -84zM1587 94q0 -49 35 -84t84 -35t84 35t35 84t-35 84t-84 35t-84 -35t-35 -84z" />
<glyph unicode="&#x202f;" horiz-adv-x="384" />
<glyph unicode="&#x2039;" horiz-adv-x="645" d="M141 545l211 -404h180l-210 404l253 403h-180z" />
<glyph unicode="&#x203a;" horiz-adv-x="645" d="M141 141h181l253 404l-210 403h-181l211 -403z" />
<glyph unicode="&#x205f;" horiz-adv-x="480" />
<glyph unicode="&#x2122;" horiz-adv-x="2027" d="M152 1335h254v-712h167v712h254v131h-675v-131zM1001 623h156v663h4l250 -663h119l250 663h4v-663h155v843h-237l-229 -598l-234 598h-238v-843z" />
<glyph unicode="&#x25fc;" horiz-adv-x="1044" d="M0 0v1044h1044v-1044h-1044z" />
<glyph unicode="&#xfb01;" d="M-147 -526q29 -6 69.5 -14.5t81.5 -8.5q111 0 201 57.5t139 161.5q47 100 62.5 211t25.5 221q6 76 12.5 172.5t10.5 202t8 214t6 206.5h203l8 143h-211q0 92 7 172t34 138.5t79 92.5t142 34q88 0 167 -43t130 -107l12 191q-16 14 -44.5 34.5t-69.5 38t-92.5 29.5 t-112.5 12q-201 0 -310.5 -128t-109.5 -367v-97h-156l-8 -143h164q-2 -113 -5 -240t-7 -248.5t-10.5 -231t-14.5 -185.5q-8 -74 -23.5 -145.5t-45 -128t-79.5 -90.5t-130 -34q-25 0 -60 4.5t-63 10.5zM797 211q0 -98 42 -167t144 -69q92 0 170 54l8 131q-29 -14 -56.5 -27.5 t-64.5 -13.5q-39 0 -57 30.5t-18 77.5q0 29 4 114t10 198.5t14 246t15 254.5h-168q-4 -117 -11.5 -250t-14.5 -251.5t-12 -207.5t-5 -120z" />
<glyph unicode="&#xfb02;" horiz-adv-x="1214" d="M-147 -526q29 -6 69.5 -14.5t81.5 -8.5q111 0 201 57.5t139 161.5q47 100 62.5 211t25.5 221q6 76 12.5 172.5t10.5 202t8 214t6 206.5h203l8 143h-211v27q-2 197 43 303.5t160 106.5q76 0 132 -29t89 -74q-4 -63 -9 -161.5t-11.5 -211t-12.5 -232.5t-12 -228.5 t-9 -196.5t-3 -137q0 -111 44 -171.5t140 -60.5q86 0 162 48l8 124q-57 -41 -111 -41q-47 0 -67.5 39t-20.5 117q0 55 7.5 199.5t17.5 335.5q10 193 23.5 407.5t23.5 415.5h-156l-4 -84q-29 39 -88 67.5t-151 28.5q-96 0 -165 -38t-113 -105.5t-64.5 -160.5t-20.5 -202v-86 h-156l-8 -143h164q-2 -113 -5 -240t-7 -248.5t-10.5 -231t-14.5 -185.5q-8 -74 -23.5 -145.5t-45 -128t-79.5 -90.5t-130 -34q-25 0 -60 4.5t-63 10.5z" />
</font>
</defs>
</svg>
