<?xml version="1.0" standalone="no"?>
<!DOCTYPE svg PUBLIC "-//W3C//DTD SVG 1.1//EN" "http://www.w3.org/Graphics/SVG/1.1/DTD/svg11.dtd" >
<svg xmlns="http://www.w3.org/2000/svg">
<metadata></metadata>
<defs>
<font id="karbid_normalfiguresregular" horiz-adv-x="655" >
<font-face units-per-em="2048" ascent="1638" descent="-410" />
<missing-glyph horiz-adv-x="500" />
<glyph horiz-adv-x="2048" />
<glyph horiz-adv-x="2048" />
<glyph unicode="&#xd;" horiz-adv-x="2048" />
<glyph unicode=" " />
<glyph unicode="!" />
<glyph unicode="&#x22;" />
<glyph unicode="#" />
<glyph unicode="$" />
<glyph unicode="%" />
<glyph unicode="&#x26;" />
<glyph unicode="'" />
<glyph unicode="(" />
<glyph unicode=")" />
<glyph unicode="*" />
<glyph unicode="+" />
<glyph unicode="," />
<glyph unicode="-" />
<glyph unicode="." />
<glyph unicode="/" horiz-adv-x="346" d="M-205 -35l606 1532h150l-606 -1532h-150z" />
<glyph unicode="0" horiz-adv-x="1181" d="M102 702q0 119 16.5 227.5t54.5 209t94.5 174t141 117t189.5 43.5q108 0 192 -41.5t138 -111.5t88.5 -170.5t48.5 -210t14 -237.5q0 -117 -15 -220.5t-51 -198.5t-90 -163t-137 -108.5t-188 -40.5q-104 0 -188 38.5t-140.5 105.5t-95 160.5t-55.5 199.5t-17 227zM293 702 q0 -593 305 -593q52 0 93.5 16.5t71.5 44.5t52 71.5t35.5 91.5t22 111t11.5 123.5t3 134.5q0 86 -4 156t-15 145.5t-32 131.5t-52 102t-78 70t-108 24q-305 0 -305 -629z" />
<glyph unicode="1" horiz-adv-x="841" d="M41 1083q132 28 227.5 129t124.5 244h158v-1294l250 -29v-133h-684v135l262 27v1022q-27 -102 -104 -173t-177 -93z" />
<glyph unicode="2" horiz-adv-x="1013" d="M102 1241q54 108 156.5 170t228.5 62q190 0 307 -99.5t117 -267.5q0 -69 -23 -131.5t-67.5 -116t-91.5 -94.5t-113 -88l-106 -76q-112 -80 -156.5 -187t-44.5 -266h576l-17 -147h-753q0 265 62.5 434t223.5 287l101 74q7 5 20 14q96 70 131 110q64 75 64 187 q0 103 -64 166t-164 63q-71 0 -127 -45.5t-92 -120.5z" />
<glyph unicode="3" horiz-adv-x="1030" d="M102 1241q48 107 146.5 169.5t222.5 62.5q187 0 299.5 -103t112.5 -266q0 -100 -51.5 -176.5t-133.5 -116.5q105 -42 167.5 -148t62.5 -235q0 -186 -119 -312t-313 -126q-131 0 -237.5 62t-152.5 173l173 68q26 -71 83.5 -115.5t133.5 -44.5q114 0 176.5 85.5t62.5 211.5 q0 129 -65.5 217t-180.5 88h-75v135h73q95 0 148 67t53 169q0 101 -60 165t-157 64q-70 0 -120.5 -47.5t-78.5 -118.5z" />
<glyph unicode="4" horiz-adv-x="1126" d="M82 338v143l455 1008l184 -78l-461 -928h412v330l172 43v-373h221l-33 -145h-188v-338h-172v338h-590z" />
<glyph unicode="5" horiz-adv-x="1021" d="M123 225l174 68q28 -72 79 -116t122 -44q75 0 128 45.5t77 114.5t24 153q0 148 -63 243t-185 95q-91 0 -143 -34h-170v708h680l-31 -155h-477v-426q67 43 168 43q190 0 302 -136t112 -338q0 -191 -115 -323.5t-305 -132.5q-128 0 -225.5 60t-151.5 175z" />
<glyph unicode="6" horiz-adv-x="1046" d="M102 684q0 139 13 253.5t45 216.5t82.5 171t128.5 109.5t180 40.5q131 0 225 -65.5t152 -168.5l-164 -72q-37 78 -85.5 121t-127.5 43q-74 0 -126 -46t-79.5 -127.5t-39.5 -171t-13 -197.5q41 59 106.5 94t145.5 35q186 0 292.5 -130t106.5 -329q0 -133 -46.5 -241 t-145.5 -175.5t-236 -67.5q-99 0 -173.5 38t-119.5 100.5t-73 156t-38 191.5t-10 221zM291 569q0 -452 225 -452q64 0 112 28.5t75.5 78t41 109t13.5 128.5q0 138 -61 229.5t-181 91.5q-137 0 -225 -157v-56z" />
<glyph unicode="7" horiz-adv-x="972" d="M84 1303v155h807v-153q-404 -440 -404 -1305h-198q0 417 113.5 748t322.5 555h-641z" />
<glyph unicode="8" horiz-adv-x="1056" d="M102 412q0 262 240 376q-97 40 -150 121t-53 191q0 165 106 267.5t275 102.5t277 -103t108 -267q0 -103 -55 -182.5t-148 -120.5q119 -49 185.5 -144.5t66.5 -238.5q0 -195 -119.5 -313.5t-308.5 -118.5q-197 0 -310.5 116t-113.5 314zM287 414q0 -129 61.5 -217 t177.5 -88q121 0 185.5 86.5t64.5 218.5q0 122 -67 203.5t-185 103.5q-114 -28 -175.5 -108t-61.5 -199zM317 1100q0 -99 54.5 -171.5t152.5 -92.5q92 22 148.5 94.5t56.5 169.5q0 101 -58.5 171t-150.5 70q-87 0 -145 -71t-58 -170z" />
<glyph unicode="9" horiz-adv-x="1028" d="M102 985q0 136 45.5 245t140 177t224.5 68q98 0 172 -36t119.5 -95t73.5 -145.5t38.5 -177.5t10.5 -202q0 -96 -3.5 -173t-15 -166t-30.5 -156.5t-52.5 -132.5t-78.5 -107.5t-111 -68t-148 -25.5q-123 0 -216.5 63.5t-145.5 177.5l162 60q63 -160 200 -160q39 0 71 10.5 t55.5 26t42 45t30.5 55.5t20.5 70.5t13 76.5t7 87t3.5 89t1 95q-39 -66 -108.5 -108.5t-155.5 -42.5q-169 0 -267 127t-98 323zM289 981q0 -83 18 -150t63.5 -114t114.5 -47q82 0 149.5 55t104.5 129v49q0 86 -11 159t-36 136.5t-71 100t-109 36.5q-60 0 -104.5 -29 t-69.5 -79.5t-37 -112t-12 -133.5z" />
<glyph unicode=":" />
<glyph unicode=";" />
<glyph unicode="&#x3c;" />
<glyph unicode="=" />
<glyph unicode="&#x3e;" />
<glyph unicode="?" />
<glyph unicode="@" />
<glyph unicode="A" />
<glyph unicode="B" />
<glyph unicode="C" />
<glyph unicode="D" />
<glyph unicode="E" />
<glyph unicode="F" />
<glyph unicode="G" />
<glyph unicode="H" />
<glyph unicode="I" />
<glyph unicode="J" />
<glyph unicode="K" />
<glyph unicode="L" />
<glyph unicode="M" />
<glyph unicode="N" />
<glyph unicode="O" />
<glyph unicode="P" />
<glyph unicode="Q" />
<glyph unicode="R" />
<glyph unicode="S" />
<glyph unicode="T" />
<glyph unicode="U" />
<glyph unicode="V" />
<glyph unicode="W" />
<glyph unicode="X" />
<glyph unicode="Y" />
<glyph unicode="Z" />
<glyph unicode="[" />
<glyph unicode="\" />
<glyph unicode="]" />
<glyph unicode="^" />
<glyph unicode="_" />
<glyph unicode="`" />
<glyph unicode="a" horiz-adv-x="1826" d="M143 735q0 211 105 387t282 275.5t385 99.5q207 0 383 -99.5t280.5 -275.5t104.5 -387q0 -162 -61.5 -305.5t-165.5 -245t-245 -160.5t-296 -59q-156 0 -297.5 59t-246 160.5t-166.5 245t-62 305.5zM283 735q0 -185 83 -335.5t227.5 -236t321.5 -85.5q175 0 319 85.5 t227 236.5t83 335q0 181 -83 330t-227.5 234t-318.5 85q-176 0 -321 -85t-228 -234t-83 -330zM649 958q84 17 141 75.5t76 146.5h113v-873h-123v651q-51 -90 -166 -116z" />
<glyph unicode="b" horiz-adv-x="1826" d="M143 735q0 211 105 387t282 275.5t385 99.5q207 0 383 -99.5t280.5 -275.5t104.5 -387q0 -162 -61.5 -305.5t-165.5 -245t-245 -160.5t-296 -59q-156 0 -297.5 59t-246 160.5t-166.5 245t-62 305.5zM283 735q0 -185 83 -335.5t227.5 -236t321.5 -85.5q175 0 319 85.5 t227 236.5t83 335q0 181 -83 330t-227.5 234t-318.5 85q-176 0 -321 -85t-228 -234t-83 -330zM668 1036q37 72 102 112t143 40q118 0 191.5 -60.5t73.5 -164.5q0 -80 -48 -139.5t-135 -121.5l-63 -45q-64 -44 -89.5 -102t-27.5 -145h348l-12 -107h-473q0 165 38 268.5 t138 173.5q15 11 53.5 37t57.5 41q39 29 57 61t18 79q0 56 -35.5 90t-91.5 34q-76 0 -127 -100z" />
<glyph unicode="c" horiz-adv-x="1826" d="M143 735q0 211 105 387t282 275.5t385 99.5q207 0 383 -99.5t280.5 -275.5t104.5 -387q0 -162 -61.5 -305.5t-165.5 -245t-245 -160.5t-296 -59q-156 0 -297.5 59t-246 160.5t-166.5 245t-62 305.5zM283 735q0 -185 83 -335.5t227.5 -236t321.5 -85.5q175 0 319 85.5 t227 236.5t83 335q0 181 -83 330t-227.5 234t-318.5 85q-176 0 -321 -85t-228 -234t-83 -330zM666 1018q34 72 96 111.5t139 39.5q116 0 186 -63t70 -164q0 -113 -98 -170q58 -30 91.5 -91t33.5 -134q0 -113 -74.5 -190.5t-194.5 -77.5q-81 0 -148.5 39.5t-98.5 113.5 l123 47q18 -45 50 -70.5t74 -25.5q64 0 99 46.5t35 117.5q0 73 -37 121.5t-101 48.5h-55v98h53q53 0 82 36t29 93q0 56 -32.5 89.5t-86.5 33.5q-75 0 -115 -100z" />
<glyph unicode="d" horiz-adv-x="1826" d="M143 735q0 211 105 387t282 275.5t385 99.5q207 0 383 -99.5t280.5 -275.5t104.5 -387q0 -162 -61.5 -305.5t-165.5 -245t-245 -160.5t-296 -59q-156 0 -297.5 59t-246 160.5t-166.5 245t-62 305.5zM283 735q0 -185 83 -335.5t227.5 -236t321.5 -85.5q175 0 319 85.5 t227 236.5t83 335q0 181 -83 330t-227.5 234t-318.5 85q-176 0 -321 -85t-228 -234t-83 -330zM590 502v96l278 602l129 -53l-274 -539h221v191l123 30v-221h135l-24 -106h-111v-199h-123v199h-354z" />
<glyph unicode="e" horiz-adv-x="1826" d="M143 735q0 211 105 387t282 275.5t385 99.5q207 0 383 -99.5t280.5 -275.5t104.5 -387q0 -162 -61.5 -305.5t-165.5 -245t-245 -160.5t-296 -59q-156 0 -297.5 59t-246 160.5t-166.5 245t-62 305.5zM283 735q0 -185 83 -335.5t227.5 -236t321.5 -85.5q175 0 319 85.5 t227 236.5t83 335q0 181 -83 330t-227.5 234t-318.5 85q-176 0 -321 -85t-228 -234t-83 -330zM680 440l125 47q41 -96 115 -96q60 0 93.5 50.5t33.5 123.5q0 85 -36.5 137t-103.5 52q-48 0 -82 -21h-116v436h432l-23 -112h-284v-221q31 16 90 16q119 0 188.5 -82t69.5 -205 q0 -115 -71.5 -196.5t-190.5 -81.5q-166 0 -240 153z" />
<glyph unicode="f" horiz-adv-x="1826" d="M143 735q0 211 105 387t282 275.5t385 99.5q207 0 383 -99.5t280.5 -275.5t104.5 -387q0 -162 -61.5 -305.5t-165.5 -245t-245 -160.5t-296 -59q-156 0 -297.5 59t-246 160.5t-166.5 245t-62 305.5zM283 735q0 -185 83 -335.5t227.5 -236t321.5 -85.5q175 0 319 85.5 t227 236.5t83 335q0 181 -83 330t-227.5 234t-318.5 85q-176 0 -321 -85t-228 -234t-83 -330zM655 711q0 473 279 473q155 0 242 -152l-119 -51q-24 49 -52 74.5t-71 25.5q-135 0 -143 -280q57 57 141 57q117 0 183.5 -79t66.5 -199q0 -124 -71 -209.5t-198 -85.5 q-62 0 -109 23.5t-75 62t-45 95.5t-23 115t-6 130zM788 643q0 -256 125 -256q68 0 102 55t34 138q0 78 -35 128t-101 50q-76 0 -125 -86v-29z" />
<glyph unicode="g" horiz-adv-x="1826" d="M143 735q0 211 105 387t282 275.5t385 99.5q207 0 383 -99.5t280.5 -275.5t104.5 -387q0 -162 -61.5 -305.5t-165.5 -245t-245 -160.5t-296 -59q-156 0 -297.5 59t-246 160.5t-166.5 245t-62 305.5zM283 735q0 -185 83 -335.5t227.5 -236t321.5 -85.5q175 0 319 85.5 t227 236.5t83 335q0 181 -83 330t-227.5 234t-318.5 85q-176 0 -321 -85t-228 -234t-83 -330zM688 1065v113h504v-105q-130 -139 -186 -331t-56 -439h-139q0 489 248 762h-371z" />
<glyph unicode="h" horiz-adv-x="1826" d="M143 735q0 211 105 387t282 275.5t385 99.5q207 0 383 -99.5t280.5 -275.5t104.5 -387q0 -162 -61.5 -305.5t-165.5 -245t-245 -160.5t-296 -59q-156 0 -297.5 59t-246 160.5t-166.5 245t-62 305.5zM283 735q0 -185 83 -335.5t227.5 -236t321.5 -85.5q175 0 319 85.5 t227 236.5t83 335q0 181 -83 330t-227.5 234t-318.5 85q-176 0 -321 -85t-228 -234t-83 -330zM651 551q0 150 131 221q-108 54 -108 182q0 101 65.5 164.5t171.5 63.5t174 -63.5t68 -164.5q0 -59 -29 -105t-80 -73q140 -68 140 -225q0 -119 -75.5 -190.5t-193.5 -71.5 q-123 0 -193.5 71t-70.5 191zM782 551q0 -73 34 -120.5t99 -47.5q67 0 103.5 47t36.5 121q0 68 -37 113t-103 57q-63 -15 -98 -60t-35 -110zM801 954q0 -56 30 -95.5t84 -49.5q51 12 82 51.5t31 93.5q0 56 -33 93.5t-84 37.5q-47 0 -78.5 -37.5t-31.5 -93.5z" />
<glyph unicode="i" horiz-adv-x="1826" d="M143 735q0 211 105 387t282 275.5t385 99.5q207 0 383 -99.5t280.5 -275.5t104.5 -387q0 -162 -61.5 -305.5t-165.5 -245t-245 -160.5t-296 -59q-156 0 -297.5 59t-246 160.5t-166.5 245t-62 305.5zM283 735q0 -185 83 -335.5t227.5 -236t321.5 -85.5q175 0 319 85.5 t227 236.5t83 335q0 181 -83 330t-227.5 234t-318.5 85q-176 0 -321 -85t-228 -234t-83 -330zM666 883q0 126 67.5 211.5t188.5 85.5q62 0 108.5 -22.5t74.5 -58.5t45.5 -89t23.5 -107t6 -119q0 -56 -2 -100.5t-9 -98t-18.5 -94t-32 -80t-48.5 -65t-69.5 -41.5t-93.5 -16 q-158 0 -231 155l117 43q39 -96 114 -96q36 0 61 15t39 38t22 63t10 75.5t3 91.5q-56 -66 -147 -66q-107 0 -168 78t-61 197zM799 879q0 -74 26 -123t80 -49q46 0 83.5 29t60.5 71v27q0 107 -30.5 175t-96.5 68q-63 0 -93 -55t-30 -143z" />
<glyph unicode="j" horiz-adv-x="1826" d="M143 735q0 211 105 387t282 275.5t385 99.5q207 0 383 -99.5t280.5 -275.5t104.5 -387q0 -162 -61.5 -305.5t-165.5 -245t-245 -160.5t-296 -59q-156 0 -297.5 59t-246 160.5t-166.5 245t-62 305.5zM283 735q0 -185 83 -335.5t227.5 -236t321.5 -85.5q175 0 319 85.5 t227 236.5t83 335q0 181 -83 330t-227.5 234t-318.5 85q-176 0 -321 -85t-228 -234t-83 -330zM610 725q0 70 10 134.5t33.5 125t58 104.5t87.5 70.5t119 26.5q68 0 120.5 -25.5t85.5 -68t54.5 -103t30 -125t8.5 -139.5q0 -87 -15.5 -162t-48.5 -139.5t-93 -101.5t-142 -37 q-65 0 -117.5 23.5t-87.5 64.5t-58.5 97.5t-34 120t-10.5 134.5zM745 725q0 -340 173 -340q49 0 82 25t50 73.5t24 106t7 135.5t-6.5 136.5t-23 111.5t-50.5 81.5t-83 28.5q-173 0 -173 -358z" />
<glyph unicode="k" />
<glyph unicode="l" />
<glyph unicode="m" />
<glyph unicode="n" />
<glyph unicode="o" horiz-adv-x="1826" d="M143 735q0 211 105 387t282 275.5t385 99.5q207 0 383 -99.5t280.5 -275.5t104.5 -387q0 -162 -61.5 -305.5t-165.5 -245t-245 -160.5t-296 -59q-156 0 -297.5 59t-246 160.5t-166.5 245t-62 305.5zM283 735q0 -185 83 -335.5t227.5 -236t321.5 -85.5q175 0 319 85.5 t227 236.5t83 335q0 181 -83 330t-227.5 234t-318.5 85q-176 0 -321 -85t-228 -234t-83 -330z" />
<glyph unicode="p" />
<glyph unicode="q" />
<glyph unicode="r" />
<glyph unicode="s" />
<glyph unicode="t" />
<glyph unicode="u" />
<glyph unicode="v" />
<glyph unicode="w" />
<glyph unicode="x" horiz-adv-x="1826" d="M143 735q0 211 105 387t282 275.5t385 99.5q207 0 383 -99.5t280.5 -275.5t104.5 -387q0 -162 -61.5 -305.5t-165.5 -245t-245 -160.5t-296 -59q-156 0 -297.5 59t-246 160.5t-166.5 245t-62 305.5zM283 735q0 -185 83 -335.5t227.5 -236t321.5 -85.5q175 0 319 85.5 t227 236.5t83 335q0 181 -83 330t-227.5 234t-318.5 85q-176 0 -321 -85t-228 -234t-83 -330zM563 999l88 91l271 -269l247 250l91 -88l-250 -252l264 -264l-88 -90l-264 266l-263 -260l-90 88l262 260z" />
<glyph unicode="y" />
<glyph unicode="z" />
<glyph unicode="{" />
<glyph unicode="|" />
<glyph unicode="}" />
<glyph unicode="~" />
<glyph unicode="&#xa0;" />
<glyph unicode="&#xa1;" />
<glyph unicode="&#xa2;" />
<glyph unicode="&#xa3;" />
<glyph unicode="&#xa4;" />
<glyph unicode="&#xa5;" />
<glyph unicode="&#xa6;" />
<glyph unicode="&#xa7;" />
<glyph unicode="&#xa8;" />
<glyph unicode="&#xa9;" horiz-adv-x="1826" d="M143 735q0 211 105 387t282 275.5t385 99.5q207 0 383 -99.5t280.5 -275.5t104.5 -387q0 -162 -61.5 -305.5t-165.5 -245t-245 -160.5t-296 -59q-156 0 -297.5 59t-246 160.5t-166.5 245t-62 305.5zM283 735q0 -185 83 -335.5t227.5 -236t321.5 -85.5q175 0 319 85.5 t227 236.5t83 335q0 180 -83 329t-227.5 234.5t-318.5 85.5q-132 0 -249.5 -50.5t-201 -137t-132.5 -206.5t-49 -255zM580 713q0 212 92.5 344.5t259.5 132.5q169 0 278 -135l-104 -76q-70 98 -178 98q-99 0 -150 -102.5t-51 -261.5q0 -155 51 -253t154 -98q38 0 71.5 12 t53.5 25.5t53 40.5l90 -88q-109 -102 -268 -102q-92 0 -161 35.5t-110 99t-61 146t-20 182.5z" />
<glyph unicode="&#xaa;" />
<glyph unicode="&#xab;" />
<glyph unicode="&#xac;" />
<glyph unicode="&#xad;" />
<glyph unicode="&#xae;" horiz-adv-x="1826" d="M143 735q0 211 105 387t282 275.5t385 99.5q207 0 383 -99.5t280.5 -275.5t104.5 -387q0 -162 -61.5 -305.5t-165.5 -245t-245 -160.5t-296 -59q-156 0 -297.5 59t-246 160.5t-166.5 245t-62 305.5zM283 735q0 -185 83 -335.5t227.5 -236t321.5 -85.5q175 0 319 85.5 t227 236.5t83 335q0 181 -83 330t-227.5 234t-318.5 85q-176 0 -321 -85t-228 -234t-83 -330zM664 285v895h219q144 0 231.5 -60t87.5 -176q0 -69 -42.5 -120.5t-104.5 -75.5q60 -30 91.5 -87t31.5 -131v-77q0 -72 41 -72q26 0 65 20l47 -92q-52 -37 -121 -37 q-163 0 -163 172v86q0 77 -50 123.5t-129 46.5h-73v-415h-131zM795 811h90q81 0 130.5 35.5t49.5 97.5q0 64 -49.5 96.5t-132.5 32.5h-88v-262z" />
<glyph unicode="&#xaf;" />
<glyph unicode="&#xb0;" />
<glyph unicode="&#xb1;" />
<glyph unicode="&#xb2;" />
<glyph unicode="&#xb3;" />
<glyph unicode="&#xb4;" />
<glyph unicode="&#xb5;" />
<glyph unicode="&#xb6;" />
<glyph unicode="&#xb7;" />
<glyph unicode="&#xb8;" />
<glyph unicode="&#xb9;" />
<glyph unicode="&#xba;" />
<glyph unicode="&#xbb;" />
<glyph unicode="&#xbc;" />
<glyph unicode="&#xbd;" />
<glyph unicode="&#xbe;" />
<glyph unicode="&#xbf;" />
<glyph unicode="&#xc0;" />
<glyph unicode="&#xc1;" />
<glyph unicode="&#xc2;" />
<glyph unicode="&#xc3;" />
<glyph unicode="&#xc4;" />
<glyph unicode="&#xc5;" />
<glyph unicode="&#xc6;" />
<glyph unicode="&#xc7;" />
<glyph unicode="&#xc8;" />
<glyph unicode="&#xc9;" />
<glyph unicode="&#xca;" />
<glyph unicode="&#xcb;" />
<glyph unicode="&#xcc;" />
<glyph unicode="&#xcd;" />
<glyph unicode="&#xce;" />
<glyph unicode="&#xcf;" />
<glyph unicode="&#xd0;" />
<glyph unicode="&#xd1;" />
<glyph unicode="&#xd2;" />
<glyph unicode="&#xd3;" />
<glyph unicode="&#xd4;" />
<glyph unicode="&#xd5;" />
<glyph unicode="&#xd6;" />
<glyph unicode="&#xd7;" />
<glyph unicode="&#xd8;" />
<glyph unicode="&#xd9;" />
<glyph unicode="&#xda;" />
<glyph unicode="&#xdb;" />
<glyph unicode="&#xdc;" />
<glyph unicode="&#xdd;" />
<glyph unicode="&#xde;" />
<glyph unicode="&#xdf;" />
<glyph unicode="&#xe0;" />
<glyph unicode="&#xe1;" />
<glyph unicode="&#xe2;" />
<glyph unicode="&#xe3;" />
<glyph unicode="&#xe4;" />
<glyph unicode="&#xe5;" />
<glyph unicode="&#xe6;" />
<glyph unicode="&#xe7;" />
<glyph unicode="&#xe8;" />
<glyph unicode="&#xe9;" />
<glyph unicode="&#xea;" />
<glyph unicode="&#xeb;" />
<glyph unicode="&#xec;" />
<glyph unicode="&#xed;" />
<glyph unicode="&#xee;" />
<glyph unicode="&#xef;" />
<glyph unicode="&#xf0;" />
<glyph unicode="&#xf1;" />
<glyph unicode="&#xf2;" />
<glyph unicode="&#xf3;" />
<glyph unicode="&#xf4;" />
<glyph unicode="&#xf5;" />
<glyph unicode="&#xf6;" />
<glyph unicode="&#xf7;" />
<glyph unicode="&#xf8;" />
<glyph unicode="&#xf9;" />
<glyph unicode="&#xfa;" />
<glyph unicode="&#xfb;" />
<glyph unicode="&#xfc;" />
<glyph unicode="&#xfd;" />
<glyph unicode="&#xfe;" />
<glyph unicode="&#xff;" />
<glyph unicode="&#x152;" />
<glyph unicode="&#x153;" />
<glyph unicode="&#x178;" />
<glyph unicode="&#x2c6;" />
<glyph unicode="&#x2dc;" />
<glyph unicode="&#x2000;" horiz-adv-x="748" />
<glyph unicode="&#x2001;" horiz-adv-x="1497" />
<glyph unicode="&#x2002;" horiz-adv-x="748" />
<glyph unicode="&#x2003;" horiz-adv-x="1497" />
<glyph unicode="&#x2004;" horiz-adv-x="499" />
<glyph unicode="&#x2005;" horiz-adv-x="374" />
<glyph unicode="&#x2006;" horiz-adv-x="249" />
<glyph unicode="&#x2007;" horiz-adv-x="249" />
<glyph unicode="&#x2008;" horiz-adv-x="187" />
<glyph unicode="&#x2009;" horiz-adv-x="299" />
<glyph unicode="&#x200a;" horiz-adv-x="83" />
<glyph unicode="&#x2010;" />
<glyph unicode="&#x2011;" />
<glyph unicode="&#x2012;" />
<glyph unicode="&#x2013;" />
<glyph unicode="&#x2014;" />
<glyph unicode="&#x2018;" />
<glyph unicode="&#x2019;" />
<glyph unicode="&#x201a;" />
<glyph unicode="&#x201c;" />
<glyph unicode="&#x201d;" />
<glyph unicode="&#x201e;" />
<glyph unicode="&#x2022;" />
<glyph unicode="&#x2026;" />
<glyph unicode="&#x202f;" horiz-adv-x="299" />
<glyph unicode="&#x2039;" />
<glyph unicode="&#x203a;" />
<glyph unicode="&#x205f;" horiz-adv-x="374" />
<glyph unicode="&#x2122;" />
<glyph unicode="&#x25fc;" horiz-adv-x="1495" d="M0 0v1495h1495v-1495h-1495z" />
<glyph unicode="&#xfb01;" />
<glyph unicode="&#xfb02;" />
</font>
</defs>
</svg>
